<svg xmlns="http://www.w3.org/2000/svg" width="12.923" height="13.539" viewBox="0 0 12.923 13.539">
  <g id="Group_188" data-name="Group 188" transform="translate(0.7 0.707)">
    <g id="Group_189" data-name="Group 189" transform="translate(0 0)">
      <path id="Path_692" data-name="Path 692" d="M11.32,5.808v-3.2A2.112,2.112,0,0,0,9.209.5h-5.8L3.383,3.253.5,3.276v7.442a2.11,2.11,0,0,0,2.12,2.111l4.047-.016" transform="translate(-0.5 -0.498)" fill="none" stroke="#db1e3e" stroke-linecap="round" stroke-miterlimit="10" stroke-width="1"/>
      <line id="Line_105" data-name="Line 105" y1="2.569" x2="2.655" transform="translate(0.007)" fill="none" stroke="#db1e3e" stroke-linecap="round" stroke-miterlimit="10" stroke-width="1"/>
      <line id="Line_106" data-name="Line 106" x1="1.345" transform="translate(7.134 2.974)" fill="none" stroke="#db1e3e" stroke-linecap="round" stroke-miterlimit="10" stroke-width="1"/>
      <line id="Line_107" data-name="Line 107" x1="6.167" transform="translate(2.312 4.974)" fill="none" stroke="#db1e3e" stroke-linecap="round" stroke-miterlimit="10" stroke-width="1"/>
      <line id="Line_109" data-name="Line 109" x1="2.627" transform="translate(2.312 6.974)" fill="none" stroke="#db1e3e" stroke-linecap="round" stroke-miterlimit="10" stroke-width="1"/>
      <line id="Line_110" data-name="Line 110" x1="2" transform="translate(2.134 8.974)" fill="none" stroke="#db1e3e" stroke-linecap="round" stroke-miterlimit="10" stroke-width="1"/>
      <line id="Line_111" data-name="Line 111" x2="3.518" y2="3.518" transform="translate(7.998 7.826)" fill="none" stroke="#db1e3e" stroke-linecap="round" stroke-miterlimit="10" stroke-width="1"/>
      <path id="Path_725" data-name="Path 725" d="M3.518,0,1.759,1.759,0,3.518" transform="translate(7.998 7.826)" fill="none" stroke="#db1e3e" stroke-linecap="round" stroke-width="1"/>
    </g>
  </g>
</svg>
