<svg xmlns="http://www.w3.org/2000/svg" width="59" height="59" viewBox="0 0 59 59">
  <g id="Group_653" data-name="Group 653" transform="translate(3733 -2029)">
    <g id="Group_649" data-name="Group 649" transform="translate(-4038 1534)">
      <g id="Ellipse_17" data-name="Ellipse 17" transform="translate(305 495)" fill="#fff" stroke="#f8f8f8" stroke-width="4">
        <circle cx="29.5" cy="29.5" r="29.5" stroke="none"/>
        <circle cx="29.5" cy="29.5" r="27.5" fill="none"/>
      </g>
    </g>
    <g id="Group_593" data-name="Group 593" transform="translate(-3717.894 2044.664)">
      <g id="Group_117" data-name="Group 117" transform="translate(0 0)">
        <path id="Path_656" data-name="Path 656" d="M18.733,6.584A6.084,6.084,0,1,1,12.65.5,6.084,6.084,0,0,1,18.733,6.584Z" transform="translate(1.683 0.128)" fill="none" stroke="#29c285" stroke-miterlimit="10" stroke-width="2"/>
        <path id="Path_657" data-name="Path 657" d="M20.4,23.592H.5V21.133a8.113,8.113,0,0,1,8.113-8.111h5.592" transform="translate(0.128 3.339)" fill="none" stroke="#29c285" stroke-miterlimit="10" stroke-width="2"/>
        <circle id="Ellipse_18" data-name="Ellipse 18" cx="5.531" cy="5.531" r="5.531" transform="translate(16.151 15.981)" fill="none" stroke="#29c285" stroke-miterlimit="10" stroke-width="2"/>
        <line id="Line_71" data-name="Line 71" y1="3.769" transform="translate(21.681 20.672)" fill="none" stroke="#29c285" stroke-miterlimit="10" stroke-width="2"/>
        <line id="Line_72" data-name="Line 72" y1="1.065" transform="translate(21.681 18.583)" fill="none" stroke="#29c285" stroke-miterlimit="10" stroke-width="2"/>
      </g>
    </g>
  </g>
</svg>
