<svg xmlns="http://www.w3.org/2000/svg" xmlns:xlink="http://www.w3.org/1999/xlink" width="62.998" height="62.998" viewBox="0 0 62.998 62.998">
  <defs>
    <clipPath id="clip-path">
      <path id="Path_267" data-name="Path 267" d="M29.668.5A29.168,29.168,0,1,0,58.836,29.665,29.168,29.168,0,0,0,29.668.5" transform="translate(-0.5 -0.497)" fill="#fff"/>
    </clipPath>
    <clipPath id="clip-path-2">
      <rect id="Rectangle_147" data-name="Rectangle 147" width="62.25" height="66.425" fill="none"/>
    </clipPath>
    <clipPath id="clip-path-3">
      <circle id="Ellipse_10" data-name="Ellipse 10" cx="31.125" cy="31.125" r="31.125" fill="none"/>
    </clipPath>
    <clipPath id="clip-path-4">
      <rect id="Rectangle_145" data-name="Rectangle 145" width="5.55" height="4.599" fill="none"/>
    </clipPath>
  </defs>
  <g id="Group_552" data-name="Group 552" transform="translate(-75.001 -179.002)">
    <g id="Group_515" data-name="Group 515" transform="translate(11.001 -7.998)">
      <circle id="Ellipse_12" data-name="Ellipse 12" cx="31.499" cy="31.499" r="31.499" transform="translate(126.998 249.998) rotate(180)" fill="#29c285"/>
      <g id="Group_107" data-name="Group 107" transform="translate(66.319 189.319)">
        <circle id="Ellipse_11" data-name="Ellipse 11" cx="29.168" cy="29.168" r="29.168" transform="translate(0 0)" fill="#fff"/>
        <g id="Mask_Group_1" data-name="Mask Group 1" transform="translate(0 0)" clip-path="url(#clip-path)">
          <g id="Group_106" data-name="Group 106" transform="translate(-1.957 -1.967)">
            <g id="Group_105" data-name="Group 105" clip-path="url(#clip-path-2)">
              <g id="Group_104" data-name="Group 104" transform="translate(0 0)">
                <g id="Group_103" data-name="Group 103" clip-path="url(#clip-path-3)">
                  <path id="Path_612" data-name="Path 612" d="M362.7,495.519c-.01.116-.028.232-.029.348-.005.746-.007,3.473-.009,4.218a8.751,8.751,0,0,0,3.416,4.276,17.766,17.766,0,0,1,1.385,1.24,20.005,20.005,0,0,1,1.977,2.1.694.694,0,0,1,.2.324c.136.032.22-.067.319-.128a11.469,11.469,0,0,1,1.413-1.612c.933-.941,1.946-1.789,2.963-2.639a7.664,7.664,0,0,0,2.306-2.929c.084-.206.147-.42.22-.63,0-.713,0-3.408-.008-4.121,0-.11.045-.239-.083-.319a.1.1,0,0,0-.043-.008s-2.3,3.353-7.755,3.14a8.75,8.75,0,0,1-6.269-3.257" transform="translate(-339.246 -463.528)" fill="#d1d1d1"/>
                  <path id="Path_613" data-name="Path 613" d="M394.518,692.561c-.077.191-.261.376-.037.586a1.506,1.506,0,0,1,.005.161c-.1,1.511-.222,3.023-.3,4.536-.112,2.244-.2,4.489-.281,6.734,0,.12-.009.24-.014.36a31.372,31.372,0,0,1-10.692-.123c-.013-.146-.028-.291-.045-.437-.106-.92-.106-1.852-.141-2.779-.038-1.006.031-2.012-.05-3.021-.068-.862-.008-1.733-.072-2.6-.033-.446-.065-.893-.084-1.341-.037-.884-.146-1.765-.108-2.651a1.691,1.691,0,0,0,.819-.456c.262-.279.644-.444.857-.766.247-.373.5-.746.768-1.1a5.408,5.408,0,0,1,3.107-2.2.144.144,0,0,0,.123-.127c.136.032.22-.067.319-.128a.864.864,0,0,1,.628.369.2.2,0,0,0,.143.067,2.711,2.711,0,0,1,1.3.7,4.231,4.231,0,0,1,1.389,1.645,4.963,4.963,0,0,0,1.431,1.656c.288.241.686.328.967.595a.544.544,0,0,1-.035.317" transform="translate(-357.988 -642.845)" fill="#29c285"/>
                  <path id="Path_614" data-name="Path 614" d="M86.185,606.706a31.1,31.1,0,0,1-21.007-14.662,8.593,8.593,0,0,1,2.735-2.483c4.321-2.26,12.1-5.3,14.374-6.579.262-.148.892-.568.892-.568s.186-.063.225-.082A6.027,6.027,0,0,0,83.62,584c.067.242.037.482.084.721.127.641.358,1.247.546,1.868a34.463,34.463,0,0,1,1.313,6.354,2.229,2.229,0,0,0,.123.93c-.038.886.071,1.767.108,2.651.019.447.051.895.084,1.341.064.867,0,1.738.072,2.6.081,1.009.012,2.015.05,3.022.035.927.035,1.859.141,2.779.017.146.032.291.045.437" transform="translate(-60.97 -544.736)" fill="#e9e9e9"/>
                  <path id="Path_615" data-name="Path 615" d="M577.022,592.012c-2.262-1.007-17.7-9.435-18.168-9.68a14.8,14.8,0,0,1-.14,2.209,5.669,5.669,0,0,1-.455,1.434,9.735,9.735,0,0,0-.7,2.46c-.165.852-.292,1.708-.393,2.569-.121,1.043-.225,2.088-.336,3.132a.543.543,0,0,1-.035.317l-.037.586a1.506,1.506,0,0,1,.005.161c-.1,1.512-.222,3.023-.3,4.536-.112,2.244-.2,4.49-.281,6.734,0,.12-.009.24-.014.36a31.088,31.088,0,0,0,21.548-14.5q-.345-.162-.693-.317" transform="translate(-520.261 -544.736)" fill="#e9e9e9"/>
                  <path id="Path_616" data-name="Path 616" d="M475.626,574.046a11.476,11.476,0,0,1,1.413-1.612c.933-.941,1.946-1.789,2.963-2.639a7.662,7.662,0,0,0,2.306-2.929c.084-.206.147-.42.22-.63.4.028.45.43.676.644a3.243,3.243,0,0,1,.308.395,14.792,14.792,0,0,1-.14,2.209,5.7,5.7,0,0,1-.455,1.434,9.732,9.732,0,0,0-.7,2.459c-.165.852-.292,1.708-.393,2.569-.122,1.043-.225,2.088-.336,3.132-.281-.267-.679-.354-.967-.6a4.962,4.962,0,0,1-1.431-1.655,4.238,4.238,0,0,0-1.389-1.645,2.714,2.714,0,0,0-1.3-.7.2.2,0,0,1-.143-.067.863.863,0,0,0-.628-.37" transform="translate(-444.919 -529.68)" fill="#29c285"/>
                  <path id="Path_617" data-name="Path 617" d="M348.464,566.257a8.748,8.748,0,0,0,3.416,4.276,17.822,17.822,0,0,1,1.385,1.241,19.992,19.992,0,0,1,1.977,2.1.694.694,0,0,1,.2.324.144.144,0,0,1-.123.128,5.407,5.407,0,0,0-3.107,2.2c-.273.355-.52.727-.767,1.1-.213.322-.6.486-.858.765a1.691,1.691,0,0,1-.819.456,2.223,2.223,0,0,1-.123-.93,34.461,34.461,0,0,0-1.313-6.354c-.187-.621-.419-1.228-.545-1.869-.047-.24-.017-.479-.084-.721a6.021,6.021,0,0,1-.216-1.672,3.324,3.324,0,0,1,.979-1.038" transform="translate(-325.051 -529.699)" fill="#29c285"/>
                  <path id="Path_618" data-name="Path 618" d="M563.734,770.074l-.037.586c-.224-.21-.041-.395.037-.586" transform="translate(-527.204 -720.358)" fill="#e0e5e5"/>
                  <path id="Path_619" data-name="Path 619" d="M776.611,927.444l-.079.026,0,0c.023-.015.045-.03.068-.044l.015.022" transform="translate(-726.395 -867.547)" fill="#525252"/>
                  <path id="Path_620" data-name="Path 620" d="M170.749,748.56h0a.009.009,0,0,0,0,0Z" transform="translate(-159.722 -700.232)" fill="#faab7b"/>
                  <path id="Path_621" data-name="Path 621" d="M348.515,183.787c-.269-1.042-.469-2.142-1.549-2.732l-.12-.076a5.734,5.734,0,0,0-3.551-.263,5.848,5.848,0,0,1-3.167-.159c-.6-.183-1.148-.472-1.732-.681l-.148-.048a2.4,2.4,0,0,1-.283-.048,4.052,4.052,0,0,0-3.047.285c-.275.139-.555.268-.833.4a.922.922,0,0,1-.333.205,1.309,1.309,0,0,1-.387.254.278.278,0,0,1-.179.125,2,2,0,0,1-.6.391l-.065.057a4.064,4.064,0,0,1-1.552.833.323.323,0,0,1-.252.063,17.312,17.312,0,0,0-.406,6.636,10.1,10.1,0,0,1,.125,1.567,11.474,11.474,0,0,0-.052,1.206l-.105,0s-.419,1.98.709,5.757a11.766,11.766,0,0,0,.577,1.709h0a5.1,5.1,0,0,0,.375.81q.229.457.489.9a13.908,13.908,0,0,0,1.191,1.592c.012.013.023.026.035.041l.036.046.032.04c.011.014.023.028.035.041a.328.328,0,0,0,.184.11c0-.061.01-.122.016-.192.206.078.291.261.409.408a5.875,5.875,0,0,0,4.238,2.16,7.649,7.649,0,0,0,3.794-.5c.088-.038.17-.088.255-.133.087-.154.176-.309.377-.334l.061-.068h0l.024.026-.069.058-.067.144a4.316,4.316,0,0,0,1.616-1.372c.235-.114.232-.445.489-.54l-.11.463a9.769,9.769,0,0,0,1.477-1.877.1.1,0,0,1,.043.008,3.818,3.818,0,0,0,.284-.576,7.07,7.07,0,0,0-.962.861,7.038,7.038,0,0,1,.962-.861c.046-.072.1-.14.138-.216a16.57,16.57,0,0,0,1.752-7.31c-.056-.075.039-.207-.085-.247-.026-.008-.078.061-.118.095a17.514,17.514,0,0,1-1.354,3.022,11.482,11.482,0,0,1-2.227,2.756h0a11.483,11.483,0,0,0,2.222-2.752,17.544,17.544,0,0,0,1.355-3.022l.186-.9c.08-.385-.182-.722-.172-1.085.048-1.692.126-3.384.206-5.075a6.684,6.684,0,0,0-.17-2" transform="translate(-309.089 -168.012)" fill="#e9e9e9"/>
                  <path id="Path_622" data-name="Path 622" d="M525.38,559.954l.061-.067.024.026-.069.058Z" transform="translate(-491.461 -523.741)" fill="#272727"/>
                  <path id="Path_623" data-name="Path 623" d="M451.327,498.914l-.081.1a.111.111,0,0,1,.081-.1" transform="translate(-422.113 -466.704)" fill="#030202"/>
                  <path id="Path_624" data-name="Path 624" d="M492.718,502.714l-.062-.095.062.095" transform="translate(-460.85 -470.17)" fill="#030202"/>
                  <path id="Path_625" data-name="Path 625" d="M589.2,166.687a6.389,6.389,0,0,1,.712,2.582,16.294,16.294,0,0,1-.292,4.93c-.065.314-.107.632-.159.949a.4.4,0,0,0-.065.105c-.255,1.1-.654,2.146-1,3.213a2.7,2.7,0,0,0-.284,1.065l-.07-.131c.08-.385-.182-.722-.172-1.085.048-1.692.126-3.384.206-5.075a6.673,6.673,0,0,0-.17-2c-.269-1.042-.469-2.142-1.549-2.732.057-.155.266-.209.268-.4h0c.23-.056.335-.278.52-.395a2.225,2.225,0,0,0,.611-.506c.1,0,.245-.045.185-.144-.092-.153.02-.191.082-.257.155-.164.324-.315.476-.481.1-.11.155-.125.267.005s.222.325.435.36" transform="translate(-548.501 -155.502)" fill="#b2b2b2"/>
                  <path id="Path_626" data-name="Path 626" d="M307.055,226.887a10.158,10.158,0,0,0-.125-1.567,17.317,17.317,0,0,1,.406-6.635,3.526,3.526,0,0,1-1.841-.181.641.641,0,0,0-.3-.076,20.313,20.313,0,0,0,.127,3.207c.1.787.278,1.557.408,2.337q.545,2.223,1.093,4.445Z" transform="translate(-285.473 -204.323)" fill="#b2b2b2"/>
                  <path id="Path_627" data-name="Path 627" d="M295.822,302.256c.364,1.482.725,2.964,1.093,4.445a1.678,1.678,0,0,1,.06.727,1.136,1.136,0,0,1-.876-.529,7.2,7.2,0,0,1-1.249-2.411c-.073-.234-.147-.469-.2-.708-.224-.965.2-1.512,1.175-1.525" transform="translate(-275.57 -282.742)" fill="#d1d1d1"/>
                  <path id="Path_628" data-name="Path 628" d="M613.489,308.669a2.711,2.711,0,0,1,.284-1.065c.349-1.067.747-2.117,1-3.212a.4.4,0,0,1,.064-.105.84.84,0,0,1,.961.845,1.788,1.788,0,0,1,0,.544,7.891,7.891,0,0,1-1.484,3.268,1.189,1.189,0,0,1-.823.5v-.778" transform="translate(-573.879 -284.64)" fill="#d1d1d1"/>
                  <path id="Path_629" data-name="Path 629" d="M609.823,370.3v.778l-.052.148c-.055-.075.039-.206-.085-.246-.027-.009-.078.061-.118.094l.186-.9.07.131" transform="translate(-570.213 -346.271)" fill="#e9e9e9"/>
                  <path id="Path_633" data-name="Path 633" d="M384.659,538.985h0a.009.009,0,0,0,0,0Z" transform="translate(-359.821 -504.188)" fill="#0f0808"/>
                  <g id="Group_99" data-name="Group 99" transform="translate(24.715 44.623)" opacity="0.19">
                    <g id="Group_98" data-name="Group 98">
                      <g id="Group_97" data-name="Group 97" clip-path="url(#clip-path-4)">
                        <path id="Path_635" data-name="Path 635" d="M382.819,695.695l4.264-2.026-.316,1.013.954-1.013.648-2.493a5.822,5.822,0,0,0-3.855,2.695c-1.7,2.488-1.7,1.824-1.7,1.824" transform="translate(-382.819 -691.176)" fill="#030202"/>
                      </g>
                    </g>
                  </g>
                  <g id="Group_102" data-name="Group 102" transform="translate(31.186 44.623)" opacity="0.19">
                    <g id="Group_101" data-name="Group 101">
                      <g id="Group_100" data-name="Group 100" clip-path="url(#clip-path-4)">
                        <path id="Path_636" data-name="Path 636" d="M488.6,695.695l-4.264-2.026.316,1.013-.954-1.013-.648-2.493a5.822,5.822,0,0,1,3.854,2.695c1.7,2.488,1.7,1.824,1.7,1.824" transform="translate(-483.048 -691.176)" fill="#030202"/>
                      </g>
                    </g>
                  </g>
                  <path id="Path_637" data-name="Path 637" d="M468.33,731.078a.508.508,0,1,1-.508-.508.508.508,0,0,1,.508.508" transform="translate(-437.144 -683.404)" fill="#030202"/>
                  <path id="Path_638" data-name="Path 638" d="M468.33,836.649a.508.508,0,1,1-.508-.508.508.508,0,0,1,.508.508" transform="translate(-437.144 -782.159)" fill="#030202"/>
                  <path id="Path_639" data-name="Path 639" d="M468.33,939.17a.508.508,0,1,1-.508-.508.508.508,0,0,1,.508.508" transform="translate(-437.144 -878.062)" fill="#030202"/>
                  <path id="Path_640" data-name="Path 640" d="M322.335,90.84a4.523,4.523,0,0,0-1.17-1.393,2.382,2.382,0,0,1-.859-1.154,4.65,4.65,0,0,0-2.557-2.355,2.183,2.183,0,0,0-.5-.263,4.717,4.717,0,0,0-.539-.164,3.922,3.922,0,0,0-1.152-.272c-7.41-.69-14.441,4.449-14.441,4.449l.481,4.28-.1.406a3.117,3.117,0,0,0,3.78-.424c1.642-1.718,3.408-3.247,5.634-2.072,1.965,1.037,3.158,1.58,4.888,1.391l.05-.006c.086-.013.172-.028.259-.045h0l.244-.031.165-.032c2.147-.441,2.7-.443,3.218.24l.134.04.212-.246a.383.383,0,0,1,.177-.079h0a1.035,1.035,0,0,1,.491-.529,1.649,1.649,0,0,1,.542-.52,2.387,2.387,0,0,1,.619-.686c.187-.185.27-.323.021-.506a.081.081,0,0,1-.014-.126c.138.009.189.15.29.214.189.121.078-.079.122-.114m-12.542-1.571-.006-.006.006.005.022.019-.022-.018m3-1.662h0l0,0-.006,0m2.448-.35h0a.1.1,0,0,0,.008.019.085.085,0,0,1-.008-.017" transform="translate(-281.679 -79.675)" fill="#b2b2b2"/>
                </g>
              </g>
            </g>
          </g>
        </g>
      </g>
    </g>
  </g>
</svg>
