<svg xmlns="http://www.w3.org/2000/svg" width="18.018" height="18.202" viewBox="0 0 18.018 18.202">
  <g id="Group_659" data-name="Group 659" transform="translate(-336.111 -290.908)">
    <g id="Group_477" data-name="Group 477" transform="matrix(-0.788, 0.616, -0.616, -0.788, 353.406, 301.378)">
      <g id="Group_658" data-name="Group 658">
        <g id="Group_264" data-name="Group 264" transform="translate(0)">
          <path id="Path_730" data-name="Path 730" d="M9.374.09a2.785,2.785,0,0,1,1.971,2.3c.108.547.007.716-.478.977A16.016,16.016,0,0,1,8.4,4.42a.476.476,0,0,1-.538-.114c-.152-.162-.284-.344-.419-.521-.071-.093-.124-.2-.2-.292a.379.379,0,0,0-.53-.134,3.382,3.382,0,0,0-.468.28A7.971,7.971,0,0,0,3.22,7.31a3.6,3.6,0,0,0-.146.526.251.251,0,0,0,.14.3c.151.079.31.143.462.22a5.4,5.4,0,0,1,.555.3.488.488,0,0,1,.2.545c-.11.542-.2,1.088-.323,1.628a8.12,8.12,0,0,1-.275,1,.766.766,0,0,1-.708.554A2.822,2.822,0,0,1,.011,9.6,4.7,4.7,0,0,1,.387,7.517,13.03,13.03,0,0,1,2.448,4.11,14.666,14.666,0,0,1,6.009.771,4.928,4.928,0,0,1,9.374.09Z" fill="none" stroke="#707070" stroke-width="1"/>
        </g>
      </g>
    </g>
  </g>
</svg>
