<svg xmlns="http://www.w3.org/2000/svg" width="26.703" height="12.496" viewBox="0 0 26.703 12.496">
  <g id="Group_651" data-name="Group 651" transform="translate(-84.479 -561.004)">
    <g id="Group_37" data-name="Group 37" transform="translate(85 561.504)">
      <g id="Group_496" data-name="Group 496" transform="translate(0 0)">
        <path id="Path_541" data-name="Path 541" d="M2.36,4.059c-.578-.169-1.131-.333-1.683-.5A.8.8,0,0,1,.023,2.97.81.81,0,0,1,1.034,2c.5.149.99.34,1.485.513.082.028.164.054.268.09V1.289A4.608,4.608,0,0,1,2.821.617.68.68,0,0,1,3.582.031l.02,0a.685.685,0,0,1,.766.592V.632a6.273,6.273,0,0,1,.031.754c.006.385,0,.77.007,1.154,0,.011.011.024.026.054.409-.146.818-.295,1.227-.44.15-.053.3-.106.453-.148a.8.8,0,0,1,1.016.5.792.792,0,0,1,.041.313c0,.366-.2.6-.639.736-.475.145-.954.281-1.431.421-.087.025-.173.056-.282.091L5.6,5.091c.137.179.28.354.409.538a.75.75,0,0,1-.067,1.058.831.831,0,0,1-.08.061A.869.869,0,0,1,4.648,6.57l-.011-.016c-.322-.528-.683-1.028-1.04-1.562-.043.056-.082.1-.111.144-.319.473-.654.937-.949,1.424a.871.871,0,0,1-1.215.193.745.745,0,0,1-.164-1.116c.357-.487.736-.96,1.1-1.438.028-.036.053-.074.1-.139Z" transform="translate(0 -0.005)" fill="#0064c7" stroke="#0064c7" stroke-width="1"/>
        <path id="Path_542" data-name="Path 542" d="M17.34,2.6c.477-.169.925-.327,1.374-.491.119-.042.245-.069.359-.116A.818.818,0,0,1,20.1,3a.8.8,0,0,1-.627.549c-.463.142-.929.275-1.391.409-.095.028-.189.058-.308.095.051.07.091.127.133.182.344.447.69.893,1.029,1.343a.784.784,0,0,1,.082.958.909.909,0,0,1-1.029.321.892.892,0,0,1-.375-.294c-.327-.459-.632-.933-.947-1.4-.036-.054-.076-.106-.128-.178-.169.25-.327.483-.485.718-.189.281-.4.552-.561.846a.862.862,0,0,1-1.2.212l-.026-.019a.745.745,0,0,1-.211-1.032.7.7,0,0,1,.067-.087c.347-.47.709-.929,1.064-1.391.039-.052.075-.106.124-.175L13.767,3.6c-.095-.029-.191-.056-.284-.092a.748.748,0,0,1-.506-.929.678.678,0,0,1,.029-.081.8.8,0,0,1,.982-.5c.512.164,1.015.35,1.522.526.067.024.136.043.227.071,0-.082.01-.146.01-.209V.889a.784.784,0,0,1,1.1-.818.611.611,0,0,1,.455.48,2.078,2.078,0,0,1,.039.415c0,.536,0,1.072,0,1.636Z" transform="translate(-2.355 0)" fill="#0064c7" stroke="#0064c7" stroke-width="1"/>
        <line id="Line_158" data-name="Line 158" x2="7" transform="translate(0 10.996)" fill="none" stroke="#0064c7" stroke-width="2"/>
        <line id="Line_159" data-name="Line 159" x2="7" transform="translate(9.591 10.996)" fill="none" stroke="#0064c7" stroke-width="2"/>
        <line id="Line_160" data-name="Line 160" x2="7" transform="translate(19.182 10.996)" fill="none" stroke="#0064c7" stroke-width="2"/>
      </g>
    </g>
  </g>
</svg>
