<svg xmlns="http://www.w3.org/2000/svg" xmlns:xlink="http://www.w3.org/1999/xlink" width="84" height="84" viewBox="0 0 84 84">
  <defs>
    <filter id="Ellipse_45" x="0" y="0" width="84" height="84" filterUnits="userSpaceOnUse">
      <feOffset dy="5" input="SourceAlpha"/>
      <feGaussianBlur stdDeviation="2.5" result="blur"/>
      <feFlood flood-opacity="0.102"/>
      <feComposite operator="in" in2="blur"/>
      <feComposite in="SourceGraphic"/>
    </filter>
  </defs>
  <g id="Group_651" data-name="Group 651" transform="translate(3740.5 -2102.981)">
    <g transform="matrix(1, 0, 0, 1, -3740.5, 2102.98)" filter="url(#Ellipse_45)">
      <g id="Ellipse_45-2" data-name="Ellipse 45" transform="translate(7.5 2.5)" fill="#fff" stroke="#d0f8e8" stroke-width="1">
        <circle cx="34.5" cy="34.5" r="34.5" stroke="none"/>
        <circle cx="34.5" cy="34.5" r="34" fill="none"/>
      </g>
    </g>
    <g id="Group_647" data-name="Group 647" transform="translate(-3711.858 2126.114)">
      <g id="Group_117" data-name="Group 117">
        <path id="Path_656" data-name="Path 656" d="M18.733,6.584A6.084,6.084,0,1,1,12.65.5,6.084,6.084,0,0,1,18.733,6.584Z" transform="translate(1.055 -0.5)" fill="none" stroke="#c8c8c8" stroke-miterlimit="10" stroke-width="2"/>
        <path id="Path_657" data-name="Path 657" d="M20.4,23.592H.5V21.133a8.113,8.113,0,0,1,8.113-8.111h5.592" transform="translate(-0.5 2.711)" fill="none" stroke="#c8c8c8" stroke-miterlimit="10" stroke-width="2"/>
        <circle id="Ellipse_18" data-name="Ellipse 18" cx="5.531" cy="5.531" r="5.531" transform="translate(15.523 15.354)" fill="none" stroke="#c8c8c8" stroke-miterlimit="10" stroke-width="2"/>
        <line id="Line_71" data-name="Line 71" y1="3.769" transform="translate(21.053 20.045)" fill="none" stroke="#c8c8c8" stroke-miterlimit="10" stroke-width="2"/>
        <line id="Line_72" data-name="Line 72" y1="1.065" transform="translate(21.053 17.955)" fill="none" stroke="#c8c8c8" stroke-miterlimit="10" stroke-width="2"/>
      </g>
    </g>
  </g>
</svg>
