<svg id="Group_656" data-name="Group 656" xmlns="http://www.w3.org/2000/svg" xmlns:xlink="http://www.w3.org/1999/xlink" width="20.736" height="18" viewBox="0 0 20.736 18">
  <defs>
    <clipPath id="clip-path">
      <rect id="Rectangle_244" data-name="Rectangle 244" width="20.736" height="18" fill="#afc2d4"/>
    </clipPath>
  </defs>
  <g id="Group_325" data-name="Group 325" clip-path="url(#clip-path)">
    <path id="Path_806" data-name="Path 806" d="M20.259,8.662c-.858,1-3.016,2.778-7.4,2.712v1.056a1.228,1.228,0,0,1-1.228,1.228H9.179a1.228,1.228,0,0,1-1.228-1.228V11.376C1.927,11.336,0,8.407,0,8.407v7.362a2.181,2.181,0,0,0,2.178,2.184h9.086c.287,0,4.136.027,6.841.047a2.613,2.613,0,0,0,2.631-2.625c-.013-2.643-.03-4.022-.027-4.3.007-.659.01-1.142.01-1.291V8.968s-.139-.68-.466-.3m-1.711-5.8H13.937V.97A.977.977,0,0,0,12.96,0H7.753a.971.971,0,0,0-.97.97V2.864H2.178A2.171,2.171,0,0,0,0,5.029s0,.009,0,.013V6.585s2.27,3.4,7.952,3.3V9.2A1.225,1.225,0,0,1,9.175,7.978h2.452A1.225,1.225,0,0,1,12.854,9.2v.533c5.727.4,7.866-3.6,7.866-3.6V5.042a2.171,2.171,0,0,0-2.165-2.178h-.013m-5.583,0H7.753V1.346a.3.3,0,0,1,.3-.3h4.611a.3.3,0,0,1,.3.293v0Z" transform="translate(0)" fill="#afc2d4"/>
    <path id="Path_807" data-name="Path 807" d="M209.859,207.816H208.7a.42.42,0,0,1-.42-.42v-2.356a.419.419,0,0,1,.419-.419h1.162a.419.419,0,0,1,.42.418h0V207.4a.42.42,0,0,1-.42.42" transform="translate(-198.886 -195.393)" fill="#afc2d4"/>
  </g>
</svg>
