<svg id="Group_655" data-name="Group 655" xmlns="http://www.w3.org/2000/svg" xmlns:xlink="http://www.w3.org/1999/xlink" width="21.736" height="16.592" viewBox="0 0 21.736 16.592">
  <defs>
    <clipPath id="clip-path">
      <rect id="Rectangle_515" data-name="Rectangle 515" width="21.736" height="16.592" fill="#afc2d4"/>
    </clipPath>
  </defs>
  <g id="Group_546" data-name="Group 546" clip-path="url(#clip-path)">
    <path id="Path_952" data-name="Path 952" d="M147.037,42.654a.824.824,0,0,1-1.129.559,20.251,20.251,0,0,0-5.73-.467c-.752.054-1.5.187-2.247.283.095-.083.2-.185.317-.277a7,7,0,0,1,3.143-1.4,20.71,20.71,0,0,1,2.293-.254,2.035,2.035,0,0,0,1.808-1.132,2.179,2.179,0,0,0,.2-1.029q0-4.636,0-9.273v-.269c.754-.1,1.081-.034,1.344.567Z" transform="translate(-125.3 -26.669)" fill="#afc2d4"/>
    <path id="Path_953" data-name="Path 953" d="M35.541,15.759c-.057-.045-.1-.071-.129-.1A8.356,8.356,0,0,0,30.691,13.4c-.661-.1-1.334-.135-2-.179a.811.811,0,0,1-.855-.892q0-5.729,0-11.458A.8.8,0,0,1,28.755,0a10.707,10.707,0,0,1,3.208.526,6.307,6.307,0,0,1,3.389,2.548,1.164,1.164,0,0,1,.19.59q.016,5.984.008,11.967c0,.033,0,.065-.01.126" transform="translate(-25.283 -0.001)" fill="#afc2d4"/>
    <path id="Path_954" data-name="Path 954" d="M125.122,15.784v-.3c0-3.812.011-7.625-.012-11.437a2.119,2.119,0,0,1,.53-1.423A6.792,6.792,0,0,1,129.763.258a19.492,19.492,0,0,1,2.23-.243.762.762,0,0,1,.848.818q0,5.782,0,11.564a.789.789,0,0,1-.865.833,12.314,12.314,0,0,0-3.1.418,8.06,8.06,0,0,0-3.621,2.026c-.029.029-.062.053-.131.111" transform="translate(-113.654 -0.01)" fill="#afc2d4"/>
    <path id="Path_955" data-name="Path 955" d="M1.345,29.384v.292q0,4.648,0,9.3a2.013,2.013,0,0,0,2.046,2.143,11.3,11.3,0,0,1,2.624.333,7.178,7.178,0,0,1,2.95,1.473c.043.037.085.075.126.114a.4.4,0,0,1,.037.065c-.172-.036-.323-.069-.474-.1s-.306-.056-.459-.081a14.875,14.875,0,0,0-4-.123c-1.059.114-2.111.3-3.163.469A.8.8,0,0,1,0,42.421q0-6.08,0-12.161a.787.787,0,0,1,.879-.876h.465" transform="translate(0 -26.693)" fill="#afc2d4"/>
  </g>
</svg>
