<svg xmlns="http://www.w3.org/2000/svg" width="11.813" height="15.002" viewBox="0 0 11.813 15.002">
  <g id="Group_658" data-name="Group 658" transform="translate(-342.094 -383.5)">
    <g id="Group_542" data-name="Group 542" transform="translate(342.594 384)">
      <path id="Subtraction_1" data-name="Subtraction 1" d="M5.456,14h-.1a1.946,1.946,0,0,1-1.445-.643c-1.531-1.7-4.073-5-3.9-8.02A5.438,5.438,0,0,1,5.347,0h.118A5.438,5.438,0,0,1,10.8,5.339c.17,3.021-2.372,6.321-3.9,8.02A1.948,1.948,0,0,1,5.456,14ZM5.381,1.957A3.423,3.423,0,1,0,8.8,5.379,3.427,3.427,0,0,0,5.381,1.957Z" transform="translate(0)" fill="none" stroke="#707070" stroke-width="1"/>
    </g>
  </g>
</svg>
