<svg xmlns="http://www.w3.org/2000/svg" xmlns:xlink="http://www.w3.org/1999/xlink" width="74" height="74" viewBox="0 0 74 74">
  <defs>
    <filter id="Ellipse_44" x="0" y="0" width="74" height="74" filterUnits="userSpaceOnUse">
      <feOffset dy="5" input="SourceAlpha"/>
      <feGaussianBlur stdDeviation="2.5" result="blur"/>
      <feFlood flood-opacity="0.102"/>
      <feComposite operator="in" in2="blur"/>
      <feComposite in="SourceGraphic"/>
    </filter>
  </defs>
  <g id="Group_654" data-name="Group 654" transform="translate(3888.5 -2102.5)">
    <g id="Group_645" data-name="Group 645" transform="translate(-3958 1610)">
      <g transform="matrix(1, 0, 0, 1, 69.5, 492.5)" filter="url(#Ellipse_44)">
        <g id="Ellipse_44-2" data-name="Ellipse 44" transform="translate(7.5 2.5)" fill="#fff" stroke="#d0f8e8" stroke-width="1">
          <circle cx="29.5" cy="29.5" r="29.5" stroke="none"/>
          <circle cx="29.5" cy="29.5" r="29" fill="none"/>
        </g>
      </g>
      <g id="Group_122" data-name="Group 122" transform="matrix(0.788, -0.616, 0.616, 0.788, 86.321, 519.742)">
        <g id="Group_123" data-name="Group 123" transform="translate(0.726 0.727)">
          <path id="Path_664" data-name="Path 664" d="M6.707,21.533l1.773-.188a2.127,2.127,0,0,1,2.325,1.775l.823,5.053A2.129,2.129,0,0,1,9.9,30.609l-1.7.306A4.693,4.693,0,0,1,3,28.074,28.416,28.416,0,0,1,.5,16.406,36.156,36.156,0,0,1,3,3.417,4.693,4.693,0,0,1,8.2.576L9.9.882A2.13,2.13,0,0,1,11.628,3.32l-.823,5.051A2.127,2.127,0,0,1,8.48,10.146L6.707,9.958" transform="translate(-0.5 -0.5)" fill="none" stroke="#c8c8c8" stroke-miterlimit="10" stroke-width="2"/>
          <path id="Path_665" data-name="Path 665" d="M13.511,8.441s5.226,4.77,0,10.192" transform="translate(2.468 1.311)" fill="none" stroke="#c8c8c8" stroke-miterlimit="10" stroke-width="2"/>
          <path id="Path_666" data-name="Path 666" d="M17.3,4.584s9.708,8.8-.263,19.726" transform="translate(3.272 0.431)" fill="none" stroke="#c8c8c8" stroke-miterlimit="10" stroke-width="2"/>
          <path id="Path_667" data-name="Path 667" d="M4.475,9.766a9.9,9.9,0,0,0,.07,7.128" transform="translate(0.26 1.614)" fill="none" stroke="#c8c8c8" stroke-miterlimit="10" stroke-width="2"/>
        </g>
      </g>
    </g>
  </g>
</svg>
