<svg xmlns="http://www.w3.org/2000/svg" width="28.758" height="22.01" viewBox="0 0 28.758 22.01">
  <g id="Group_654" data-name="Group 654" transform="translate(-76 -429)">
    <g id="Group_545" data-name="Group 545" transform="translate(66.175 429)">
      <g id="Group_548" data-name="Group 548">
        <path id="Path_949" data-name="Path 949" d="M63.65,13.212l-.923-2.22c-.591,0-1.24-.015-1.887.005-.453.015-.6-.19-.569-.661a10.983,10.983,0,0,0,.006-1.851c-.05-.493.1-.692.538-.681.649.017,1.3,0,1.908,0l.95-2.265c-.41-.375-.882-.819-1.366-1.248-.381-.337-.3-.618.229-1A4.343,4.343,0,0,0,63.57,2.273c.4-.58.676-.6,1.007-.23.422.467.862.917,1.263,1.341l2.234-.926c0-.58.013-1.227,0-1.874-.013-.461.174-.636.733-.569a6.357,6.357,0,0,0,1.689.008c.623-.093.786.107.768.568a11.387,11.387,0,0,0,.013,1.523.729.729,0,0,0,.359.493c.565.271,1.158.484,1.914.79.343-.381.771-.839,1.179-1.315.328-.383.61-.385.98.068A7.927,7.927,0,0,0,76.944,3.4c.392.306.45.551.141.843-.472.446-.93.907-1.376,1.345.271.686.5,1.329.787,1.951a.607.607,0,0,0,.451.255c.527.032,1.057.026,1.585.008.464-.016.582.216.514.755a6.919,6.919,0,0,0,0,1.649c.064.559-.034.816-.54.8-.609-.02-1.349-.206-1.791.069-.421.261-.53,1.024-.78,1.564-.075.164-.163.321-.3.584.466.433.936.88,1.42,1.313.339.3.29.563-.156.9a5.8,5.8,0,0,0-1.2,1.181c-.352.48-.625.484-.922.157-.436-.481-.879-.954-1.263-1.37l-2.264.948c0,.576-.018,1.2.006,1.832.018.473-.149.665-.707.608a8.073,8.073,0,0,0-1.747,0c-.583.067-.756-.137-.739-.612.022-.608.005-1.218.005-1.83L65.831,15.4c-.381.411-.818.864-1.234,1.335-.308.349-.568.361-.91-.046a13.144,13.144,0,0,0-1.342-1.338c-.362-.323-.346-.574-.012-.877.466-.422.909-.869,1.318-1.262m9.527-3.833a3.51,3.51,0,1,0-7.021.043,3.51,3.51,0,1,0,7.021-.043" transform="translate(-50.442 0)" fill="#afc2d4"/>
        <path id="Path_951" data-name="Path 951" d="M173.719,76.786c0-.478-.009-.9-.014-1.37-.313-.126-.652-.273-1-.4-.243-.089-.277-.229-.16-.471a6.261,6.261,0,0,0,.4-.977c.079-.271.2-.344.43-.245.339.148.685.279,1.007.41l.985-.994c-.136-.286-.291-.621-.456-.951-.129-.259-.024-.39.334-.479a2.477,2.477,0,0,0,.765-.322c.336-.221.485-.171.581.093.124.337.26.669.381.978l1.378-.012c.124-.306.269-.646.4-.991.091-.246.228-.3.509-.144a3.624,3.624,0,0,0,.891.365c.349.084.392.224.285.464a6.473,6.473,0,0,0-.319.808.415.415,0,0,0,.084.337c.241.264.508.5.843.826.263-.128.587-.279.9-.443.255-.132.4-.073.5.245a4.515,4.515,0,0,0,.388.927c.142.245.12.388-.105.476-.345.135-.685.281-1.014.417,0,.42-.017.81,0,1.2a.346.346,0,0,0,.184.231c.272.129.553.239.836.343.248.091.261.238.111.509a3.946,3.946,0,0,0-.351.872c-.086.309-.192.424-.456.307-.318-.141-.669-.4-.962-.346s-.5.428-.746.66c-.075.07-.155.135-.282.245.154.328.307.665.47,1,.115.233.033.359-.274.442a3.307,3.307,0,0,0-.885.368c-.288.179-.434.123-.521-.114-.128-.347-.261-.692-.375-.994l-1.4.018c-.123.3-.267.633-.388.969-.091.254-.221.32-.5.17a4.61,4.61,0,0,0-.922-.375c-.323-.089-.37-.234-.26-.481.141-.317.263-.642.394-.966l-.984-.979c-.289.135-.617.282-.937.442-.237.119-.377.07-.471-.219a7.491,7.491,0,0,0-.424-.993c-.123-.248-.061-.377.181-.466.336-.124.666-.265.966-.386m5.853.008a2,2,0,1,0-2.6,1.134,1.975,1.975,0,0,0,2.6-1.134" transform="translate(-144.363 -59.278)" fill="#afc2d4"/>
      </g>
    </g>
  </g>
</svg>
