<svg xmlns="http://www.w3.org/2000/svg" xmlns:xlink="http://www.w3.org/1999/xlink" width="74" height="74" viewBox="0 0 74 74">
  <defs>
    <filter id="Ellipse_16" x="0" y="0" width="74" height="74" filterUnits="userSpaceOnUse">
      <feOffset dy="5" input="SourceAlpha"/>
      <feGaussianBlur stdDeviation="2.5" result="blur"/>
      <feFlood flood-opacity="0.102"/>
      <feComposite operator="in" in2="blur"/>
      <feComposite in="SourceGraphic"/>
    </filter>
  </defs>
  <g id="Group_652" data-name="Group 652" transform="translate(3814.5 -2102.5)">
    <g id="Group_646" data-name="Group 646" transform="translate(-3996 1610)">
      <g transform="matrix(1, 0, 0, 1, 181.5, 492.5)" filter="url(#Ellipse_16)">
        <g id="Ellipse_16-2" data-name="Ellipse 16" transform="translate(7.5 2.5)" fill="#fff" stroke="#d0f8e8" stroke-width="1">
          <circle cx="29.5" cy="29.5" r="29.5" stroke="none"/>
          <circle cx="29.5" cy="29.5" r="29" fill="none"/>
        </g>
      </g>
      <g id="Group_119" data-name="Group 119" transform="translate(204.094 507.369)">
        <g id="Group_120" data-name="Group 120" transform="translate(0.584 -1.707)">
          <path id="Path_659" data-name="Path 659" d="M25.447,22.325,22.7,23.735a1.978,1.978,0,0,0-.89,2.6l.252.542a1.979,1.979,0,0,0,2.64.953l3.1-1.468a2.343,2.343,0,0,0,1.116-3.117l-3.553-7.536a6.422,6.422,0,0,0-5.81-3.684H10.088a6.425,6.425,0,0,0-5.811,3.684L.724,23.241a2.343,2.343,0,0,0,1.117,3.117l3.1,1.468a1.981,1.981,0,0,0,2.641-.953l.252-.542a1.978,1.978,0,0,0-.891-2.6L4.2,22.325" transform="translate(-0.5 3.439)" fill="none" stroke="#c8c8c8" stroke-miterlimit="10" stroke-width="2"/>
          <path id="Path_660" data-name="Path 660" d="M5.714,21.174V18.537a1.338,1.338,0,0,1,.9-1.266L14.05,14.72,21.6,17.273A1.339,1.339,0,0,1,22.5,18.54v2.5" transform="translate(0.266 3.836)" fill="none" stroke="#c8c8c8" stroke-miterlimit="10" stroke-width="2"/>
          <path id="Path_661" data-name="Path 661" d="M21.181,24.968l-.206.688c-.768,1.835-2.649,4.5-7.225,6.342-4.576-1.846-6.457-4.507-7.214-6.342" transform="translate(0.387 5.34)" fill="none" stroke="#c8c8c8" stroke-miterlimit="10" stroke-width="2"/>
          <path id="Path_662" data-name="Path 662" d="M18.5,6.465A5.966,5.966,0,1,1,12.532.5,5.966,5.966,0,0,1,18.5,6.465Z" transform="translate(1.79 -0.5)" fill="none" stroke="#c8c8c8" stroke-miterlimit="10" stroke-width="2"/>
        </g>
        <path id="Path_663" data-name="Path 663" d="M11.513,26.054l2.8,2.57c.072.1,4.675-5.1,4.675-5.1" transform="translate(-0.212 -0.49)" fill="none" stroke="#c8c8c8" stroke-width="2"/>
      </g>
    </g>
  </g>
</svg>
