<svg xmlns="http://www.w3.org/2000/svg" width="157.249" height="135.136" viewBox="0 0 157.249 135.136">
  <g id="Group_653" data-name="Group 653" transform="translate(-329.577 -866.613)">
    <g id="Group_494" data-name="Group 494" transform="matrix(-0.454, -0.891, 0.891, -0.454, 353.566, 996.412)">
      <path id="Path_53" data-name="Path 53" d="M182.789,334.7a3.374,3.374,0,1,1-3.36-3.392,3.392,3.392,0,0,1,3.36,3.392" transform="translate(-173.223 -276.366)" fill="#fff"/>
      <path id="Path_57" data-name="Path 57" d="M272.437,379.814a1.287,1.287,0,0,1,1.372-1.283,1.328,1.328,0,1,1-.083,2.654,1.3,1.3,0,0,1-1.289-1.371" transform="translate(-228.171 -299.228)" fill="#fff"/>
      <path id="Path_68" data-name="Path 68" d="M274.506,310.2q.774.78,1.5,1.607" transform="translate(-229.351 -260.276)" fill="none" stroke="#fff" stroke-linecap="round" stroke-miterlimit="10" stroke-width="2"/>
      <path id="Path_69" data-name="Path 69" d="M246.843,291.843q.922.37,1.818.789a35.037,35.037,0,0,1,3.7,2.012q1.1.684,2.137,1.445" transform="translate(-213.582 -249.814)" fill="none" stroke="#fff" stroke-linecap="round" stroke-miterlimit="10" stroke-width="2"/>
      <path id="Path_77" data-name="Path 77" d="M176.181,270.523a43.451,43.451,0,0,1,58.926,26.843" transform="translate(-173.303 -235.576)" fill="none" stroke="#fff" stroke-linecap="round" stroke-miterlimit="10" stroke-width="0.75"/>
      <path id="Path_78" data-name="Path 78" d="M152.446,463.766a49.384,49.384,0,0,0,16.893,7.24" transform="translate(-159.774 -347.814)" fill="none" stroke="#fff" stroke-linecap="round" stroke-miterlimit="10" stroke-width="0.75"/>
      <path id="Path_81" data-name="Path 81" d="M127.575,270.427a49.745,49.745,0,0,1,51.167-16.468" transform="translate(-145.596 -227.271)" fill="none" stroke="#fff" stroke-linecap="round" stroke-miterlimit="10" stroke-width="0.75"/>
      <path id="Path_82" data-name="Path 82" d="M301.124,372.006a49.708,49.708,0,0,0,8.065-56.415" transform="translate(-244.523 -263.351)" fill="none" stroke="#fff" stroke-linecap="round" stroke-miterlimit="10" stroke-width="0.75"/>
      <path id="Path_83" data-name="Path 83" d="M240.785,475.675a49.315,49.315,0,0,0,11.381-3.9" transform="translate(-210.129 -352.38)" fill="none" stroke="#fff" stroke-linecap="round" stroke-miterlimit="10" stroke-width="0.75"/>
      <path id="Path_84" data-name="Path 84" d="M179.343,516.238a64.976,64.976,0,0,1-9.348-2.253" transform="translate(-169.777 -376.44)" fill="none" stroke="#fff" stroke-linecap="round" stroke-miterlimit="10" stroke-width="0.75"/>
      <path id="Path_85" data-name="Path 85" d="M107.195,475.195a66.1,66.1,0,0,0,20.66,14.284" transform="translate(-133.979 -354.329)" fill="none" stroke="#fff" stroke-linecap="round" stroke-miterlimit="10" stroke-width="0.75"/>
      <path id="Path_89" data-name="Path 89" d="M216.8,214.375a65.877,65.877,0,0,1,48.342,21.082" transform="translate(-196.46 -205.656)" fill="none" stroke="#fff" stroke-linecap="round" stroke-miterlimit="10" stroke-width="0.75"/>
      <path id="Path_90" data-name="Path 90" d="M338.075,273.8a65.684,65.684,0,0,1,13.832,40.426" transform="translate(-265.586 -239.532)" fill="none" stroke="#fff" stroke-linecap="round" stroke-miterlimit="10" stroke-width="0.75"/>
      <path id="Path_91" data-name="Path 91" d="M349.32,440.665q-.922,1.7-1.935,3.345" transform="translate(-270.893 -334.646)" fill="none" stroke="#fff" stroke-linecap="round" stroke-miterlimit="10" stroke-width="0.75"/>
      <path id="Path_92" data-name="Path 92" d="M240.785,484.521a65.6,65.6,0,0,0,27.888-11.373A66.365,66.365,0,0,0,283.8,458.215" transform="translate(-210.129 -344.65)" fill="none" stroke="#fff" stroke-linecap="round" stroke-miterlimit="10" stroke-width="0.75"/>
      <path id="Path_103" data-name="Path 103" d="M161.692,506.211a3.4,3.4,0,1,1-3.4-3.4A3.4,3.4,0,0,1,161.692,506.211Z" transform="translate(-161.167 -370.071)" fill="none" stroke="#fff" stroke-linecap="round" stroke-miterlimit="10" stroke-width="0.75"/>
      <path id="Path_105" data-name="Path 105" d="M333.179,264.285a2.949,2.949,0,1,1-2.949-2.949A2.949,2.949,0,0,1,333.179,264.285Z" transform="translate(-259.434 -232.424)" fill="none" stroke="#fff" stroke-linecap="round" stroke-miterlimit="10" stroke-width="0.75"/>
      <path id="Path_109" data-name="Path 109" d="M342.424,449.364a2.568,2.568,0,1,1-2.568-2.568A2.568,2.568,0,0,1,342.424,449.364Z" transform="translate(-265.138 -338.141)" fill="none" stroke="#fff" stroke-linecap="round" stroke-miterlimit="10" stroke-width="0.75"/>
      <path id="Path_110" data-name="Path 110" d="M284.13,440.625a1.336,1.336,0,1,1-1.336-1.336,1.336,1.336,0,0,1,1.336,1.336" transform="translate(-233.313 -333.862)" fill="#fff"/>
      <path id="Path_113" data-name="Path 113" d="M366.7,379.847a1.336,1.336,0,1,1-1.336-1.336,1.336,1.336,0,0,1,1.336,1.336" transform="translate(-280.382 -299.217)" fill="#fff"/>
      <g id="Path_560" data-name="Path 560" transform="translate(-3.178 52.187)" fill="none">
        <path d="M24.138,0A24.138,24.138,0,1,1,0,24.138,24.138,24.138,0,0,1,24.138,0Z" stroke="none"/>
        <path d="M 24.13828659057617 0.4999961853027344 C 20.9469165802002 0.4999961853027344 17.85127639770508 1.124916076660156 14.93734741210938 2.357406616210938 C 12.12257766723633 3.547958374023438 9.594554901123047 5.252426147460938 7.423484802246094 7.423484802246094 C 5.252426147460938 9.594554901123047 3.547958374023438 12.12257766723633 2.357406616210938 14.93734741210938 C 1.124916076660156 17.85127639770508 0.4999961853027344 20.9469165802002 0.4999961853027344 24.13828659057617 C 0.4999961853027344 27.32965660095215 1.124916076660156 30.42529678344727 2.357406616210938 33.33922576904297 C 3.547958374023438 36.15399551391602 5.252426147460938 38.68201446533203 7.423484802246094 40.85308837890625 C 9.594554901123047 43.02414703369141 12.12257766723633 44.72861480712891 14.93734741210938 45.91916656494141 C 17.85127639770508 47.15165710449219 20.9469165802002 47.77657699584961 24.13828659057617 47.77657699584961 C 27.32965660095215 47.77657699584961 30.42529678344727 47.15165710449219 33.33922576904297 45.91916656494141 C 36.15399551391602 44.72861480712891 38.68201446533203 43.02414703369141 40.85308837890625 40.85308837890625 C 43.02414703369141 38.68201446533203 44.72861480712891 36.15399551391602 45.91916656494141 33.33922576904297 C 47.15165710449219 30.42529678344727 47.77657699584961 27.32965660095215 47.77657699584961 24.13828659057617 C 47.77657699584961 20.9469165802002 47.15165710449219 17.85127639770508 45.91916656494141 14.93734741210938 C 44.72861480712891 12.12257766723633 43.02414703369141 9.594554901123047 40.85308837890625 7.423484802246094 C 38.68201446533203 5.252426147460938 36.15399551391602 3.547958374023438 33.33922576904297 2.357406616210938 C 30.42529678344727 1.124916076660156 27.32965660095215 0.4999961853027344 24.13828659057617 0.4999961853027344 M 24.13828659057617 -3.814697265625e-06 C 37.46949768066406 -3.814697265625e-06 48.27657699584961 10.80707550048828 48.27657699584961 24.13828659057617 C 48.27657699584961 37.46949768066406 37.46949768066406 48.27657699584961 24.13828659057617 48.27657699584961 C 10.80707550048828 48.27657699584961 -3.814697265625e-06 37.46949768066406 -3.814697265625e-06 24.13828659057617 C -3.814697265625e-06 10.80707550048828 10.80707550048828 -3.814697265625e-06 24.13828659057617 -3.814697265625e-06 Z" stroke="none" fill="#fff"/>
      </g>
    </g>
  </g>
</svg>
