<svg id="Group_657" data-name="Group 657" xmlns="http://www.w3.org/2000/svg" width="20.736" height="20.736" viewBox="0 0 20.736 20.736">
  <g id="Group_551" data-name="Group 551">
    <path id="Path_956" data-name="Path 956" d="M10.854,0c.407.054.816.094,1.22.165A10.127,10.127,0,0,1,16.537,2.15a.6.6,0,0,1,.061.963c-.541.547-1.086,1.09-1.631,1.633a.628.628,0,0,1-.936.086A6.658,6.658,0,0,0,3.683,9.118a.635.635,0,0,1-.722.6c-.722,0-1.445-.013-2.166.006A.75.75,0,0,1,0,9.275V8.951a.742.742,0,0,0,.036-.114,10.088,10.088,0,0,1,2.65-5.529A10.14,10.14,0,0,1,8.48.159C8.864.091,9.253.052,9.639,0Z" fill="#afc2d4"/>
    <path id="Path_957" data-name="Path 957" d="M204.32,89.5a.749.749,0,0,1-.452-.8c.02-.722.005-1.444.006-2.166a.632.632,0,0,1,.583-.719,6.6,6.6,0,0,0,5.385-5.405,6.465,6.465,0,0,0-1.036-4.88c-.306-.462-.29-.668.1-1.06q.773-.773,1.546-1.546A.611.611,0,0,1,211.47,73a10.165,10.165,0,0,1,2.092,5.475,1.55,1.55,0,0,0,.033.175V79.86c-.012.065-.027.13-.036.2-.046.361-.062.729-.141,1.082a10.212,10.212,0,0,1-7.63,8.118c-.374.107-.762.163-1.144.243Z" transform="translate(-192.859 -68.763)" fill="#afc2d4"/>
    <path id="Path_958" data-name="Path 958" d="M0,205.865a.755.755,0,0,1,.8-.45c.721.019,1.444,0,2.165.006a.638.638,0,0,1,.718.585,6.568,6.568,0,0,0,4.133,5.016,7.709,7.709,0,0,0,1.221.349.654.654,0,0,1,.6.725c0,.715-.014,1.431.006,2.145a.77.77,0,0,1-.45.817H8.87c-.237-.045-.477-.081-.711-.138A10.175,10.175,0,0,1,.2,207.151c-.08-.3-.132-.614-.2-.922v-.365" transform="translate(0 -194.322)" fill="#afc2d4"/>
    <path id="Path_959" data-name="Path 959" d="M169.475,116.88q0-1.477,0-2.954a.622.622,0,0,1,.7-.7c.357,0,.715,0,1.072,0a.613.613,0,0,1,.657.658q0,2.984,0,5.969a.61.61,0,0,1-.65.663q-.566,0-1.133,0a.605.605,0,0,1-.645-.646c0-1,0-2,0-2.994" transform="translate(-160.323 -107.114)" fill="#afc2d4"/>
    <path id="Path_960" data-name="Path 960" d="M101.971,138.755q0-1.173,0-2.347a.616.616,0,0,1,.672-.683q.546,0,1.092,0a.616.616,0,0,1,.665.671q0,2.367,0,4.734a.613.613,0,0,1-.663.671q-.556,0-1.113,0a.609.609,0,0,1-.653-.659c0-.8,0-1.591,0-2.387" transform="translate(-96.464 -128.395)" fill="#afc2d4"/>
    <path id="Path_961" data-name="Path 961" d="M236.971,182.565c0-.391,0-.782,0-1.173a.608.608,0,0,1,.645-.647c.384,0,.768,0,1.152,0a.6.6,0,0,1,.63.621q.008,1.2,0,2.406a.6.6,0,0,1-.614.615q-.6.009-1.193,0a.6.6,0,0,1-.62-.63c0-.4,0-.8,0-1.193" transform="translate(-224.174 -170.982)" fill="#afc2d4"/>
  </g>
</svg>
