<svg xmlns="http://www.w3.org/2000/svg" xmlns:xlink="http://www.w3.org/1999/xlink" width="91.648" height="68.422" viewBox="0 0 91.648 68.422">
  <defs>
    <filter id="Path_566" x="0" y="0" width="68.355" height="68.208" filterUnits="userSpaceOnUse">
      <feOffset dy="5" input="SourceAlpha"/>
      <feGaussianBlur stdDeviation="3" result="blur"/>
      <feFlood flood-opacity="0.149"/>
      <feComposite operator="in" in2="blur"/>
      <feComposite in="SourceGraphic"/>
    </filter>
    <filter id="Path_567" x="11.046" y="13.986" width="39.656" height="37.451" filterUnits="userSpaceOnUse">
      <feOffset dy="5" input="SourceAlpha"/>
      <feGaussianBlur stdDeviation="3" result="blur-2"/>
      <feFlood flood-opacity="0.149"/>
      <feComposite operator="in" in2="blur-2"/>
      <feComposite in="SourceGraphic"/>
    </filter>
    <filter id="Path_568" x="22.852" y="34.249" width="28.85" height="34.173" filterUnits="userSpaceOnUse">
      <feOffset dy="5" input="SourceAlpha"/>
      <feGaussianBlur stdDeviation="3" result="blur-3"/>
      <feFlood flood-opacity="0.149"/>
      <feComposite operator="in" in2="blur-3"/>
      <feComposite in="SourceGraphic"/>
    </filter>
    <filter id="Path_569" x="36.896" y="33.437" width="23.153" height="21.165" filterUnits="userSpaceOnUse">
      <feOffset dy="5" input="SourceAlpha"/>
      <feGaussianBlur stdDeviation="3" result="blur-4"/>
      <feFlood flood-opacity="0.149"/>
      <feComposite operator="in" in2="blur-4"/>
      <feComposite in="SourceGraphic"/>
    </filter>
    <filter id="Path_570" x="35.86" y="38.541" width="25.573" height="29.735" filterUnits="userSpaceOnUse">
      <feOffset dy="5" input="SourceAlpha"/>
      <feGaussianBlur stdDeviation="3" result="blur-5"/>
      <feFlood flood-opacity="0.149"/>
      <feComposite operator="in" in2="blur-5"/>
      <feComposite in="SourceGraphic"/>
    </filter>
    <filter id="Path_571" x="45.569" y="34.249" width="20.807" height="29.958" filterUnits="userSpaceOnUse">
      <feOffset dy="5" input="SourceAlpha"/>
      <feGaussianBlur stdDeviation="3" result="blur-6"/>
      <feFlood flood-opacity="0.149"/>
      <feComposite operator="in" in2="blur-6"/>
      <feComposite in="SourceGraphic"/>
    </filter>
    <filter id="Path_572" x="50.554" y="40.186" width="33.19" height="25.48" filterUnits="userSpaceOnUse">
      <feOffset dy="5" input="SourceAlpha"/>
      <feGaussianBlur stdDeviation="3" result="blur-7"/>
      <feFlood flood-opacity="0.149"/>
      <feComposite operator="in" in2="blur-7"/>
      <feComposite in="SourceGraphic"/>
    </filter>
    <filter id="Path_573" x="64.896" y="42.973" width="26.753" height="25.188" filterUnits="userSpaceOnUse">
      <feOffset dy="5" input="SourceAlpha"/>
      <feGaussianBlur stdDeviation="3" result="blur-8"/>
      <feFlood flood-opacity="0.149"/>
      <feComposite operator="in" in2="blur-8"/>
      <feComposite in="SourceGraphic"/>
    </filter>
  </defs>
  <g id="Group_653" data-name="Group 653" transform="translate(-69.176 -121)">
    <g id="Group_502" data-name="Group 502" transform="translate(0 10.211)">
      <g transform="matrix(1, 0, 0, 1, 69.18, 110.79)" filter="url(#Path_566)">
        <path id="Path_566-2" data-name="Path 566" d="M25.179,0a25.177,25.177,0,0,0-2.715,50.208,7.459,7.459,0,0,1-1.46-3.1A22.314,22.314,0,1,1,46.392,32.164,4.438,4.438,0,0,1,49,33.349,25.2,25.2,0,0,0,25.179,0" transform="translate(9 4)" fill="#fff"/>
      </g>
      <g transform="matrix(1, 0, 0, 1, 69.18, 110.79)" filter="url(#Path_567)">
        <path id="Path_567-2" data-name="Path 567" d="M48.075,35.375,38.009,49.038a1.591,1.591,0,0,1-2.225.337l-3.926-2.922a1.592,1.592,0,0,0-2.225.337l-.033.045a1.591,1.591,0,0,0,.337,2.225l5.207,3.865,1.281.944a1.591,1.591,0,0,0,2.225-.337l.977-1.326L50.636,37.263a1.591,1.591,0,1,0-2.562-1.887" transform="translate(-9.25 -16.74)" fill="#fff"/>
      </g>
      <g transform="matrix(1, 0, 0, 1, 69.18, 110.79)" filter="url(#Path_568)">
        <path id="Path_568-2" data-name="Path 568" d="M71.636,93.612h0a1.22,1.22,0,0,0-1.151,1.266l.38,9.812q.05,1.091-.4,1.432a7.838,7.838,0,0,1-2.258.8q-2.216.546-2.991-.886a4.517,4.517,0,0,1-.089-3.256,1.224,1.224,0,0,0-.735-1.45l-.024-.01a1.216,1.216,0,0,0-1.628.842,10.7,10.7,0,0,0-.234,1.4,7.726,7.726,0,0,0,.094,2.352,6,6,0,0,0,.742,1.892,3.7,3.7,0,0,0,1.321,1.312,5.158,5.158,0,0,0,1.832.613,5.8,5.8,0,0,0,2.292-.17,7.365,7.365,0,0,0,3.553-1.7,4.353,4.353,0,0,0,.963-3.315l-.378-9.769a1.22,1.22,0,0,0-1.288-1.171" transform="translate(-30.61 -55.36)" fill="#fff"/>
      </g>
      <g transform="matrix(1, 0, 0, 1, 69.18, 110.79)" filter="url(#Path_569)">
        <path id="Path_569-2" data-name="Path 569" d="M102.434,94.555a1.364,1.364,0,0,0,.955-.341,1.289,1.289,0,0,0,.954.341,1.6,1.6,0,0,0,1.33-.605,1.5,1.5,0,0,0,.255-1.406l-.228-.779a.522.522,0,0,0-.646-.354l-.081.023a.522.522,0,0,0-.363.621l.176.745a.256.256,0,0,1-.051.273.561.561,0,0,1-.392.1q-.409,0-.409-.2l-.029-.66a.522.522,0,0,0-1.042.008l-.019.653a.127.127,0,0,1-.034.076.348.348,0,0,1-.136.085.614.614,0,0,1-.239.043q-.529,0-.426-.443l.084-.389a.522.522,0,0,0-.37-.612l-.046-.013a.522.522,0,0,0-.647.38l-.112.464a1.524,1.524,0,0,0,1.517,1.994" transform="translate(-54.95 -53.95)" fill="#fff"/>
      </g>
      <g transform="matrix(1, 0, 0, 1, 69.18, 110.79)" filter="url(#Path_570)">
        <path id="Path_570-2" data-name="Path 570" d="M105.257,109.418a4.943,4.943,0,0,0-1.31-3.067,3.354,3.354,0,0,0-2.56-1.006,3.2,3.2,0,0,0-2.522,1.372,4.236,4.236,0,0,0-.835,2.974,3.579,3.579,0,0,0,1.065,2.377,3.244,3.244,0,0,0,2.344.912,11.888,11.888,0,0,0,1.687-.119,1.038,1.038,0,0,1-.742.963,15.6,15.6,0,0,1-2.106.571,1.357,1.357,0,1,0,.612,2.645q.613-.145,1.093-.284a10.2,10.2,0,0,0,1.764-.682,3.334,3.334,0,0,0,1.184-.92,3.2,3.2,0,0,0,.554-1.244,5.467,5.467,0,0,0,.06-1.73Zm-3.818.818q-.92,0-.972-.767a1.469,1.469,0,0,1,.247-.963.954.954,0,0,1,.792-.418,1.083,1.083,0,0,1,.9.409,2.273,2.273,0,0,1,.443,1.244l.034.392a11.292,11.292,0,0,1-1.449.1" transform="translate(-53.15 -62.8)" fill="#fff"/>
      </g>
      <g transform="matrix(1, 0, 0, 1, 69.18, 110.79)" filter="url(#Path_571)">
        <path id="Path_571-2" data-name="Path 571" d="M124.55,94.877l.367,9.517a1.22,1.22,0,1,0,2.438-.094l-.366-9.518a1.22,1.22,0,0,0-1.287-1.171h0a1.22,1.22,0,0,0-1.151,1.265" transform="translate(-69.98 -55.36)" fill="#fff"/>
      </g>
      <g transform="matrix(1, 0, 0, 1, 69.18, 110.79)" filter="url(#Path_572)">
        <path id="Path_572-2" data-name="Path 572" d="M148.813,112.4a2.471,2.471,0,0,0-1.474,1.245l-.045.079a.355.355,0,0,0,.119.477l.729.461a.355.355,0,0,0,.5-.13.915.915,0,0,1,.577-.438,1,1,0,0,1,.716.075l1.549.748-1.806.427a13.243,13.243,0,0,1-3.034.256h-.171a.767.767,0,0,1-.417-.091.486.486,0,0,1-.182-.348v-.064l-.173-4.516a.77.77,0,1,0-1.54.059l.174,4.532a.345.345,0,0,1-.106.321.806.806,0,0,1-.492.107H143.4a.952.952,0,0,1-.652-.235.738.738,0,0,1-.267-.577v-2.96a.342.342,0,0,0-.342-.342h-.844a.342.342,0,0,0-.342.342l-1.325.438a2.014,2.014,0,0,0-1.213,1.1,2.149,2.149,0,0,0-.123,1.667,2.264,2.264,0,0,0,.876,1.133,1.789,1.789,0,0,0,1.282.363q.523-.075,1.036-.161a2.311,2.311,0,0,0,1.913.951h.342a2.151,2.151,0,0,0,1.4-.46,2,2,0,0,0,1.336.46h.214a14.384,14.384,0,0,0,3.376-.32l3.088-.822.214-1.977-2.682-1.538a2.333,2.333,0,0,0-1.87-.262m-7.864,2.313q-.438.086-.641.107a.444.444,0,0,1-.374-.086.516.516,0,0,1,.171-.919l.844-.289Z" transform="translate(-78.62 -65.65)" fill="#fff"/>
      </g>
      <g transform="matrix(1, 0, 0, 1, 69.18, 110.79)" filter="url(#Path_573)">
        <path id="Path_573-2" data-name="Path 573" d="M186.07,119.236a2.1,2.1,0,0,0-1.053-1.544,1.764,1.764,0,0,0-1.442-.144,1.9,1.9,0,0,0-1.112.989l-.8,1.528a.749.749,0,0,1-.716.364h-.064a.364.364,0,0,1-.353-.256,6.94,6.94,0,0,1-.246-1.293.357.357,0,0,0-.406-.3l-.8.12a.357.357,0,0,0-.3.4l.379,2.716a.761.761,0,0,1-.267.807,4.554,4.554,0,0,1-.918.367.845.845,0,1,0,.529,1.6,5.184,5.184,0,0,0,1.479-.764,2.02,2.02,0,0,0,.727-1.693.877.877,0,0,0,.128.01h.118a2.053,2.053,0,0,0,1.581-.705l1.143.588a1.5,1.5,0,0,0,1.17.1,1.541,1.541,0,0,0,.881-.769,3.129,3.129,0,0,0,.347-2.121m-1.555,1.394-1.154-.6.2-.374q.4-.769.908-.481.62.363.043,1.453" transform="translate(-103.48 -70.48)" fill="#fff"/>
      </g>
      <rect id="Rectangle_66" data-name="Rectangle 66" width="73.648" height="50.422" transform="translate(78.176 114.789)" fill="none"/>
    </g>
  </g>
</svg>
