<svg xmlns="http://www.w3.org/2000/svg" xmlns:xlink="http://www.w3.org/1999/xlink" width="42.446" height="47.911" viewBox="0 0 42.446 47.911">
  <defs>
    <filter id="Path_594" x="0" y="4.953" width="42.446" height="42.958" filterUnits="userSpaceOnUse">
      <feOffset dy="5" input="SourceAlpha"/>
      <feGaussianBlur stdDeviation="2.5" result="blur"/>
      <feFlood flood-opacity="0.451"/>
      <feComposite operator="in" in2="blur"/>
      <feComposite in="SourceGraphic"/>
    </filter>
    <filter id="Path_595" x="9.759" y="9.534" width="22.477" height="22.474" filterUnits="userSpaceOnUse">
      <feOffset dy="5" input="SourceAlpha"/>
      <feGaussianBlur stdDeviation="2.5" result="blur-2"/>
      <feFlood flood-opacity="0.451"/>
      <feComposite operator="in" in2="blur-2"/>
      <feComposite in="SourceGraphic"/>
    </filter>
    <filter id="Path_596" x="8.017" y="17.506" width="25.612" height="19.618" filterUnits="userSpaceOnUse">
      <feOffset dy="5" input="SourceAlpha"/>
      <feGaussianBlur stdDeviation="2.5" result="blur-3"/>
      <feFlood flood-opacity="0.451"/>
      <feComposite operator="in" in2="blur-3"/>
      <feComposite in="SourceGraphic"/>
    </filter>
  </defs>
  <g id="Group_653" data-name="Group 653" transform="translate(-21.777 -803)">
    <g id="Group_151" data-name="Group 151" transform="translate(-354 -28)">
      <g id="Group_71" data-name="Group 71" transform="translate(73 741)">
        <circle id="Ellipse_8" data-name="Ellipse 8" cx="21" cy="21" r="21" transform="translate(303 90)" fill="#29c285"/>
        <g id="Group_70" data-name="Group 70" transform="translate(310.277 97.453)">
          <g transform="matrix(1, 0, 0, 1, -7.5, -7.45)" filter="url(#Path_594)">
            <path id="Path_594-2" data-name="Path 594" d="M16.736,27.953c-.053-.022-.106-.046-.16-.065a1.146,1.146,0,0,1-.782-1.075q-.007-3.219,0-6.438a1.115,1.115,0,0,1,1.026-1.127c.581-.04,1.167-.026,1.751-.022a7.792,7.792,0,0,1,1.276.053,2.779,2.779,0,0,1,2.332,2.663c0,.031,0,.062.012.145A11.9,11.9,0,1,0,4.6,21.332c.016-.038.034-.072.046-.108a2.8,2.8,0,0,1,2.683-1.995c.794-.02,1.588-.015,2.382,0a1.162,1.162,0,0,1,1.2,1.249q0,3.091,0,6.182a1.171,1.171,0,0,1-.917,1.271c-.011,0-.02.016-.029.025H7.009a.768.768,0,0,0-.11-.035A2.767,2.767,0,0,1,4.569,25.6a10.311,10.311,0,0,1-.045-1.452.487.487,0,0,0-.167-.391,13.576,13.576,0,0,1-4.245-8.3c-.043-.324-.075-.649-.112-.973V12.95c.012-.057.027-.113.034-.171.059-.488.089-.981.178-1.463A13.529,13.529,0,0,1,4.765,3.328,13.411,13.411,0,0,1,11.982.107c.324-.042.649-.075.973-.112h1.536c.266.028.532.053.8.086A13.75,13.75,0,0,1,27.336,12c.042.317.074.636.11.954v1.536c-.012.064-.026.127-.034.191-.067.526-.105,1.057-.2,1.577a13.421,13.421,0,0,1-4.486,7.823,1.367,1.367,0,0,0-.561,1.158A2.73,2.73,0,0,1,20.22,27.82c-.173.055-.354.089-.531.133Zm.893-6.891c0,.078-.01.136-.01.194q0,2.333,0,4.666c0,.1-.025.21.148.207.538-.008,1.076.009,1.614-.008a.969.969,0,0,0,.972-.945q.022-1.584,0-3.169a.957.957,0,0,0-.891-.94c-.6-.021-1.206,0-1.832,0m-8.553,0c-.573,0-1.123,0-1.673,0a1,1,0,0,0-1.059,1.06c0,.418,0,.835,0,1.253,0,.564,0,1.128,0,1.692a1,1,0,0,0,1.062,1.061c.5,0,1,0,1.495,0,.056,0,.113-.009.175-.015Z" transform="translate(7.5 7.46)" fill="#fff"/>
          </g>
          <g transform="matrix(1, 0, 0, 1, -7.5, -7.45)" filter="url(#Path_595)">
            <path id="Path_595-2" data-name="Path 595" d="M422.683,160.429a3.737,3.737,0,1,1,3.759-3.686,3.737,3.737,0,0,1-3.759,3.686m2.242-3.721a2.219,2.219,0,1,0-2.262,2.205,2.232,2.232,0,0,0,2.262-2.205" transform="translate(-401.71 -140.92)" fill="#fff"/>
          </g>
          <g transform="matrix(1, 0, 0, 1, -7.5, -7.45)" filter="url(#Path_596)">
            <path id="Path_596-2" data-name="Path 596" d="M327.268,598.166a5.563,5.563,0,0,1,4.923,3.518.76.76,0,1,1-1.4.585,4.05,4.05,0,0,0-3.13-2.518,4.108,4.108,0,0,0-4.513,2.462.783.783,0,0,1-.8.565.759.759,0,0,1-.626-1.084,5.6,5.6,0,0,1,2.412-2.77,5.914,5.914,0,0,1,3.138-.759" transform="translate(-306.13 -578.16)" fill="#fff"/>
          </g>
        </g>
      </g>
    </g>
  </g>
</svg>
