<svg xmlns="http://www.w3.org/2000/svg" width="17.994" height="18.807" viewBox="0 0 17.994 18.807">
  <g id="Group_652" data-name="Group 652" transform="translate(-84 -626)">
    <g id="Group_495" data-name="Group 495" transform="translate(389 580.497)">
      <g id="Group_47" data-name="Group 47" transform="translate(-305 46.503)">
        <path id="Path_553" data-name="Path 553" d="M27.12,12.009A3.009,3.009,0,0,1,30.129,9H37.17a3.009,3.009,0,0,1,3.009,3.009V22.8a3.009,3.009,0,0,1-3.009,3.009H30.129A3.009,3.009,0,0,1,27.12,22.8" transform="translate(-23.185 -9)" fill="none" stroke="#0064c7" stroke-miterlimit="10" stroke-width="2"/>
        <path id="Path_554" data-name="Path 554" d="M12.418,41.707l-4.206-3.7a.387.387,0,0,0-.642.29v1.9a.387.387,0,0,1-.387.387H.387A.387.387,0,0,0,0,40.975v2.046a.387.387,0,0,0,.387.387h6.8a.387.387,0,0,1,.387.387v1.9a.387.387,0,0,0,.642.29l4.206-3.7a.387.387,0,0,0,0-.581" transform="translate(0 -33.718)" fill="#0064c7"/>
      </g>
    </g>
  </g>
</svg>
