<svg xmlns="http://www.w3.org/2000/svg" xmlns:xlink="http://www.w3.org/1999/xlink" width="53" height="58" viewBox="0 0 53 58">
  <defs>
    <clipPath id="clip-job_search_off">
      <rect width="53" height="58"/>
    </clipPath>
  </defs>
  <g id="job_search_off" data-name="job search off" clip-path="url(#clip-job_search_off)">
    <rect width="53" height="58" fill="#fff"/>
    <g id="Group_652" data-name="Group 652" transform="translate(3952.735 -2331.305)">
      <path id="Path_996" data-name="Path 996" d="M-3089.187,2499.875h6.563v-9.25s-8.25-.75-7.75,9.25C-3090.625,2499.5-3089.187,2499.875-3089.187,2499.875Z" transform="translate(-836 -133.016)" fill="#a5a5a5" opacity="0.74"/>
      <g id="Group_635" data-name="Group 635" transform="translate(-4274.648 1484.5)">
        <g id="Group_602" data-name="Group 602" transform="translate(-15.585 -5.641)">
          <circle id="Ellipse_27" data-name="Ellipse 27" cx="8.001" cy="8.001" r="8.001" transform="translate(379.668 895.056) rotate(-178)" fill="none" stroke="#a5a5a5" stroke-miterlimit="10" stroke-width="2"/>
          <path id="Path_684" data-name="Path 684" d="M0,0C.179.487.072.255.072.8" transform="translate(376.973 886.843) rotate(12)" fill="none" stroke="#fff" stroke-linecap="round" stroke-miterlimit="10" stroke-width="1"/>
          <path id="Path_685" data-name="Path 685" d="M0,0A4.5,4.5,0,0,1,1.955.444a4.53,4.53,0,0,1,1.525,1.2" transform="translate(373.404 882.298) rotate(12)" fill="none" stroke="#fff" stroke-linecap="round" stroke-miterlimit="10" stroke-width="1"/>
          <path id="Subtraction_3" data-name="Subtraction 3" d="M13.493,20.454H2.2a2.2,2.2,0,0,1-2.2-2.2V4.679H20.89V12.6a10.56,10.56,0,0,0-7.4,7.853Z" transform="translate(348.234 864.125)" fill="#a5a5a5" stroke="rgba(0,0,0,0)" stroke-miterlimit="10" stroke-width="1"/>
        </g>
        <line id="Line_194" data-name="Line 194" x1="5" y2="4" transform="translate(344.5 886.5)" fill="none" stroke="#a5a5a5" stroke-linecap="round" stroke-miterlimit="10" stroke-width="2"/>
      </g>
      <path id="Path_998" data-name="Path 998" d="M-3099.062,2480.328v-2.265h5.813v2.469" transform="translate(-835 -132.453)" fill="none" stroke="#a5a5a5" stroke-width="1"/>
      <path id="Path_997" data-name="Path 997" d="M-3106.462,2484.2s2.88,4.277,10.923,4.2,10.807-3.643,10.807-3.643" transform="translate(-836 -133.016)" fill="none" stroke="#fff" stroke-width="1"/>
      <rect id="Rectangle_552" data-name="Rectangle 552" width="4" height="4" rx="1" transform="translate(-3933 2353.984)" fill="#fff"/>
    </g>
  </g>
</svg>
