<svg xmlns="http://www.w3.org/2000/svg" xmlns:xlink="http://www.w3.org/1999/xlink" width="53" height="58" viewBox="0 0 53 58">
  <defs>
    <filter id="Ellipse_27" x="14.643" y="18.221" width="33.619" height="33.619" filterUnits="userSpaceOnUse">
      <feOffset dx="-3" dy="3" input="SourceAlpha"/>
      <feGaussianBlur stdDeviation="2.5" result="blur"/>
      <feFlood flood-opacity="0.251"/>
      <feComposite operator="in" in2="blur"/>
      <feComposite in="SourceGraphic"/>
    </filter>
    <filter id="Subtraction_3" x="-4.765" y="3.554" width="51.89" height="46.775" filterUnits="userSpaceOnUse">
      <feOffset dy="5" input="SourceAlpha"/>
      <feGaussianBlur stdDeviation="5" result="blur-2"/>
      <feFlood flood-opacity="0.149"/>
      <feComposite operator="in" in2="blur-2"/>
      <feComposite in="SourceGraphic"/>
    </filter>
    <filter id="Line_194" x="10.681" y="31.485" width="22.811" height="21.811" filterUnits="userSpaceOnUse">
      <feOffset dx="-3" dy="3" input="SourceAlpha"/>
      <feGaussianBlur stdDeviation="2.5" result="blur-3"/>
      <feFlood flood-opacity="0.251"/>
      <feComposite operator="in" in2="blur-3"/>
      <feComposite in="SourceGraphic"/>
    </filter>
    <filter id="Path_994" x="5.357" y="13.799" width="31.541" height="13.976" filterUnits="userSpaceOnUse">
      <feOffset dy="1" input="SourceAlpha"/>
      <feGaussianBlur stdDeviation="1.5" result="blur-4"/>
      <feFlood flood-opacity="0.271"/>
      <feComposite operator="in" in2="blur-4"/>
      <feComposite in="SourceGraphic"/>
    </filter>
    <filter id="Rectangle_551" x="15.235" y="16.875" width="13" height="13" filterUnits="userSpaceOnUse">
      <feOffset dy="1" input="SourceAlpha"/>
      <feGaussianBlur stdDeviation="1.5" result="blur-5"/>
      <feFlood flood-opacity="0.271"/>
      <feComposite operator="in" in2="blur-5"/>
      <feComposite in="SourceGraphic"/>
    </filter>
    <clipPath id="clip-job_search_on">
      <rect width="53" height="58"/>
    </clipPath>
  </defs>
  <g id="job_search_on" data-name="job search on" clip-path="url(#clip-job_search_on)">
    <rect width="53" height="58" fill="#fff"/>
    <g id="Group_651" data-name="Group 651" transform="translate(3952.735 -2398.625)">
      <path id="Path_995" data-name="Path 995" d="M-3089.187,2499.875h6.563v-9.25s-8.25-.75-7.75,9.25C-3090.625,2499.5-3089.187,2499.875-3089.187,2499.875Z" transform="translate(-836 -68)" fill="#0064c7" opacity="0.74"/>
      <g id="Group_613" data-name="Group 613" transform="translate(-4274.648 1549.516)">
        <g id="Group_602" data-name="Group 602" transform="translate(-15.585 -5.641)">
          <g transform="matrix(1, 0, 0, 1, 337.5, 854.75)" filter="url(#Ellipse_27)">
            <circle id="Ellipse_27-2" data-name="Ellipse 27" cx="8.001" cy="8.001" r="8.001" transform="translate(42.17 40.31) rotate(-178)" fill="none" stroke="#0064c7" stroke-miterlimit="10" stroke-width="2"/>
          </g>
          <path id="Path_684" data-name="Path 684" d="M0,0C.179.487.072.255.072.8" transform="translate(376.973 886.843) rotate(12)" fill="none" stroke="#fff" stroke-linecap="round" stroke-miterlimit="10" stroke-width="1"/>
          <path id="Path_685" data-name="Path 685" d="M0,0A4.5,4.5,0,0,1,1.955.444a4.53,4.53,0,0,1,1.525,1.2" transform="translate(373.404 882.298) rotate(12)" fill="none" stroke="#fff" stroke-linecap="round" stroke-miterlimit="10" stroke-width="1"/>
          <g transform="matrix(1, 0, 0, 1, 337.5, 854.75)" filter="url(#Subtraction_3)">
            <path id="Subtraction_3-2" data-name="Subtraction 3" d="M13.493,20.454H2.2a2.2,2.2,0,0,1-2.2-2.2V4.679H20.89V12.6a10.56,10.56,0,0,0-7.4,7.853Z" transform="translate(10.73 9.38)" fill="#0064c7" stroke="rgba(0,0,0,0)" stroke-miterlimit="10" stroke-width="1"/>
          </g>
        </g>
        <g transform="matrix(1, 0, 0, 1, 321.91, 849.11)" filter="url(#Line_194)">
          <line id="Line_194-2" data-name="Line 194" x1="5" y2="4" transform="translate(22.59 37.39)" fill="none" stroke="#0064c7" stroke-linecap="round" stroke-miterlimit="10" stroke-width="2"/>
        </g>
      </g>
      <path id="Path_993" data-name="Path 993" d="M-3099.062,2480.328v-2.265h5.813v2.469" transform="translate(-835 -67.438)" fill="none" stroke="#0064c7" stroke-width="1"/>
      <g transform="matrix(1, 0, 0, 1, -3952.73, 2398.63)" filter="url(#Path_994)">
        <path id="Path_994-2" data-name="Path 994" d="M-3106.462,2484.2s2.88,4.277,10.923,4.2,10.807-3.643,10.807-3.643" transform="translate(3116.73 -2466.63)" fill="none" stroke="#fff" stroke-width="1"/>
      </g>
      <g transform="matrix(1, 0, 0, 1, -3952.73, 2398.63)" filter="url(#Rectangle_551)">
        <rect id="Rectangle_551-2" data-name="Rectangle 551" width="4" height="4" rx="1" transform="translate(19.73 20.38)" fill="#fff"/>
      </g>
    </g>
  </g>
</svg>
