<svg xmlns="http://www.w3.org/2000/svg" width="14.309" height="14.311" viewBox="0 0 14.309 14.311">
  <g id="Group_197" data-name="Group 197" transform="translate(1.337 1.339)">
    <g id="Group_198" data-name="Group 198" transform="translate(-0.708 -0.71)">
      <path id="Path_695" data-name="Path 695" d="M61.883,60.541a1.314,1.314,0,0,1-.164.64,1.339,1.339,0,0,1-2.444-.212,1.313,1.313,0,0,1-.07-.429A1.342,1.342,0,0,1,60.544,59.2a1.3,1.3,0,0,1,.642.166,1.344,1.344,0,0,1,.7,1.175Z" transform="translate(-54.019 -54.014)" fill="#fff"/>
      <path id="Path_696" data-name="Path 696" d="M.5,0A3.3,3.3,0,0,0,.386,3.3" transform="matrix(0.755, 0.656, -0.656, 0.755, 5.181, 3.043)" fill="none" stroke="#fff" stroke-miterlimit="10" stroke-width="1"/>
      <path id="Path_697" data-name="Path 697" d="M0,0A3.3,3.3,0,0,0,3.3.114" transform="matrix(0.755, 0.656, -0.656, 0.755, 3.37, 7.492)" fill="none" stroke="#fff" stroke-miterlimit="10" stroke-width="1"/>
      <path id="Path_698" data-name="Path 698" d="M0,.385A3.3,3.3,0,0,1,3.3.5" transform="matrix(0.755, 0.656, -0.656, 0.755, 7.519, 3.018)" fill="none" stroke="#fff" stroke-miterlimit="10" stroke-width="1"/>
      <path id="Path_699" data-name="Path 699" d="M.115,0A3.3,3.3,0,0,1,0,3.3" transform="matrix(0.755, 0.656, -0.656, 0.755, 9.654, 7.193)" fill="none" stroke="#fff" stroke-miterlimit="10" stroke-width="1"/>
      <path id="Path_704" data-name="Path 704" d="M.409,0A5.874,5.874,0,0,0,1.586,6.166" transform="translate(1.177 3.291) rotate(11)" fill="none" stroke="#fff" stroke-miterlimit="10" stroke-width="1"/>
      <path id="Path_705" data-name="Path 705" d="M0,1.176A5.872,5.872,0,0,0,6.167,0" transform="translate(3.593 10.319) rotate(11)" fill="none" stroke="#fff" stroke-miterlimit="10" stroke-width="1"/>
      <path id="Path_706" data-name="Path 706" d="M0,1.586A5.872,5.872,0,0,1,6.166.409" transform="translate(3.706 0) rotate(11)" fill="none" stroke="#fff" stroke-miterlimit="10" stroke-width="1"/>
      <path id="Path_707" data-name="Path 707" d="M0,0A5.874,5.874,0,0,1,1.177,6.166" transform="translate(11.493 3.405) rotate(11)" fill="none" stroke="#fff" stroke-miterlimit="10" stroke-width="1"/>
    </g>
  </g>
</svg>
