<svg xmlns="http://www.w3.org/2000/svg" width="16.139" height="14.13" viewBox="0 0 16.139 14.13">
  <g id="Group_204" data-name="Group 204" transform="translate(0.523 2.5)">
    <g id="Group_202" data-name="Group 202" transform="translate(0 3.426)">
      <g id="Group_203" data-name="Group 203" transform="translate(0 0)">
        <rect id="Rectangle_207" data-name="Rectangle 207" width="4.699" height="2.394" transform="translate(10.332 6.189) rotate(-56.476)" fill="none" stroke="#0064c7" stroke-miterlimit="10" stroke-width="1"/>
        <path id="Path_710" data-name="Path 710" d="M13.353,2.936,11.32,1.483c-.312-.223-.623-.446-.937-.667A1.686,1.686,0,0,0,9.392.5C9.2.5,6.136.5,5.357.5a.873.873,0,0,0,0,1.747l1.7,0H7.4a.593.593,0,0,1-.05.047c-.312.216-.621.439-.94.645a.972.972,0,0,1-.344.113,2.064,2.064,0,0,1-.284.006c-.074.006-1.509,0-1.957,0a.928.928,0,0,1-.671-.277C3,2.626,2.02,1.645,1.937,1.561a.81.81,0,0,0-.4-.227.879.879,0,0,0-.894.348.8.8,0,0,0,0,.922c.424.609.84,1.226,1.282,1.825A2.51,2.51,0,0,0,4.005,5.5c1.879.015,3.759.006,5.64,0a1.057,1.057,0,0,1,.7.249l.684.536" transform="translate(-0.5 -0.5)" fill="none" stroke="#0064c7" stroke-miterlimit="10" stroke-width="1"/>
      </g>
    </g>
    <path id="Path_722" data-name="Path 722" d="M329.068,332.05h6.959" transform="translate(-329.068 -328.624)" fill="none" stroke="#0064c7" stroke-width="1"/>
    <path id="Path_723" data-name="Path 723" d="M329.068,332.05h6.959" transform="translate(-329.068 -331.337)" fill="none" stroke="#0064c7" stroke-width="1"/>
    <path id="Path_724" data-name="Path 724" d="M329.068,332.05h6.959" transform="translate(-329.068 -334.05)" fill="none" stroke="#0064c7" stroke-width="1"/>
  </g>
</svg>
