<svg xmlns="http://www.w3.org/2000/svg" width="14.374" height="13.473" viewBox="0 0 14.374 13.473">
  <g id="Group_581" data-name="Group 581" transform="translate(0.003 0.135)">
    <g id="Group_577" data-name="Group 577" transform="translate(0.499 0.5)">
      <path id="Path_965" data-name="Path 965" d="M4.61,11.378l-3.28,1.4a.6.6,0,0,1-.824-.63L1,8.616,6.655,1.227a1.855,1.855,0,0,1,2.6-.345l.663.507a1.854,1.854,0,0,1,.345,2.6Z" transform="translate(-0.499 -0.5)" fill="none" stroke="#0064c7" stroke-linecap="round" stroke-miterlimit="10" stroke-width="1"/>
      <path id="Path_966" data-name="Path 966" d="M10.863,4.036,9.841,5.374,6.241,2.6l1.013-1.32A1.846,1.846,0,0,1,9.85.933l.66.506a1.857,1.857,0,0,1,.353,2.6" transform="translate(-1.048 -0.505)" fill="#0064c7"/>
      <line id="Line_192" data-name="Line 192" x2="0.897" transform="translate(12.475 12.332)" fill="none" stroke="#0064c7" stroke-linecap="square" stroke-miterlimit="10" stroke-width="1"/>
      <line id="Line_193" data-name="Line 193" x2="8.914" transform="translate(0.616 12.332)" fill="none" stroke="#0064c7" stroke-linecap="square" stroke-miterlimit="10" stroke-width="1"/>
    </g>
  </g>
</svg>
