<svg xmlns="http://www.w3.org/2000/svg" width="11.43" height="13.559" viewBox="0 0 11.43 13.559">
  <g id="Group_195" data-name="Group 195" transform="translate(0.5 0.869)">
    <g id="Group_191" data-name="Group 191" transform="translate(0 -0.369)">
      <g id="Group_192" data-name="Group 192" transform="translate(0 0)">
        <path id="Path_693" data-name="Path 693" d="M64.671,3.059h0A1.28,1.28,0,1,1,65.951,1.78,1.279,1.279,0,0,1,64.671,3.059Z" transform="translate(-55.521 -0.5)" fill="none" stroke="#0d9c7a" stroke-linecap="round" stroke-miterlimit="10" stroke-width="1"/>
        <path id="Path_694" data-name="Path 694" d="M0,1.8H5.766a1.166,1.166,0,0,1,0,2.332H2.3" transform="translate(0 -1.642)" fill="none" stroke="#0d9c7a" stroke-linecap="round" stroke-miterlimit="10" stroke-width="1"/>
      </g>
    </g>
    <g id="Group_193" data-name="Group 193" transform="translate(0 4.631)">
      <g id="Group_192-2" data-name="Group 192" transform="translate(0 0)">
        <path id="Path_693-2" data-name="Path 693" d="M64.671,3.059h0A1.28,1.28,0,1,1,65.951,1.78,1.279,1.279,0,0,1,64.671,3.059Z" transform="translate(-55.521 -0.5)" fill="none" stroke="#0d9c7a" stroke-linecap="round" stroke-miterlimit="10" stroke-width="1"/>
        <path id="Path_694-2" data-name="Path 694" d="M0,1.8H5.766a1.166,1.166,0,0,1,0,2.332H2.3" transform="translate(0 -1.642)" fill="none" stroke="#0d9c7a" stroke-linecap="round" stroke-miterlimit="10" stroke-width="1"/>
      </g>
    </g>
    <g id="Group_194" data-name="Group 194" transform="translate(0 9.631)">
      <g id="Group_192-3" data-name="Group 192" transform="translate(0 0)">
        <path id="Path_693-3" data-name="Path 693" d="M64.671,3.059h0A1.28,1.28,0,1,1,65.951,1.78,1.279,1.279,0,0,1,64.671,3.059Z" transform="translate(-55.521 -0.5)" fill="none" stroke="#0d9c7a" stroke-linecap="round" stroke-miterlimit="10" stroke-width="1"/>
        <path id="Path_694-3" data-name="Path 694" d="M0,1.8H5.766a1.166,1.166,0,0,1,0,2.332H2.3" transform="translate(0 -1.642)" fill="none" stroke="#0d9c7a" stroke-linecap="round" stroke-miterlimit="10" stroke-width="1"/>
      </g>
    </g>
  </g>
</svg>
