<svg id="Group_141" data-name="Group 141" xmlns="http://www.w3.org/2000/svg" xmlns:xlink="http://www.w3.org/1999/xlink" width="15.946" height="14.969" viewBox="0 0 15.946 14.969">
    <defs>
        <clipPath id="clip-path">
            <rect id="Rectangle_170" data-name="Rectangle 170" width="15.946" height="14.969" fill="none" stroke="#0064c7" stroke-width="1"/>
        </clipPath>
    </defs>
    <line id="Line_87" data-name="Line 87" x1="1.55" transform="translate(12.017 8.48)" fill="none" stroke="#0064c7" stroke-linecap="round" stroke-miterlimit="10" stroke-width="1"/>
    <line id="Line_88" data-name="Line 88" x1="4.099" transform="translate(9.468 6.513)" fill="none" stroke="#0064c7" stroke-linecap="round" stroke-miterlimit="10" stroke-width="1"/>
    <line id="Line_89" data-name="Line 89" x1="4.715" transform="translate(8.852 4.546)" fill="none" stroke="#0064c7" stroke-linecap="round" stroke-miterlimit="10" stroke-width="1"/>
    <line id="Line_90" data-name="Line 90" x1="2.174" transform="translate(11.393 2.578)" fill="none" stroke="#0064c7" stroke-linecap="round" stroke-miterlimit="10" stroke-width="1"/>
    <g id="Group_140" data-name="Group 140" transform="translate(0 0)">
        <g id="Group_139" data-name="Group 139" clip-path="url(#clip-path)">
            <path id="Path_673" data-name="Path 673" d="M6.7,14.754h8.215a1.171,1.171,0,0,0,1.269-1.038V1.537A1.167,1.167,0,0,0,14.915.5H3.351A1.165,1.165,0,0,0,2.088,1.537V5.468" transform="translate(-0.597 -0.142)" fill="none" stroke="#0064c7" stroke-linecap="round" stroke-miterlimit="10" stroke-width="1"/>
            <path id="Path_674" data-name="Path 674" d="M4.468,8.231l3.766,1.948a6.878,6.878,0,0,1-3.766,6.739l-.2-.059A6.88,6.88,0,0,1,.506,10.12L4.272,8.172" transform="translate(-0.143 -2.334)" fill="none" stroke="#0064c7" stroke-linecap="round" stroke-miterlimit="10" stroke-width="1"/>
            <path id="Path_675" data-name="Path 675" d="M2.952,13.5a4.709,4.709,0,0,1-.22-1.659L4.949,10.69" transform="translate(-0.779 -3.054)" fill="none" stroke="#0064c7" stroke-linecap="round" stroke-miterlimit="10" stroke-width="1"/>
            <path id="Path_676" data-name="Path 676" d="M8.17,12.344a4.05,4.05,0,0,1-2.217,3.967l-.116-.035" transform="translate(-1.668 -3.526)" fill="none" stroke="#0064c7" stroke-linecap="round" stroke-miterlimit="10" stroke-width="1"/>
        </g>
    </g>
</svg>
