<svg xmlns="http://www.w3.org/2000/svg" width="17.216" height="16.355" viewBox="0 0 17.216 16.355">
  <g id="Group_621" data-name="Group 621" transform="translate(-75.5 -317.5)">
    <g id="Group_571" data-name="Group 571" transform="translate(75.5 317.5)">
      <g id="Group_557" data-name="Group 557">
        <path id="Path_962" data-name="Path 962" d="M8.551,15.424l-5.475.032A2.562,2.562,0,0,1,.5,12.908V.5H11.066a2.562,2.562,0,0,1,2.562,2.562V7.456" fill="none" stroke="#242121" stroke-linecap="round" stroke-miterlimit="10" stroke-width="1"/>
        <line id="Line_188" data-name="Line 188" x1="1.741" transform="translate(9.046 3.076)" fill="none" stroke="#242121" stroke-linecap="round" stroke-miterlimit="10" stroke-width="1"/>
        <line id="Line_189" data-name="Line 189" x1="7.481" transform="translate(3.306 5.453)" fill="none" stroke="#242121" stroke-linecap="round" stroke-miterlimit="10" stroke-width="1"/>
        <line id="Line_190" data-name="Line 190" x1="3.723" transform="translate(3.324 7.978)" fill="none" stroke="#242121" stroke-linecap="round" stroke-miterlimit="10" stroke-width="1"/>
        <line id="Line_191" data-name="Line 191" x1="2.715" transform="translate(3.306 10.587)" fill="none" stroke="#242121" stroke-linecap="round" stroke-miterlimit="10" stroke-width="1"/>
        <path id="Path_963" data-name="Path 963" d="M15.915,9.552H9.757a1.3,1.3,0,0,0-1.005,2.123l3.686,4.492a.514.514,0,0,0,.8,0l3.686-4.492a1.3,1.3,0,0,0-1-2.123" fill="#242121"/>
      </g>
    </g>
  </g>
</svg>
