<svg xmlns="http://www.w3.org/2000/svg" xmlns:xlink="http://www.w3.org/1999/xlink" width="53" height="58" viewBox="0 0 53 58">
  <defs>
    <filter id="Path_980" x="-14.508" y="-5" width="82.016" height="82.016" filterUnits="userSpaceOnUse">
      <feOffset dy="10" input="SourceAlpha"/>
      <feGaussianBlur stdDeviation="10" result="blur"/>
      <feFlood flood-opacity="0.251"/>
      <feComposite operator="in" in2="blur"/>
      <feComposite in="SourceGraphic"/>
    </filter>
    <filter id="Path_981" x="15.001" y="13.18" width="26.927" height="22.324" filterUnits="userSpaceOnUse">
      <feOffset dy="3" input="SourceAlpha"/>
      <feGaussianBlur stdDeviation="2.5" result="blur-2"/>
      <feFlood flood-opacity="0.38"/>
      <feComposite operator="in" in2="blur-2"/>
      <feComposite in="SourceGraphic"/>
    </filter>
    <clipPath id="clip-request_on">
      <rect width="53" height="58"/>
    </clipPath>
  </defs>
  <g id="request_on" data-name="request on" clip-path="url(#clip-request_on)">
    <rect width="53" height="58" fill="#fff"/>
    <g id="Group_621" data-name="Group 621" transform="translate(-182.508 -1141.469)">
      <g transform="matrix(1, 0, 0, 1, 182.51, 1141.47)" filter="url(#Path_980)">
        <path id="Path_980-2" data-name="Path 980" d="M22.016,3.311V16c-.062.211-.109.427-.189.631a2.717,2.717,0,0,1-2.648,1.726q-4.714,0-9.428,0a.477.477,0,0,0-.375.152q-1.55,1.563-3.114,3.112a4.613,4.613,0,0,1-.543.4h-.43c-.068-.038-.133-.081-.2-.113a.789.789,0,0,1-.5-.781q0-1.246,0-2.492c0-.084,0-.168,0-.277H4.34c-.516,0-1.031.008-1.547,0A2.678,2.678,0,0,1,.215,16.685,5.662,5.662,0,0,1,0,16V2.365a1.412,1.412,0,0,0,.042-.139A2.6,2.6,0,0,1,1.385.354,6.682,6.682,0,0,1,2.365,0H18.748a1.439,1.439,0,0,0,.158.047A3.573,3.573,0,0,1,21.658,2.13a8.3,8.3,0,0,1,.358,1.181" transform="translate(15.49 15)" fill="#0064c7"/>
      </g>
      <g transform="matrix(1, 0, 0, 1, 182.51, 1141.47)" filter="url(#Path_981)">
        <path id="Path_981-2" data-name="Path 981" d="M124.1,107.1c-.139-.121-.284-.235-.415-.364-.275-.271-.559-.537-.81-.83a.879.879,0,0,1,.071-1.208.9.9,0,0,1,1.213-.043c.044.037.085.077.126.117q1.315,1.314,2.629,2.63a.88.88,0,0,1,.018,1.362q-1.346,1.359-2.705,2.706a.907.907,0,0,1-1.515-.919,1.178,1.178,0,0,1,.248-.369c.317-.332.646-.651.969-.976.048-.048.092-.1.162-.179-.1-.005-.172-.012-.24-.012q-2.408,0-4.815,0a1.816,1.816,0,0,0-1.878,1.824.886.886,0,0,1-.959.926.87.87,0,0,1-.877-1,4.167,4.167,0,0,1,.073-.639,3.665,3.665,0,0,1,3.648-2.954c1.591-.005,3.181,0,4.772,0h.234l.053-.074" transform="translate(-92.82 -86.76)" fill="#fff"/>
      </g>
    </g>
  </g>
</svg>
