<svg id="Group_142" data-name="Group 142" xmlns="http://www.w3.org/2000/svg" width="16.929" height="20.152" viewBox="0 0 16.929 20.152">
    <g id="Group_114" data-name="Group 114" transform="translate(1.433 0)">
        <path id="Path_644" data-name="Path 644" d="M297.73,0a.488.488,0,0,1,.323.526c-.01.718,0,1.026,0,1.745a.413.413,0,0,1-.664.337.4.4,0,0,1-.163-.341c0-.751,0-1.091,0-1.843A.456.456,0,0,1,297.534,0Z" transform="translate(-289.932)" fill="#fff"/>
        <path id="Path_648" data-name="Path 648" d="M0,323.418a.5.5,0,0,1,.542-.32c.314.013.628,0,.943,0a.416.416,0,1,1,0,.829c-.314,0-.629-.009-.943,0A.5.5,0,0,1,0,323.614Z" transform="translate(0 -315.172)" fill="#fff"/>
        <path id="Path_649" data-name="Path 649" d="M548.836,323.617a.5.5,0,0,1-.543.319c-.314-.013-.628,0-.943,0a.416.416,0,1,1,0-.829c.314,0,.629.01.943,0a.494.494,0,0,1,.542.32Z" transform="translate(-533.484 -315.174)" fill="#fff"/>
        <path id="Path_652" data-name="Path 652" d="M280.217,671.1c-.178-.056-.358-.106-.533-.17a.557.557,0,0,1-.215-.162l2.19-.222a1.483,1.483,0,0,1-.8.5c-.074.019-.15.035-.224.052Z" transform="translate(-272.614 -654.097)" fill="#fff"/>
        <path id="Path_647" data-name="Path 647" d="M154.9,186.65c-.134-.363-.252-.719-.4-1.065a7.728,7.728,0,0,0-.963-1.644,3.721,3.721,0,0,1-.77-2.427,3.827,3.827,0,0,1,2.476-3.594,3.946,3.946,0,0,1,5.391,3.025,3.87,3.87,0,0,1-.729,3,8.1,8.1,0,0,0-1.154,2.149.123.123,0,0,1-.117.1q-1.854.226-3.707.458a.235.235,0,0,1-.032,0" transform="translate(-149.017 -173.259)" fill="#fff"/>
        <path id="Path_653" data-name="Path 653" d="M246.289,567.674v.644l-3.678.375-.044-.639,3.723-.38" transform="translate(-236.616 -553.75)" fill="#fff"/>
        <path id="Path_654" data-name="Path 654" d="M249.007,618.407l3.5-.356c-.066.222-.123.424-.188.623-.008.024-.063.043-.1.047q-.633.07-1.267.134c-.528.054-1.057.1-1.584.16-.077.008-.121-.007-.15-.082-.066-.17-.137-.337-.215-.526" transform="translate(-242.899 -602.892)" fill="#fff"/>
        <path id="Path_645" data-name="Path 645" d="M69.48,98.052a.857.857,0,0,1,.238.129c.411.4.814.8,1.216,1.211a.413.413,0,1,1-.587.58q-.605-.6-1.205-1.2a.394.394,0,0,1-.094-.461.434.434,0,0,1,.432-.255" transform="translate(-67.318 -95.647)" fill="#fff"/>
        <path id="Path_646" data-name="Path 646" d="M475.208,98.545a.935.935,0,0,1-.135.24c-.4.41-.8.814-1.212,1.216a.41.41,0,0,1-.584.008.4.4,0,0,1-.005-.584q.609-.622,1.231-1.231a.387.387,0,0,1,.453-.08.441.441,0,0,1,.252.431" transform="translate(-461.545 -95.668)" fill="#fff"/>
        <path id="Path_650" data-name="Path 650" d="M474.832,499.541a.422.422,0,0,1,.236-.407.378.378,0,0,1,.435.05,3.213,3.213,0,0,1,.337.337.4.4,0,0,1-.011.527.388.388,0,0,1-.52.078,3.135,3.135,0,0,1-.414-.413.451.451,0,0,1-.063-.172" transform="translate(-463.185 -486.846)" fill="#fff"/>
        <path id="Path_651" data-name="Path 651" d="M107.18,499.463a.928.928,0,0,1-.681.73.4.4,0,0,1-.373-.233.377.377,0,0,1,.049-.435,3.068,3.068,0,0,1,.337-.337.378.378,0,0,1,.435-.05.389.389,0,0,1,.233.325" transform="translate(-103.478 -486.85)" fill="#fff"/>
    </g>
    <line id="Line_80" data-name="Line 80" x1="4.364" transform="translate(9.35 12.966)" fill="none" stroke="#0064c7" stroke-linecap="round" stroke-miterlimit="10" stroke-width="1"/>
    <line id="Line_84" data-name="Line 84" x1="1.385" transform="translate(12.438 17.001)" fill="none" stroke="#0064c7" stroke-linecap="round" stroke-miterlimit="10" stroke-width="1"/>
    <line id="Line_85" data-name="Line 85" x1="1.385" transform="translate(9.35 17.001)" fill="none" stroke="#0064c7" stroke-linecap="round" stroke-miterlimit="10" stroke-width="1"/>
    <line id="Line_81" data-name="Line 81" x1="5.149" transform="translate(8.566 10.733)" fill="none" stroke="#0064c7" stroke-linecap="round" stroke-miterlimit="10" stroke-width="1"/>
    <line id="Line_82" data-name="Line 82" x1="2.264" transform="translate(11.45 8.501)" fill="none" stroke="#0064c7" stroke-linecap="round" stroke-miterlimit="10" stroke-width="1"/>
    <path id="Path_670" data-name="Path 670" d="M3.276,14.545A1.323,1.323,0,0,0,4.6,15.867H16.7a1.325,1.325,0,0,0,1.329-1.321V1.821A1.32,1.32,0,0,0,16.7.5H4.6A1.318,1.318,0,0,0,3.276,1.821V2.929" transform="translate(-1.597 3.786)" fill="none" stroke="#0064c7" stroke-linecap="round" stroke-miterlimit="10" stroke-width="1"/>
    <g id="Ellipse_25" data-name="Ellipse 25" transform="translate(1.118 7.913)" fill="none" stroke="#0064c7" stroke-width="1">
        <ellipse cx="2.128" cy="2.128" rx="2.128" ry="2.128" stroke="none"/>
        <ellipse cx="2.128" cy="2.128" rx="1.628" ry="1.628" fill="none"/>
    </g>
    <g id="Path_671" data-name="Path 671" transform="translate(0 12.41)" fill="none">
        <path d="M3.246,0A3.246,3.246,0,0,1,6.493,3.246C6.493,5.039,0,5.039,0,3.246A3.246,3.246,0,0,1,3.246,0Z" stroke="none"/>
        <path d="M 3.246325254440308 0.9999990463256836 C 2.042849063873291 0.9999990463256836 1.057376384735107 1.951415538787842 1.002408027648926 3.141556739807129 C 1.228699684143066 3.318613052368164 2.018144607543945 3.591009140014648 3.246325254440308 3.591009140014648 C 4.474505424499512 3.591009140014648 5.263950824737549 3.318613052368164 5.490242481231689 3.141556739807129 C 5.435274124145508 1.951415538787842 4.449801445007324 0.9999990463256836 3.246325254440308 0.9999990463256836 M 3.246325254440308 -9.5367431640625e-07 C 5.039225101470947 -9.5367431640625e-07 6.492655277252197 1.453439235687256 6.492655277252197 3.246339321136475 C 6.492655277252197 5.039238929748535 -5.245208740234375e-06 5.039239406585693 -4.76837158203125e-06 3.246339321136475 C -4.76837158203125e-06 1.453439235687256 1.453425407409668 -9.5367431640625e-07 3.246325254440308 -9.5367431640625e-07 Z" stroke="none" fill="#0064c7"/>
    </g>
</svg>
