<svg xmlns="http://www.w3.org/2000/svg" width="17.523" height="17.557" viewBox="0 0 17.523 17.557">
    <g id="Group_145" data-name="Group 145" transform="translate(0.216 0.216)">
        <g id="Group_146" data-name="Group 146" transform="translate(0 0)">
            <path id="Path_677" data-name="Path 677" d="M16.369,7.468l-1.111-.186a.772.772,0,0,1-.615-.539,3.567,3.567,0,0,0-.281-.683.776.776,0,0,1,.064-.847l.654-.858a.775.775,0,0,0-.068-1.025l-.779-.779a.784.784,0,0,0-1.011-.084l-.912.652a.772.772,0,0,1-.793.068,6.061,6.061,0,0,0-.729-.3.782.782,0,0,1-.528-.637l-.143-1.069A.785.785,0,0,0,9.34.5h-1.1a.777.777,0,0,0-.769.654L7.282,2.266a.779.779,0,0,1-.519.609,6.6,6.6,0,0,0-.739.3A.768.768,0,0,1,5.213,3.1l-.857-.654a.776.776,0,0,0-1.026.068l-.779.779A.782.782,0,0,0,2.465,4.3l.658.915a.781.781,0,0,1,.131.579c0,.023-.013.044-.018.066a.768.768,0,0,1-.049.148,5.889,5.889,0,0,0-.3.73.782.782,0,0,1-.637.528l-1.068.143A.782.782,0,0,0,.5,8.183V9.32a.775.775,0,0,0,.654.768l1.111.186a.774.774,0,0,1,.615.538,3.57,3.57,0,0,0,.281.684.776.776,0,0,1-.063.847l-.654.857a.775.775,0,0,0,.068,1.025l.779.779A.786.786,0,0,0,4.3,15.09l.911-.652a.774.774,0,0,1,.794-.068,5.881,5.881,0,0,0,.729.3.783.783,0,0,1,.528.637l.143,1.069a.785.785,0,0,0,.775.679h1.1a.775.775,0,0,0,.768-.654l.186-1.111a.779.779,0,0,1,.52-.609,6.822,6.822,0,0,0,.739-.3.766.766,0,0,1,.811.078l.858.654a.775.775,0,0,0,1.025-.068l.779-.779a.782.782,0,0,0,.086-1.008l-.658-.915a.779.779,0,0,1-.131-.579c0-.023.013-.044.018-.066a.781.781,0,0,1,.049-.148,5.881,5.881,0,0,0,.3-.729.782.782,0,0,1,.637-.528l1.069-.143a.782.782,0,0,0,.679-.775V8.236A.776.776,0,0,0,16.369,7.468ZM8.738,12.512A3.959,3.959,0,0,1,4.824,9.137V9.006A3.959,3.959,0,0,1,12.7,8.42v.131A3.961,3.961,0,0,1,8.738,12.512Z" transform="translate(-0.216 -0.216)" fill="none" stroke="#0064c7" stroke-linecap="round" stroke-miterlimit="10" stroke-width="1"/>
        </g>
    </g>
</svg>
