<svg xmlns="http://www.w3.org/2000/svg" width="17" height="16" viewBox="0 0 17 16">
    <g id="Polygon_2" data-name="Polygon 2" fill="none">
        <path d="M6.734,3.325a2,2,0,0,1,3.532,0l5.173,9.737A2,2,0,0,1,13.673,16H3.327a2,2,0,0,1-1.766-2.938Z" stroke="none"/>
        <path d="M 8.5 6.394486427307129 L 4.99082088470459 13.00000190734863 L 12.00917911529541 13.00000190734863 L 8.5 6.394486427307129 M 8.5 2.262979507446289 C 9.195107460021973 2.262979507446289 9.890214920043945 2.616877555847168 10.2662296295166 3.324671745300293 L 15.43902015686035 13.061692237854 C 16.14669990539551 14.39379215240479 15.18120002746582 16.00000190734863 13.67279052734375 16.00000190734863 L 3.327210426330566 16.00000190734863 C 1.81879997253418 16.00000190734863 0.8533000946044922 14.39379215240479 1.560979843139648 13.061692237854 L 6.733770370483398 3.324671745300293 C 7.109785079956055 2.616877555847168 7.804892539978027 2.262979507446289 8.5 2.262979507446289 Z" stroke="none" fill="#e9c04e"/>
    </g>
</svg>
