<svg width="14" height="12" viewBox="0 0 14 12" fill="none" xmlns="http://www.w3.org/2000/svg">
<g clip-path="url(#clip0_1944_3992)">
<path d="M11.7933 4.58452C11.9144 4.58452 12.0125 4.50042 12.0125 4.39662V2.59289C12.0125 2.48911 11.9144 2.40499 11.7933 2.40499H10.8434V1.79123C10.8434 1.68745 10.7453 1.60334 10.6242 1.60334H7.96663L8.02635 1.44982C8.04861 1.39252 8.03742 1.32952 7.99622 1.28051C7.95501 1.23152 7.88884 1.20248 7.81837 1.20248H7.10229V0.846047L7.5331 0.292148C7.62852 0.169406 7.52221 0 7.35071 0H5.48015C5.30865 0 5.20234 0.169406 5.29777 0.292102L5.72857 0.846023V1.20248H5.01249C4.94203 1.20248 4.87586 1.23152 4.83468 1.28051C4.79347 1.32952 4.78226 1.39252 4.80454 1.44982L4.86424 1.60334H2.20664C2.08559 1.60334 1.98743 1.68743 1.98743 1.79123V10.81C1.98743 10.9138 2.08556 10.9979 2.20664 10.9979H2.92272V11.8121C2.92272 11.9159 3.02086 12 3.14193 12H11.7933C11.9143 12 12.0125 11.9159 12.0125 11.8121V5.19837C12.0125 5.09459 11.9144 5.01047 11.7933 5.01047C11.6722 5.01047 11.5741 5.09456 11.5741 5.19837V11.6242H3.36115V10.9979H4.54486C4.66591 10.9979 4.76408 10.9138 4.76408 10.81C4.76408 10.7063 4.66594 10.6221 4.54486 10.6221H2.42586V1.97913H5.01036L5.27215 2.65233C5.30198 2.72906 5.38576 2.78079 5.4801 2.78079H7.35066C7.44499 2.78079 7.52877 2.72906 7.55861 2.65233L7.82045 1.97913H10.405V10.6221H5.48015C5.3591 10.6221 5.26094 10.7062 5.26094 10.81C5.26094 10.9138 5.35908 10.9979 5.48015 10.9979H10.6242C10.7452 10.9979 10.8434 10.9138 10.8434 10.81V2.78081H11.5741V4.39666C11.5741 4.50042 11.6722 4.58452 11.7933 4.58452ZM5.72857 2.40502H5.63815L5.31664 1.57828H5.72857V2.40502ZM6.66386 2.40502H6.167V1.57828H6.66386V2.40502ZM6.70067 0.684938C6.67666 0.715781 6.66384 0.752086 6.66384 0.789164V1.20253H6.16697V0.789141C6.16697 0.752062 6.15418 0.715758 6.13014 0.684914L5.88971 0.375773H6.9411L6.70067 0.684938ZM7.19269 2.40502H7.10227V1.57828H7.5142L7.19269 2.40502Z" fill="black"/>
<path d="M9.86734 3.08506C9.79695 3.0006 9.66002 2.98103 9.56155 3.0414L8.97287 3.4018V3.19428C8.97287 3.0905 8.87473 3.00639 8.75365 3.00639H6.88309C6.76204 3.00639 6.66388 3.09048 6.66388 3.19428V4.79762C6.66388 4.9014 6.76202 4.98552 6.88309 4.98552H8.75365C8.8747 4.98552 8.97287 4.90142 8.97287 4.79762V3.86356L9.81634 3.34714C9.91489 3.28686 9.93769 3.16951 9.86734 3.08506ZM8.53447 3.67023L8.07591 3.95099L7.73958 3.66268C7.65397 3.58932 7.51517 3.58932 7.42959 3.66268C7.34397 3.73609 7.34397 3.85503 7.42959 3.92842L7.89722 4.32924C7.972 4.39335 8.09352 4.40197 8.17965 4.34926L8.53444 4.13202V4.60974H7.10228V3.38218H8.53444V3.67023H8.53447Z" fill="black"/>
<path d="M5.48021 3.40723H3.37583C3.25478 3.40723 3.15662 3.49132 3.15662 3.59512C3.15662 3.69891 3.25475 3.78302 3.37583 3.78302H5.48021C5.60126 3.78302 5.69942 3.69893 5.69942 3.59512C5.69939 3.49132 5.60126 3.40723 5.48021 3.40723Z" fill="black"/>
<path d="M4.54488 4.20898H3.37577C3.25472 4.20898 3.15656 4.29308 3.15656 4.39688C3.15656 4.50069 3.25469 4.58478 3.37577 4.58478H4.54488C4.66593 4.58478 4.76409 4.50069 4.76409 4.39688C4.76409 4.29308 4.66593 4.20898 4.54488 4.20898Z" fill="black"/>
<path d="M8.75365 5.61182H6.88309C6.76204 5.61182 6.66388 5.69591 6.66388 5.79971V7.40305C6.66388 7.50683 6.76202 7.59095 6.88309 7.59095H8.75365C8.8747 7.59095 8.97287 7.50686 8.97287 7.40305V5.79971C8.97284 5.69591 8.8747 5.61182 8.75365 5.61182ZM8.53444 7.21515H7.10228V5.98759H8.53444V7.21515Z" fill="black"/>
<path d="M5.48021 6.0127H3.37583C3.25478 6.0127 3.15662 6.09679 3.15662 6.20059C3.15662 6.30437 3.25475 6.38849 3.37583 6.38849H5.48021C5.60126 6.38849 5.69942 6.3044 5.69942 6.20059C5.69939 6.09681 5.60126 6.0127 5.48021 6.0127Z" fill="black"/>
<path d="M4.7787 6.81396H3.37577C3.25472 6.81396 3.15656 6.89806 3.15656 7.00186C3.15656 7.10564 3.25469 7.18976 3.37577 7.18976H4.7787C4.89975 7.18976 4.99791 7.10567 4.99791 7.00186C4.99791 6.89806 4.89975 6.81396 4.7787 6.81396Z" fill="black"/>
<path d="M8.75365 8.21729H6.88309C6.76204 8.21729 6.66388 8.30138 6.66388 8.40518V10.0085C6.66388 10.1123 6.76202 10.1964 6.88309 10.1964H8.75365C8.8747 10.1964 8.97287 10.1123 8.97287 10.0085V8.40518C8.97284 8.30138 8.8747 8.21729 8.75365 8.21729ZM8.53444 9.82062H7.10228V8.59306H8.53444V9.82062Z" fill="black"/>
<path d="M5.48021 8.61816H3.37583C3.25478 8.61816 3.15662 8.70226 3.15662 8.80606C3.15662 8.90984 3.25475 8.99396 3.37583 8.99396H5.48021C5.60126 8.99396 5.69942 8.90987 5.69942 8.80606C5.69939 8.70228 5.60126 8.61816 5.48021 8.61816Z" fill="black"/>
<path d="M4.54488 9.41943H3.37577C3.25472 9.41943 3.15656 9.50353 3.15656 9.60733C3.15656 9.71111 3.25469 9.79523 3.37577 9.79523H4.54488C4.66593 9.79523 4.76409 9.71114 4.76409 9.60733C4.76409 9.50353 4.66593 9.41943 4.54488 9.41943Z" fill="black"/>
</g>
<defs>
<clipPath id="clip0_1944_3992">
<rect width="14" height="12" fill="white"/>
</clipPath>
</defs>
</svg>
