<svg width="10" height="10" viewBox="0 0 10 10" fill="none" xmlns="http://www.w3.org/2000/svg">
<path d="M7.22222 0C7.808 0 8.28787 0.429409 8.33029 0.974072L8.33333 1.05263V3.68421H9.16667C9.59982 3.68421 9.9558 3.99732 9.99619 4.39766L10 4.47368V8.42105C10 9.26196 9.30618 9.9493 8.43127 9.99732L8.33333 10H1.11111C0.525354 10 0.0454638 9.57061 0.00304765 9.02593L0 8.94737V1.05263C0 0.497704 0.453265 0.043071 1.02819 0.00288725L1.11111 0H7.22222ZM8.88889 4.73684H8.33333V8.94737C8.64017 8.94737 8.88889 8.71174 8.88889 8.42105V4.73684ZM4.44444 5.26316H2.77778C2.47096 5.26316 2.22222 5.49879 2.22222 5.78947C2.22222 6.05939 2.43669 6.28185 2.71299 6.31225L2.77778 6.31579H4.44444C4.75128 6.31579 5 6.08016 5 5.78947C5 5.51955 4.78554 5.2971 4.50924 5.2667L4.44444 5.26316ZM5.55556 2.63158H2.77778C2.47096 2.63158 2.22222 2.86722 2.22222 3.15789C2.22222 3.44857 2.47096 3.68421 2.77778 3.68421H5.55556C5.86239 3.68421 6.11111 3.44857 6.11111 3.15789C6.11111 2.86722 5.86239 2.63158 5.55556 2.63158Z" fill="black"/>
</svg>
