<svg width="65" height="65" viewBox="0 0 65 65" fill="none" xmlns="http://www.w3.org/2000/svg">
<g filter="url(#filter0_ddii_2464_9184)">
<rect x="17.8774" y="17.3066" width="29.9873" height="29.9873" rx="14.9937" fill="#F0F0F3"/>
<rect x="16.8774" y="16.3066" width="31.9873" height="31.9873" rx="15.9937" stroke="url(#paint0_linear_2464_9184)" stroke-width="2"/>
</g>
<path fill-rule="evenodd" clip-rule="evenodd" d="M25.3743 28.1352V36.465C25.3743 37.3851 26.1201 38.131 27.0402 38.131H38.702C39.622 38.131 40.3679 37.3851 40.3679 36.465V28.1352C40.3679 27.2151 39.622 26.4692 38.702 26.4692H27.0402C26.1201 26.4692 25.3743 27.2151 25.3743 28.1352Z" stroke="#FFA3A3" stroke-width="1.5" stroke-linecap="round" stroke-linejoin="round"/>
<path d="M35.37 30.6343H37.869" stroke="#FFA3A3" stroke-width="1.5" stroke-linecap="round"/>
<path d="M35.37 33.133H37.869" stroke="#FFA3A3" stroke-width="1.5" stroke-linecap="round"/>
<path fill-rule="evenodd" clip-rule="evenodd" d="M32.0381 30.6342C32.0381 31.5543 31.2922 32.3002 30.3722 32.3002C29.4521 32.3002 28.7062 31.5543 28.7062 30.6342C28.7062 29.7141 29.4521 28.9683 30.3722 28.9683C30.814 28.9683 31.2377 29.1438 31.5502 29.4562C31.8626 29.7686 32.0381 30.1924 32.0381 30.6342Z" stroke="#FFA3A3" stroke-width="1.5" stroke-linecap="round" stroke-linejoin="round"/>
<path d="M27.0402 35.632C29.3584 33.0189 32.0814 33.8402 33.7041 35.632" stroke="#FFA3A3" stroke-width="1.5" stroke-linecap="round"/>
<defs>
<filter id="filter0_ddii_2464_9184" x="0.877441" y="0.306641" width="63.9873" height="63.9873" filterUnits="userSpaceOnUse" color-interpolation-filters="sRGB">
<feFlood flood-opacity="0" result="BackgroundImageFix"/>
<feColorMatrix in="SourceAlpha" type="matrix" values="0 0 0 0 0 0 0 0 0 0 0 0 0 0 0 0 0 0 127 0" result="hardAlpha"/>
<feOffset dx="5" dy="5"/>
<feGaussianBlur stdDeviation="5"/>
<feColorMatrix type="matrix" values="0 0 0 0 0.682353 0 0 0 0 0.682353 0 0 0 0 0.752941 0 0 0 0.3 0"/>
<feBlend mode="normal" in2="BackgroundImageFix" result="effect1_dropShadow_2464_9184"/>
<feColorMatrix in="SourceAlpha" type="matrix" values="0 0 0 0 0 0 0 0 0 0 0 0 0 0 0 0 0 0 127 0" result="hardAlpha"/>
<feOffset dx="-5" dy="-5"/>
<feGaussianBlur stdDeviation="5"/>
<feColorMatrix type="matrix" values="0 0 0 0 1 0 0 0 0 1 0 0 0 0 1 0 0 0 1 0"/>
<feBlend mode="normal" in2="effect1_dropShadow_2464_9184" result="effect2_dropShadow_2464_9184"/>
<feBlend mode="normal" in="SourceGraphic" in2="effect2_dropShadow_2464_9184" result="shape"/>
<feColorMatrix in="SourceAlpha" type="matrix" values="0 0 0 0 0 0 0 0 0 0 0 0 0 0 0 0 0 0 127 0" result="hardAlpha"/>
<feOffset dx="2" dy="2"/>
<feGaussianBlur stdDeviation="2"/>
<feComposite in2="hardAlpha" operator="arithmetic" k2="-1" k3="1"/>
<feColorMatrix type="matrix" values="0 0 0 0 1 0 0 0 0 1 0 0 0 0 1 0 0 0 1 0"/>
<feBlend mode="normal" in2="shape" result="effect3_innerShadow_2464_9184"/>
<feColorMatrix in="SourceAlpha" type="matrix" values="0 0 0 0 0 0 0 0 0 0 0 0 0 0 0 0 0 0 127 0" result="hardAlpha"/>
<feOffset dx="-2" dy="-2"/>
<feGaussianBlur stdDeviation="2"/>
<feComposite in2="hardAlpha" operator="arithmetic" k2="-1" k3="1"/>
<feColorMatrix type="matrix" values="0 0 0 0 0 0 0 0 0 0 0 0 0 0 0 0 0 0 0.1 0"/>
<feBlend mode="normal" in2="effect3_innerShadow_2464_9184" result="effect4_innerShadow_2464_9184"/>
</filter>
<linearGradient id="paint0_linear_2464_9184" x1="17.8774" y1="17.3066" x2="47.8648" y2="47.294" gradientUnits="userSpaceOnUse">
<stop stop-opacity="0.05"/>
<stop offset="1" stop-color="white" stop-opacity="0.05"/>
</linearGradient>
</defs>
</svg>
