<svg width="65" height="65" viewBox="0 0 65 65" fill="none" xmlns="http://www.w3.org/2000/svg">
<g filter="url(#filter0_ddii_2464_9172)">
<rect x="17.6723" y="17.3066" width="29.9873" height="29.9873" rx="14.9937" fill="#F0F0F3"/>
<rect x="16.6723" y="16.3066" width="31.9873" height="31.9873" rx="15.9937" stroke="url(#paint0_linear_2464_9172)" stroke-width="2"/>
</g>
<path d="M26.0851 28.1352C26.0851 28.5494 26.4209 28.8852 26.8351 28.8852C27.2493 28.8852 27.5851 28.5494 27.5851 28.1352H26.0851ZM27.7514 27.2098L27.4659 26.5162C27.4567 26.52 27.4476 26.524 27.4386 26.5281L27.7514 27.2098ZM30.1945 26.5959L30.2708 27.342C30.2761 27.3414 30.2814 27.3408 30.2867 27.3402L30.1945 26.5959ZM32.277 26.4693L32.2757 27.2193H32.277V26.4693ZM33.0542 26.4693V27.2193L33.0554 27.2193L33.0542 26.4693ZM35.1366 26.5959L35.0445 27.3402C35.0498 27.3409 35.0551 27.3415 35.0604 27.342L35.1366 26.5959ZM37.5806 27.2098L37.8934 26.5281C37.8843 26.524 37.8752 26.52 37.866 26.5162L37.5806 27.2098ZM37.7468 28.1352C37.7468 28.5494 38.0826 28.8852 38.4968 28.8852C38.9111 28.8852 39.2468 28.5494 39.2468 28.1352H37.7468ZM27.5851 28.1352C27.5851 27.721 27.2493 27.3852 26.8351 27.3852C26.4209 27.3852 26.0851 27.721 26.0851 28.1352H27.5851ZM28.4294 29.3131L28.2101 30.0303C28.2172 30.0324 28.2243 30.0345 28.2315 30.0365L28.4294 29.3131ZM32.277 29.8012V29.0511L32.2659 29.0513L32.277 29.8012ZM33.0542 29.8012L33.0652 29.0512H33.0542V29.8012ZM36.9025 29.3131L37.1005 30.0365C37.1077 30.0345 37.1148 30.0324 37.1219 30.0303L36.9025 29.3131ZM39.2468 28.1352C39.2468 27.721 38.9111 27.3852 38.4968 27.3852C38.0826 27.3852 37.7468 27.721 37.7468 28.1352H39.2468ZM27.5851 28.1352C27.5851 27.721 27.2493 27.3852 26.8351 27.3852C26.4209 27.3852 26.0851 27.721 26.0851 28.1352H27.5851ZM26.0851 32.3001C26.0851 32.7143 26.4209 33.0501 26.8351 33.0501C27.2493 33.0501 27.5851 32.7143 27.5851 32.3001H26.0851ZM39.2468 28.1352C39.2468 27.721 38.9111 27.3852 38.4968 27.3852C38.0826 27.3852 37.7468 27.721 37.7468 28.1352H39.2468ZM37.7468 32.3001C37.7468 32.7143 38.0826 33.0501 38.4968 33.0501C38.9111 33.0501 39.2468 32.7143 39.2468 32.3001H37.7468ZM27.5851 32.3001C27.5851 31.8859 27.2493 31.5501 26.8351 31.5501C26.4209 31.5501 26.0851 31.8859 26.0851 32.3001H27.5851ZM28.4294 33.478L28.2101 34.1952C28.2172 34.1973 28.2243 34.1994 28.2315 34.2014L28.4294 33.478ZM32.277 33.9661V33.216L32.2659 33.2162L32.277 33.9661ZM33.0542 33.9661L33.0652 33.2161H33.0542V33.9661ZM36.9025 33.478L37.1005 34.2014C37.1077 34.1994 37.1148 34.1973 37.1219 34.1952L36.9025 33.478ZM39.2468 32.3001C39.2468 31.8859 38.9111 31.5501 38.4968 31.5501C38.0826 31.5501 37.7468 31.8859 37.7468 32.3001H39.2468ZM27.5851 32.3001C27.5851 31.8859 27.2493 31.5501 26.8351 31.5501C26.4209 31.5501 26.0851 31.8859 26.0851 32.3001H27.5851ZM28.4294 37.6429L28.2101 38.3601C28.2172 38.3622 28.2243 38.3643 28.2315 38.3663L28.4294 37.6429ZM32.277 38.131V37.3809L32.2659 37.3811L32.277 38.131ZM33.0542 38.131L33.0652 37.381H33.0542V38.131ZM36.9025 37.6429L37.1005 38.3663C37.1077 38.3643 37.1148 38.3622 37.1219 38.3601L36.9025 37.6429ZM39.2468 32.3001C39.2468 31.8859 38.9111 31.5501 38.4968 31.5501C38.0826 31.5501 37.7468 31.8859 37.7468 32.3001H39.2468ZM27.5851 28.1352C27.5851 28.2271 27.5373 28.2434 27.6014 28.1789C27.6693 28.1105 27.8108 28.0077 28.0642 27.8914L27.4386 26.5281C27.0948 26.6859 26.7781 26.8792 26.5372 27.1218C26.2925 27.3681 26.0851 27.7102 26.0851 28.1352H27.5851ZM28.0369 27.9033C28.7506 27.6095 29.503 27.4205 30.2708 27.342L30.1183 25.8498C29.2066 25.9429 28.3133 26.1674 27.4659 26.5162L28.0369 27.9033ZM30.2867 27.3402C30.9465 27.2585 31.6108 27.2181 32.2757 27.2193L32.2783 25.7193C31.5509 25.718 30.8242 25.7622 30.1024 25.8516L30.2867 27.3402ZM32.277 27.2193H33.0542V25.7193H32.277V27.2193ZM33.0554 27.2193C33.7203 27.2181 34.3846 27.2585 35.0445 27.3402L35.2287 25.8516C34.5069 25.7622 33.7802 25.718 33.0529 25.7193L33.0554 27.2193ZM35.0604 27.342C35.8285 27.4204 36.5812 27.6095 37.2951 27.9033L37.866 26.5162C37.0184 26.1673 36.1247 25.9429 35.2128 25.8498L35.0604 27.342ZM37.2678 27.8914C37.5212 28.0077 37.6627 28.1105 37.7306 28.1789C37.7947 28.2434 37.7468 28.2271 37.7468 28.1352H39.2468C39.2468 27.7102 39.0395 27.3681 38.7948 27.1218C38.5539 26.8792 38.2372 26.6859 37.8934 26.5281L37.2678 27.8914ZM26.0851 28.1352C26.0851 28.7046 26.4524 29.1162 26.8036 29.3757C27.1694 29.6461 27.6571 29.8611 28.2101 30.0303L28.6488 28.5959C28.1806 28.4526 27.871 28.2995 27.6951 28.1694C27.5044 28.0285 27.5851 28.0074 27.5851 28.1352H26.0851ZM28.2315 30.0365C29.5527 30.398 30.9184 30.5713 32.288 30.5511L32.2659 29.0513C31.0374 29.0694 29.8125 28.914 28.6274 28.5897L28.2315 30.0365ZM32.277 30.5512H33.0542V29.0512H32.277V30.5512ZM33.0431 30.5511C34.413 30.5714 35.779 30.3981 37.1005 30.0365L36.7046 28.5897C35.5192 28.914 34.294 29.0694 33.0652 29.0513L33.0431 30.5511ZM37.1219 30.0303C37.6747 29.8612 38.1623 29.6464 38.5283 29.3761C38.8798 29.1165 39.2468 28.7048 39.2468 28.1352H37.7468C37.7468 28.008 37.8273 28.029 37.637 28.1696C37.4611 28.2995 37.1516 28.4526 36.6831 28.5959L37.1219 30.0303ZM26.0851 28.1352V32.3001H27.5851V28.1352H26.0851ZM37.7468 28.1352V32.3001H39.2468V28.1352H37.7468ZM26.0851 32.3001C26.0851 32.8695 26.4524 33.2811 26.8036 33.5406C27.1694 33.811 27.6571 34.026 28.2101 34.1952L28.6488 32.7608C28.1806 32.6175 27.871 32.4644 27.6951 32.3343C27.5044 32.1934 27.5851 32.1723 27.5851 32.3001H26.0851ZM28.2315 34.2014C29.5527 34.5629 30.9184 34.7362 32.288 34.716L32.2659 33.2162C31.0374 33.2343 29.8125 33.0789 28.6274 32.7546L28.2315 34.2014ZM32.277 34.7161H33.0542V33.2161H32.277V34.7161ZM33.0431 34.716C34.413 34.7363 35.779 34.563 37.1005 34.2014L36.7046 32.7546C35.5192 33.0789 34.294 33.2344 33.0652 33.2162L33.0431 34.716ZM37.1219 34.1952C37.6747 34.0261 38.1623 33.8114 38.5283 33.541C38.8798 33.2814 39.2468 32.8697 39.2468 32.3001H37.7468C37.7468 32.1729 37.8273 32.1939 37.637 32.3345C37.4611 32.4644 37.1516 32.6175 36.6831 32.7608L37.1219 34.1952ZM26.0851 32.3001V36.465H27.5851V32.3001H26.0851ZM26.0851 36.465C26.0851 37.0344 26.4524 37.446 26.8036 37.7055C27.1694 37.9759 27.6571 38.1909 28.2101 38.3601L28.6488 36.9257C28.1806 36.7825 27.871 36.6293 27.6951 36.4992C27.5044 36.3583 27.5851 36.3372 27.5851 36.465H26.0851ZM28.2315 38.3663C29.5527 38.7278 30.9184 38.9011 32.288 38.8809L32.2659 37.3811C31.0374 37.3992 29.8125 37.2438 28.6274 36.9195L28.2315 38.3663ZM32.277 38.881H33.0542V37.381H32.277V38.881ZM33.0431 38.8809C34.413 38.9012 35.779 38.7279 37.1005 38.3663L36.7046 36.9195C35.5192 37.2439 34.294 37.3993 33.0652 37.3811L33.0431 38.8809ZM37.1219 38.3601C37.6749 38.1909 38.1625 37.9759 38.5284 37.7055C38.8796 37.446 39.2468 37.0344 39.2468 36.465H37.7468C37.7468 36.3372 37.8276 36.3583 37.6369 36.4992C37.4609 36.6293 37.1514 36.7825 36.6831 36.9257L37.1219 38.3601ZM39.2468 36.465V32.3001H37.7468V36.465H39.2468Z" fill="#DDC700"/>
<defs>
<filter id="filter0_ddii_2464_9172" x="0.672302" y="0.306641" width="63.9873" height="63.9873" filterUnits="userSpaceOnUse" color-interpolation-filters="sRGB">
<feFlood flood-opacity="0" result="BackgroundImageFix"/>
<feColorMatrix in="SourceAlpha" type="matrix" values="0 0 0 0 0 0 0 0 0 0 0 0 0 0 0 0 0 0 127 0" result="hardAlpha"/>
<feOffset dx="5" dy="5"/>
<feGaussianBlur stdDeviation="5"/>
<feColorMatrix type="matrix" values="0 0 0 0 0.682353 0 0 0 0 0.682353 0 0 0 0 0.752941 0 0 0 0.3 0"/>
<feBlend mode="normal" in2="BackgroundImageFix" result="effect1_dropShadow_2464_9172"/>
<feColorMatrix in="SourceAlpha" type="matrix" values="0 0 0 0 0 0 0 0 0 0 0 0 0 0 0 0 0 0 127 0" result="hardAlpha"/>
<feOffset dx="-5" dy="-5"/>
<feGaussianBlur stdDeviation="5"/>
<feColorMatrix type="matrix" values="0 0 0 0 1 0 0 0 0 1 0 0 0 0 1 0 0 0 1 0"/>
<feBlend mode="normal" in2="effect1_dropShadow_2464_9172" result="effect2_dropShadow_2464_9172"/>
<feBlend mode="normal" in="SourceGraphic" in2="effect2_dropShadow_2464_9172" result="shape"/>
<feColorMatrix in="SourceAlpha" type="matrix" values="0 0 0 0 0 0 0 0 0 0 0 0 0 0 0 0 0 0 127 0" result="hardAlpha"/>
<feOffset dx="2" dy="2"/>
<feGaussianBlur stdDeviation="2"/>
<feComposite in2="hardAlpha" operator="arithmetic" k2="-1" k3="1"/>
<feColorMatrix type="matrix" values="0 0 0 0 1 0 0 0 0 1 0 0 0 0 1 0 0 0 1 0"/>
<feBlend mode="normal" in2="shape" result="effect3_innerShadow_2464_9172"/>
<feColorMatrix in="SourceAlpha" type="matrix" values="0 0 0 0 0 0 0 0 0 0 0 0 0 0 0 0 0 0 127 0" result="hardAlpha"/>
<feOffset dx="-2" dy="-2"/>
<feGaussianBlur stdDeviation="2"/>
<feComposite in2="hardAlpha" operator="arithmetic" k2="-1" k3="1"/>
<feColorMatrix type="matrix" values="0 0 0 0 0 0 0 0 0 0 0 0 0 0 0 0 0 0 0.1 0"/>
<feBlend mode="normal" in2="effect3_innerShadow_2464_9172" result="effect4_innerShadow_2464_9172"/>
</filter>
<linearGradient id="paint0_linear_2464_9172" x1="17.6723" y1="17.3066" x2="47.6596" y2="47.294" gradientUnits="userSpaceOnUse">
<stop stop-opacity="0.05"/>
<stop offset="1" stop-color="white" stop-opacity="0.05"/>
</linearGradient>
</defs>
</svg>
