<svg width="21" height="21" viewBox="0 0 21 21" fill="none" xmlns="http://www.w3.org/2000/svg">
<path fill-rule="evenodd" clip-rule="evenodd" d="M12.8885 9.69834C12.8885 11.0133 11.6804 12.0793 10.1901 12.0793C8.69982 12.0793 7.4917 11.0133 7.4917 9.69834C7.4917 8.38337 8.69982 7.31738 10.1901 7.31738C11.6804 7.31738 12.8885 8.38337 12.8885 9.69834Z" stroke="#00447D" stroke-width="1.5" stroke-linecap="round" stroke-linejoin="round"/>
<path d="M12.8887 2.39286C12.4745 2.39286 12.1387 2.72864 12.1387 3.14286C12.1387 3.55707 12.4745 3.89286 12.8887 3.89286V2.39286ZM7.49188 3.89286C7.9061 3.89286 8.24188 3.55707 8.24188 3.14286C8.24188 2.72864 7.9061 2.39286 7.49188 2.39286V3.89286ZM13.639 3.14286C13.639 2.72864 13.3032 2.39286 12.889 2.39286C12.4748 2.39286 12.139 2.72864 12.139 3.14286H13.639ZM12.139 4.33333C12.139 4.74755 12.4748 5.08333 12.889 5.08333C13.3032 5.08333 13.639 4.74755 13.639 4.33333H12.139ZM12.1387 3.14658C12.1387 3.56079 12.4745 3.89658 12.8887 3.89658C13.3029 3.89658 13.6387 3.56079 13.6387 3.14658H12.1387ZM13.6387 0.765625C13.6387 0.351411 13.3029 0.015625 12.8887 0.015625C12.4745 0.015625 12.1387 0.351411 12.1387 0.765625H13.6387ZM12.8887 3.89658C13.3029 3.89658 13.6387 3.56079 13.6387 3.14658C13.6387 2.73236 13.3029 2.39658 12.8887 2.39658V3.89658ZM7.49188 2.39658C7.07767 2.39658 6.74188 2.73236 6.74188 3.14658C6.74188 3.56079 7.07767 3.89658 7.49188 3.89658V2.39658ZM8.24188 3.14286C8.24188 2.72864 7.9061 2.39286 7.49188 2.39286C7.07767 2.39286 6.74188 2.72864 6.74188 3.14286H8.24188ZM6.74188 4.33333C6.74188 4.74755 7.07767 5.08333 7.49188 5.08333C7.9061 5.08333 8.24188 4.74755 8.24188 4.33333H6.74188ZM6.74188 3.14658C6.74188 3.56079 7.07767 3.89658 7.49188 3.89658C7.9061 3.89658 8.24188 3.56079 8.24188 3.14658H6.74188ZM8.24188 0.765625C8.24188 0.351411 7.9061 0.015625 7.49188 0.015625C7.07767 0.015625 6.74188 0.351411 6.74188 0.765625H8.24188ZM1.68223 17.4014C1.33641 17.6294 1.2409 18.0945 1.4689 18.4404C1.69689 18.7862 2.16206 18.8817 2.50788 18.6537L1.68223 17.4014ZM17.8727 18.6537C18.2185 18.8817 18.6837 18.7862 18.9117 18.4404C19.1397 18.0945 19.0442 17.6294 18.6984 17.4014L17.8727 18.6537ZM12.8887 3.89286H14.2379V2.39286H12.8887V3.89286ZM14.2379 3.89286C16.8953 3.89286 18.8847 5.77451 18.8847 7.90476H20.3847C20.3847 4.77516 17.5417 2.39286 14.2379 2.39286V3.89286ZM18.8847 7.90476V15.0476H20.3847V7.90476H18.8847ZM18.8847 15.0476C18.8847 17.1779 16.8953 19.0595 14.2379 19.0595V20.5595C17.5417 20.5595 20.3847 18.1772 20.3847 15.0476H18.8847ZM14.2379 19.0595H6.14267V20.5595H14.2379V19.0595ZM6.14267 19.0595C3.48533 19.0595 1.49585 17.1779 1.49585 15.0476H-0.00415039C-0.00415039 18.1772 2.83885 20.5595 6.14267 20.5595V19.0595ZM1.49585 15.0476V7.90476H-0.00415039V15.0476H1.49585ZM1.49585 7.90476C1.49585 5.77451 3.48533 3.89286 6.14267 3.89286V2.39286C2.83885 2.39286 -0.00415039 4.77516 -0.00415039 7.90476H1.49585ZM6.14267 3.89286H7.49188V2.39286H6.14267V3.89286ZM12.139 3.14286V4.33333H13.639V3.14286H12.139ZM13.6387 3.14658V0.765625H12.1387V3.14658H13.6387ZM12.8887 2.39658H7.49188V3.89658H12.8887V2.39658ZM6.74188 3.14286V4.33333H8.24188V3.14286H6.74188ZM8.24188 3.14658V0.765625H6.74188V3.14658H8.24188ZM2.50788 18.6537C7.05819 15.6537 13.3224 15.6537 17.8727 18.6537L18.6984 17.4014C13.6471 14.0711 6.73344 14.0711 1.68223 17.4014L2.50788 18.6537Z" fill="#00447D"/>
</svg>
