<?xml version="1.0" encoding="UTF-8"?>
<svg id="Layer_2" data-name="Layer 2" xmlns="http://www.w3.org/2000/svg" xmlns:xlink="http://www.w3.org/1999/xlink" viewBox="0 0 964.22 968.97">
  <defs>
    <style>
      .cls-1 {
        fill: url(#linear-gradient);
      }

      .cls-1, .cls-2, .cls-3, .cls-4, .cls-5, .cls-6, .cls-7, .cls-8, .cls-9, .cls-10, .cls-11, .cls-12, .cls-13, .cls-14 {
        stroke-width: 0px;
      }

      .cls-2 {
        fill: #faab7b;
      }

      .cls-3 {
        fill: #0f0808;
      }

      .cls-4 {
        fill: #e0e5e5;
      }

      .cls-5 {
        fill: #060505;
      }

      .cls-6 {
        opacity: .19;
      }

      .cls-6, .cls-10 {
        fill: #030202;
      }

      .cls-7 {
        fill: none;
      }

      .cls-8 {
        fill: #d6d8d7;
      }

      .cls-15 {
        opacity: .32;
      }

      .cls-9 {
        fill: #272727;
      }

      .cls-16 {
        clip-path: url(#clippath);
      }

      .cls-11 {
        fill: url(#radial-gradient);
      }

      .cls-12 {
        fill: #0b3e79;
      }

      .cls-13 {
        fill: #f8906a;
      }

      .cls-14 {
        fill: #525252;
      }
    </style>
    <radialGradient id="radial-gradient" cx="500.89" cy="425.76" fx="500.89" fy="425.76" r="507.03" gradientUnits="userSpaceOnUse">
      <stop offset="0" stop-color="#fff"/>
      <stop offset="1" stop-color="#d1d1d1"/>
    </radialGradient>
    <clipPath id="clippath">
      <circle class="cls-7" cx="482.11" cy="486.86" r="482.11"/>
    </clipPath>
    <linearGradient id="linear-gradient" x1="472.6" y1="712.62" x2="472.6" y2="365.73" gradientUnits="userSpaceOnUse">
      <stop offset="0" stop-color="#faab7b"/>
      <stop offset="1" stop-color="#b5411d"/>
    </linearGradient>
  </defs>
  <g id="Layer_1-2" data-name="Layer 1">
    <circle class="cls-11" cx="482.11" cy="482.11" r="482.11"/>
    <g class="cls-16">
      <g>
        <g>
          <g>
            <g>
              <path class="cls-1" d="M363.25,500.27c-.16,1.8-.44,3.6-.45,5.4-.08,11.55-.1,53.79-.14,65.34,8.84,29.11,29.88,48.39,52.91,66.23,7.57,5.87,14.53,12.57,21.46,19.21,10.75,10.3,21.42,20.7,30.62,32.48,1.21,1.55,2.77,2.9,3.05,5.02,2.11.5,3.41-1.04,4.94-1.99,6.25-9.24,14.08-17.09,21.89-24.97,14.46-14.57,30.14-27.71,45.89-40.87,14.93-12.47,28.14-26.86,35.72-45.37,1.3-3.18,2.28-6.5,3.41-9.76-.03-11.05-.03-52.79-.12-63.83-.01-1.7.7-3.71-1.28-4.95-.21-.09-.44-.13-.67-.12,0,0-35.68,51.94-120.11,48.63-61.89-2.42-97.1-50.45-97.1-50.45Z"/>
              <path class="cls-8" d="M565.83,774.82c-1.2,2.96-4.04,5.82-.57,9.08.03.83.14,1.66.08,2.49-1.55,23.41-3.44,46.82-4.61,70.25-1.73,34.76-3.07,69.54-4.35,104.31-.07,1.86-.14,3.71-.21,5.57-25.16,4.08-50.98,6.19-77.29,6.19-30.17,0-59.69-2.78-88.32-8.09-.2-2.26-.44-4.51-.7-6.77-1.64-14.24-1.64-28.68-2.19-43.04-.59-15.59.48-31.17-.77-46.8-1.06-13.35-.12-26.84-1.11-40.26-.51-6.91-1.01-13.84-1.3-20.77-.57-13.69-2.26-27.33-1.67-41.06,4.78-1.35,9.1-3.25,12.68-7.06,4.06-4.32,9.98-6.87,13.28-11.86,3.83-5.78,7.67-11.55,11.89-17.04,12.53-16.3,27.34-29.4,48.12-34.04,1.18-.26,1.69-.91,1.9-1.97,2.11.49,3.41-1.04,4.94-1.99,3.77.99,7.59,1.84,9.72,5.72.32.59,1.43.97,2.21,1.03,8.29.66,14.04,6.56,20.15,10.86,9.18,6.44,16.73,15.34,21.51,25.48,5.12,10.86,13.46,18.34,22.17,25.64,4.46,3.73,10.62,5.09,14.98,9.22.14,1.68.3,3.35-.54,4.91Z"/>
              <path class="cls-12" d="M390.56,964.62c-138.29-25.65-255.82-110.42-325.38-227.11,3.7-1.65,12.8-22.99,42.36-38.45,66.94-35.01,187.44-82.04,222.65-101.9,4.05-2.29,13.82-8.8,13.82-8.8,0,0,2.88-.98,3.48-1.28-.09,8.79,1.02,17.48,3.35,25.9,1.04,3.75.57,7.46,1.3,11.17,1.96,9.93,5.55,19.32,8.45,28.94,9.7,32.17,16.81,64.92,20.33,98.42.5,4.75-.65,9.89,1.9,14.41-.59,13.73,1.1,27.37,1.67,41.06.29,6.93.79,13.86,1.3,20.77.99,13.42.05,26.91,1.11,40.26,1.25,15.63.18,31.21.77,46.8.55,14.36.55,28.8,2.19,43.04.26,2.26.5,4.51.7,6.77Z"/>
              <path class="cls-12" d="M879.19,737.02c-35.03-15.6-274.15-146.15-281.41-149.94-.46,11.42.01,22.89-2.16,34.22-1.47,7.7-3.61,15.14-7.05,22.21-5.86,12.06-8.38,25.04-10.9,38.1-2.55,13.2-4.53,26.46-6.09,39.79-1.88,16.15-3.48,32.34-5.21,48.51.14,1.68.3,3.35-.54,4.91-.19,3.03-.38,6.05-.57,9.08.03.83.14,1.66.08,2.49-1.55,23.41-3.44,46.82-4.61,70.25-1.73,34.76-3.07,69.54-4.35,104.31-.07,1.86-.14,3.71-.21,5.57,141.3-22.79,262-107.11,333.76-224.59-3.56-1.67-7.14-3.31-10.74-4.91Z"/>
              <path class="cls-4" d="M475.63,691.96c6.25-9.24,14.08-17.09,21.89-24.97,14.46-14.57,30.14-27.71,45.89-40.87,14.93-12.47,28.14-26.86,35.72-45.37,1.3-3.18,2.28-6.5,3.41-9.76,6.22.43,6.97,6.66,10.47,9.98,1.85,1.76,3.2,4.06,4.77,6.11-.46,11.42.01,22.89-2.16,34.22-1.48,7.7-3.62,15.14-7.05,22.22-5.86,12.06-8.38,25.03-10.9,38.09-2.55,13.2-4.52,26.46-6.08,39.79-1.89,16.16-3.49,32.34-5.21,48.52-4.36-4.14-10.52-5.49-14.98-9.23-8.71-7.3-17.05-14.78-22.17-25.64-4.78-10.14-12.33-19.04-21.51-25.49-6.11-4.29-11.86-10.2-20.15-10.85-.78-.06-1.89-.45-2.21-1.03-2.13-3.88-5.94-4.74-9.72-5.72Z"/>
              <path class="cls-4" d="M362.66,571.01c8.84,29.11,29.88,48.39,52.91,66.23,7.57,5.87,14.53,12.57,21.46,19.21,10.75,10.3,21.42,20.7,30.62,32.48,1.21,1.55,2.77,2.9,3.05,5.02-.21,1.07-.72,1.71-1.9,1.98-20.78,4.64-35.59,17.74-48.12,34.04-4.22,5.49-8.06,11.26-11.88,17.04-3.3,4.99-9.22,7.53-13.28,11.86-3.58,3.81-7.9,5.71-12.68,7.06-2.55-4.52-1.4-9.66-1.9-14.4-3.52-33.51-10.63-66.25-20.33-98.42-2.9-9.63-6.49-19.02-8.45-28.94-.73-3.71-.26-7.42-1.3-11.17-2.33-8.42-3.44-17.11-3.35-25.89,4.61-5.78,8.23-12.49,15.17-16.08Z"/>
              <path class="cls-4" d="M565.83,774.82c-.19,3.03-.38,6.05-.58,9.08-3.47-3.26-.63-6.12.58-9.08Z"/>
              <path class="cls-14" d="M777.82,932.51c-.41.14-.82.27-1.23.41l-.06-.07c.35-.23.69-.47,1.05-.68,0,0,.15.22.24.34Z"/>
              <path class="cls-2" d="M170.81,753.32s-.04-.01-.06-.01c0,.02,0,.04,0,.06l.07-.05Z"/>
            </g>
            <path class="cls-2" d="M614.09,249.1c-4.17-16.14-7.26-33.18-23.99-42.31-.62-.39-1.24-.78-1.86-1.18-17.91-7.02-36.2-8.73-55-4.08-16.58,4.09-32.87,2.48-49.06-2.47-9.24-2.83-17.78-7.31-26.83-10.55-.77-.25-1.53-.5-2.29-.74-1.46-.24-2.97-.33-4.38-.74-16.32-4.67-32.04-3.25-47.2,4.42-4.26,2.15-8.6,4.15-12.91,6.22-1.48,1.45-3.22,2.47-5.15,3.18-1.79,1.64-3.75,3.02-6,3.94-.68,1-1.57,1.7-2.77,1.94-2.71,2.59-5.81,4.58-9.24,6.06-.33.3-.67.59-1.01.88-7.76,4.76-14.38,11.66-24.04,12.91-1.12,1.02-2.5,1.05-3.9.98-10.74,33.73-8.83,68.24-6.29,102.78.6,8.1,2.62,16.29,1.94,24.27-.53,6.29-.94,12.52-.81,18.68-1.04-.04-1.63-.05-1.63-.05,0,0-6.49,30.67,10.99,89.17,2.3,9.11,5.31,17.91,8.93,26.47,0,0,0,0,0,0,1.93,5.14,3.87,9.28,5.81,12.54,2.37,4.72,4.9,9.37,7.58,13.95,5.81,8.48,11.47,17.07,18.45,24.66.19.2.36.41.54.63.19.23.37.47.56.71.16.21.32.42.49.62.17.22.35.44.54.64.75.81,1.62,1.48,2.85,1.71.07-.94.15-1.89.25-2.98,3.19,1.21,4.5,4.04,6.34,6.32,16.93,20.87,39.39,31.14,65.64,33.45,20.06,1.77,39.92.52,58.77-7.68,1.36-.59,2.63-1.37,3.95-2.06,1.35-2.39,2.72-4.78,5.84-5.17.31-.35.63-.7.94-1.05,0,0,0,0,0,0,.13.13.25.27.37.41-.36.3-.71.6-1.07.9-.35.74-.69,1.49-1.04,2.23,10.19-4.91,18.37-12.19,25.03-21.26,3.65-1.77,3.6-6.89,7.58-8.36-.46,1.93-.91,3.86-1.7,7.18,9.52-9.45,16.64-18.91,22.88-29.08.23-.01.46.03.67.12,1.18-3.12,3.72-5.56,4.4-8.92-5.44,3.96-10.32,8.5-14.9,13.34,4.58-4.84,9.46-9.38,14.9-13.34.71-1.11,1.52-2.17,2.13-3.34,18.23-35.54,26.26-73.53,27.14-113.23-.86-1.16.61-3.2-1.32-3.82-.41-.13-1.21.95-1.83,1.47-5.84,16.12-12.18,32-20.98,46.81-9.3,15.65-20.24,29.95-34.49,42.69,0,0,0,0,0,0,14.21-12.72,25.13-27,34.41-42.62,8.8-14.81,15.14-30.69,20.98-46.81.96-4.67,1.92-9.34,2.88-14.01,1.24-5.97-2.82-11.18-2.66-16.81.74-26.21,1.95-52.42,3.19-78.61.5-10.65-.03-20.95-2.63-31.02Z"/>
            <path class="cls-9" d="M525.38,565.68c.31-.35.63-.69.94-1.04.13.13.25.27.37.41-.36.3-.71.6-1.07.9l-.24-.26Z"/>
            <path class="cls-10" d="M452.5,503.66c-.42.52-.84,1.05-1.25,1.58.05-.82.52-1.3,1.25-1.58Z"/>
            <path class="cls-10" d="M493.62,508.84c-.32-.49-.64-.98-.97-1.47.32.49.65.98.97,1.47Z"/>
            <path class="cls-10" d="M630.43,178c7.06,12.4,9.63,26.08,11.02,40,2.56,25.67.67,51.12-4.53,76.36-1,4.86-1.65,9.79-2.46,14.69-.34.54-.86,1.04-1,1.63-3.96,16.97-10.13,33.24-15.53,49.76-1.76,5.37-4.91,10.49-4.4,16.5-.36-.67-.73-1.35-1.09-2.02,1.24-5.96-2.82-11.18-2.66-16.81.74-26.21,1.95-52.42,3.19-78.6.5-10.66-.02-20.95-2.63-31.02-4.17-16.14-7.26-33.18-23.99-42.31.89-2.4,4.12-3.23,4.16-6.21,0,0,0,0,0,0,3.57-.87,5.2-4.3,8.06-6.11,3.34-2.39,7.07-4.32,9.47-7.84,1.6-.01,3.79-.69,2.86-2.23-1.43-2.37.31-2.95,1.28-3.98,2.4-2.54,5.01-4.88,7.37-7.46,1.56-1.7,2.39-1.94,4.13.08,1.87,2.17,3.43,5.03,6.74,5.58Z"/>
            <path class="cls-5" d="M334.28,354.25c.68-7.98-1.34-16.16-1.94-24.27-2.54-34.54-4.45-69.05,6.29-102.78-9.8,2.09-19.21.19-28.51-2.8-1.55-.5-2.97-1.46-4.71-1.18-.61,16.61-.05,33.16,1.96,49.68,1.49,12.18,4.3,24.11,6.32,36.19,5.63,22.95,11.23,45.91,16.93,68.85l3.66-23.69Z"/>
            <path class="cls-13" d="M313.69,307c5.63,22.95,11.23,45.91,16.93,68.85.93,3.74,1.65,7.43.93,11.27-6.16,0-10.15-3.96-13.57-8.19-8.97-11.09-15.09-23.76-19.34-37.34-1.14-3.63-2.28-7.26-3.14-10.96-3.47-14.95,3.1-23.42,18.2-23.62Z"/>
            <path class="cls-13" d="M613.54,376.94c-.5-6.01,2.65-11.12,4.4-16.5,5.4-16.52,11.57-32.79,15.53-49.76.14-.59.66-1.09,1-1.63,8.87-.29,14.04,4.18,14.88,13.1.26,2.79.53,5.75-.07,8.43-4.12,18.46-11.1,35.69-22.99,50.61-3.22,4.04-7.22,7.3-12.76,7.8,0-4.02,0-8.03,0-12.05Z"/>
            <path class="cls-2" d="M613.54,376.94c0,4.02,0,8.03,0,12.05-.27.76-.54,1.53-.81,2.29-.86-1.16.61-3.2-1.32-3.82-.41-.13-1.21.94-1.83,1.46.96-4.67,1.92-9.34,2.88-14.01.36.67.73,1.35,1.09,2.02Z"/>
            <path class="cls-3" d="M444.48,295.79l-2.84,15.6-2.36-5.39-3.38,3.36-12.82-1.36c-7.26-2.28-15.03-3.18-22.94-2.44l-27.36-2.9c-8.71-1.49-17.43-1.04-27.46-2.49,3.93-2.18,6.4-4.04,9.19-5.02,12.79-4.46,25.69-9.56,39.54-6.27,4,.95,3.08-3.02,5.02-3.07,14.26-.41,28.55-.75,41.54,6.69,1.46.84,3.18,1.89,3.88,3.29Z"/>
            <path class="cls-3" d="M493.09,295.79l2.84,15.6,2.36-5.39,3.38,3.36,12.82-1.36c7.26-2.28,15.03-3.18,22.94-2.44l27.36-2.9c8.71-1.49,17.43-1.04,27.46-2.49-3.93-2.18-6.4-4.04-9.19-5.02-12.79-4.46-25.69-9.56-39.54-6.27-4,.95-3.08-3.02-5.02-3.07-14.26-.41-28.55-.75-41.54,6.69-1.46.84-3.18,1.89-3.88,3.29Z"/>
            <path class="cls-3" d="M456.58,295.79l-2.84,15.6-2.36-5.39-3.38,3.36-12.82-1.36c-7.26-2.28-15.03-3.18-22.94-2.44l-27.36-2.9c-8.71-1.49-17.43-1.04-27.46-2.49,3.93-2.18,6.4-4.04,9.19-5.02,12.79-4.46,25.69-9.56,39.54-6.27,4,.95,3.08-3.02,5.02-3.07,14.26-.41,28.55-.75,41.54,6.69,1.46.84,3.18,1.89,3.88,3.29Z"/>
            <path class="cls-3" d="M384.72,543.74s-.04-.01-.06-.01c0,.02,0,.04,0,.06l.07-.05Z"/>
            <g class="cls-15">
              <path class="cls-3" d="M340.51,454.95c4.68,19.49,14.46,45.48,24.54,62.73,5.81,8.48,11.47,17.07,18.45,24.66.19.2.36.41.54.63.19.23.37.47.56.71.16.21.32.42.49.62.17.22.35.44.54.64.75.81,1.62,1.48,2.85,1.71.07-.94.15-1.89.25-2.98,3.19,1.21,4.5,4.04,6.34,6.32,16.93,20.87,39.39,31.14,65.64,33.45,20.06,1.77,39.92.52,58.77-7.68,1.36-.59,2.63-1.37,3.95-2.06,1.35-2.39,2.72-4.78,5.84-5.17.31-.35.63-.7.94-1.05,0,0,0,0,0,0,.13.13.25.27.37.41-.36.3-.71.6-1.07.9-.35.74-.69,1.49-1.04,2.23,10.19-4.91,18.37-12.19,25.03-21.26,3.65-1.77,3.6-6.89,7.58-8.36-.46,1.93-.91,3.86-1.7,7.18,9.52-9.45,16.64-18.91,22.88-29.08.23-.01.46.03.67.12,1.18-3.12,3.72-5.56,4.4-8.92-5.44,3.96-10.32,8.5-14.9,13.34,4.58-4.84,9.46-9.38,14.9-13.34.71-1.11,1.52-2.17,2.13-3.34,18.23-35.54,26.26-73.53,27.14-113.23-.86-1.16.61-3.2-1.32-3.82-.41-.13-1.21.95-1.83,1.47-5.84,16.12-12.18,32-20.98,46.81-9.3,15.65-20.24,29.95-34.49,42.69-.51-6.73-1.24-12.75-1.36-18.79-.26-13.07-6.84-20.96-18.67-26.07-13.87-5.98-27.27-13.05-40.79-19.79-2.63-1.31-4.39-1.58-6.94.54-14.27,11.83-17.08,11.82-31.69.04-2.33-1.88-4.06-2.06-6.56-.74-14.7,7.72-29.62,14.95-44.78,21.75-8.74,3.93-14.15,10.78-14.7,20.87-.39,7.09-1.05,14.17-1.63,21.8-5.36-3.48,30.5,27.55-13.14-12.28-43.63-39.83-42.55-122.1-43.77-122.82,0,0-3.93,37.13-1.84,68.21,1.43,21.34,9.5,40.1,8.39,40.95ZM352.63,439.14c0-.11-.02-.22-.02-.33M443.98,516.54c2.61,1.89,6.09,1.35,9.16-1.87.2-.21.42-.42.63-.63-.22.21-.43.42-.63.63-3.07,3.22-6.55,3.76-9.16,1.87ZM457.13,506.98s0,0,0,0c0,0,0,0,0,0,0,0-.01,0-.02-.01ZM457.37,511.23c-.06.05-.12.09-.18.14.06-.05.12-.09.18-.14ZM453.92,513.89s.04-.03.05-.05c-.02.02-.04.03-.05.05ZM457.82,510.83s.06-.05.08-.08c-.02.03-.06.05-.08.08ZM458.74,509.29s0-.07,0-.1c0,.03,0,.07,0,.1ZM458.28,510.32s.07-.09.1-.14c-.03.04-.06.09-.1.14ZM458.6,509.79s.02-.04.03-.06c0,.02-.02.04-.03.06ZM458.5,508.25s.02.03.03.05c0-.02-.02-.03-.03-.05ZM458.72,508.75s0,.02,0,.02c0,0,0-.02,0-.02ZM469.98,504.63c-.55,1.81-1.11,3.57-2.66,4.48,1.55-.91,2.11-2.67,2.66-4.48,1.38-4.55-.65-8.81-1.14-13.2-.08-.74-.34-1.57-.39-2.31.05.75.3,1.57.39,2.31.49,4.4,2.52,8.66,1.14,13.21ZM470.18,486.94c-.66.15-1.09.39-1.35.71.27-.31.69-.56,1.36-.71.9-.2,1.5.02,1.92.44-.42-.42-1.02-.63-1.92-.44ZM473.43,493.06c.66,3.75,1.87,7.33,3.22,10.87-1.35-3.54-2.55-7.12-3.22-10.87ZM486.9,513.3c2.79-1.75,4.68-1.01,6.52.77-1.85-1.78-3.73-2.52-6.52-.77ZM496.04,516.55c3.84,2.62,8.92,1.1,10.99-3.71,0,0,0,0,0,0-2.07,4.8-7.15,6.33-11,3.71ZM497.5,511.65s0,0,0,.01c.29.5.53.91.77,1.26-.24-.35-.48-.77-.78-1.27ZM536.16,496.62c.09,1.68-1.34,2.21-2.44,2.84-9.29,5.28-19.02,9.5-29.36,12.28-2.3.62-4.56.37-6.84-.08h0c-.32-.48-.63-.96-.95-1.44-1.63-1.66-3.27-3.3-4.88-4.97-6.01-6.22-5.68-13.43,1.11-19.2,2.09-1.77,3.69-3.49,2.64-6.32-1.06-2.83-3.54-3.16-6.18-3.15-9.32.03-18.65.03-27.97.01-2.41,0-4.7.2-6.11,2.54-1.48,2.47.16,4.21,1.15,6.36,2.81,6.08,6.37,12.26,1.84,19.12.04,0,.08.02.11.02-.04,0-.08-.02-.11-.02-.62.64-1.24,1.28-1.86,1.92.01.01.02.01.03.02,0,0,.02.01.03.01h0s0,0,0,0c0,0,0,0,0,0,.02,0,.03.02.05.03-.02,0-.03-.02-.05-.03-.41.51-.82,1.02-1.22,1.54-4.03,3.62-8.43,5.3-13.72,2.72-.55-.27-1.31-.12-1.97-.16,0,0,0,0,0,0-8.44-2.61-16.14-6.82-23.87-10.97-1.45-.78-2.94-1.48-2.89-3.63.15-6.48.03-12.98.31-19.46.19-4.7,2.51-7.33,7.62-8.03,11.52-1.59,22.96-3.75,34.44-5.66,6.31-1.06,12.29-2.92,17.48-6.85,1.02-.78,1.93-1.83,3.36-.35,6.61,6.85,15.46,7.91,24.21,9.06,8.27,1.08,16.6,1.13,24.93,1.12,6.12-.01,8.75,1.85,10.2,7.84,1.82,7.54.49,15.27.91,22.9ZM550.25,547.5h0s0,0,0,0c0,0,0,0,0,0ZM547.21,550.5c-1.33.98-2.62,2.01-3.88,3.06,1.26-1.06,2.55-2.08,3.88-3.06.33-1.44,1.17-2.36,2.46-2.82-1.29.46-2.13,1.39-2.46,2.82ZM550.13,549.09c.19-.37.32-.8.39-1.29h0c-.07.49-.2.92-.39,1.29ZM550.34,547.6l.16.18s-.09-.1-.16-.18ZM563.27,534.53l.23.28s-.16-.19-.23-.28Z"/>
            </g>
          </g>
          <path class="cls-6" d="M382.82,765.92l66.06-31.38-4.9,15.69,14.77-15.69,10.04-38.61s-33.37,3.21-59.7,41.74c-26.34,38.54-26.27,28.25-26.27,28.25Z"/>
          <path class="cls-6" d="M569.02,765.92l-66.06-31.38,4.9,15.69-14.77-15.69-10.04-38.61s33.37,3.21,59.7,41.74c26.34,38.54,26.27,28.25,26.27,28.25Z"/>
          <circle class="cls-10" cx="475.18" cy="743.19" r="7.87"/>
          <circle class="cls-10" cx="475.18" cy="848.76" r="7.87"/>
          <circle class="cls-10" cx="475.18" cy="951.28" r="7.87"/>
        </g>
        <path class="cls-10" d="M629.75,177.68c-4.94-8.13-10.43-16.11-18.12-21.58-6.67-4.75-10.22-10.26-13.3-17.88-7.27-17.96-22.57-28.45-39.61-36.48-2.42-1.74-5.01-3.04-7.72-4.08-2.7-1.04-5.51-1.82-8.35-2.54-5.72-2.39-11.76-3.64-17.85-4.21-114.78-10.69-223.68,68.91-223.68,68.91l7.45,66.3-1.49,6.29s33.11,20.04,58.55-6.57c25.43-26.61,52.78-50.29,87.26-32.09,30.44,16.07,48.92,24.48,75.72,21.54.26-.04.52-.07.78-.1,1.34-.2,2.67-.43,4.01-.7,0-.01.01-.01.02-.01,1.3-.17,2.56-.33,3.78-.48.84-.16,1.7-.32,2.56-.5,33.25-6.83,41.78-6.86,49.84,3.71.66.2,1.35.41,2.07.62l3.28-3.81c.76-.59,1.64-1.04,2.74-1.22h0c1.24-3.94,4.39-6.1,7.6-8.21,2.08-3.43,5.07-5.92,8.39-8.06,1.99-4.61,6.22-7.27,9.58-10.62,2.89-2.86,4.18-5.01.32-7.83-.51-.37-.88-1.01-.21-1.95,2.13.14,2.92,2.32,4.49,3.32,2.93,1.87,1.21-1.23,1.89-1.77ZM435.49,153.34s-.07-.06-.1-.09c.03.02.07.05.1.08.12.09.23.19.34.29-.11-.1-.22-.19-.34-.28ZM482.02,127.59s.03.01.04.02c.02.02.03.04.05.05-.03-.02-.06-.05-.09-.07ZM519.94,122.17v-.02c.03.1.07.2.12.29-.05-.09-.09-.17-.12-.27Z"/>
      </g>
    </g>
  </g>
</svg>