<svg width="70" height="70" viewBox="0 0 70 70" fill="none" xmlns="http://www.w3.org/2000/svg">
<g filter="url(#filter0_ddii_1166_6597)">
<rect x="17" y="17" width="36" height="36" rx="18" fill="#F0F0F3"/>
<rect x="16" y="16" width="38" height="38" rx="19" stroke="url(#paint0_linear_1166_6597)" stroke-width="2"/>
</g>
<path d="M27.25 30C27.25 30.4142 27.5858 30.75 28 30.75C28.4142 30.75 28.75 30.4142 28.75 30H27.25ZM29.1 28.889L28.8145 28.1955C28.8053 28.1993 28.7962 28.2032 28.7872 28.2074L29.1 28.889ZM32.033 28.152L32.1093 28.8981C32.1146 28.8976 32.1199 28.897 32.1251 28.8963L32.033 28.152ZM34.533 28L34.5317 28.75H34.533V28ZM35.466 28V28.75L35.4673 28.75L35.466 28ZM37.966 28.152L37.8739 28.8963C37.8792 28.897 37.8845 28.8976 37.8898 28.8982L37.966 28.152ZM40.9 28.889L41.2128 28.2074C41.2038 28.2032 41.1946 28.1993 41.1855 28.1955L40.9 28.889ZM41.25 30C41.25 30.4142 41.5858 30.75 42 30.75C42.4142 30.75 42.75 30.4142 42.75 30H41.25ZM28.75 30C28.75 29.5858 28.4142 29.25 28 29.25C27.5858 29.25 27.25 29.5858 27.25 30H28.75ZM29.914 31.414L29.6946 32.1312C29.7017 32.1334 29.7089 32.1355 29.716 32.1374L29.914 31.414ZM34.533 32V31.2499L34.5219 31.2501L34.533 32ZM35.466 32L35.4771 31.25H35.466V32ZM40.086 31.414L40.284 32.1374C40.2911 32.1355 40.2983 32.1334 40.3054 32.1312L40.086 31.414ZM42.75 30C42.75 29.5858 42.4142 29.25 42 29.25C41.5858 29.25 41.25 29.5858 41.25 30H42.75ZM28.75 30C28.75 29.5858 28.4142 29.25 28 29.25C27.5858 29.25 27.25 29.5858 27.25 30H28.75ZM27.25 35C27.25 35.4142 27.5858 35.75 28 35.75C28.4142 35.75 28.75 35.4142 28.75 35H27.25ZM42.75 30C42.75 29.5858 42.4142 29.25 42 29.25C41.5858 29.25 41.25 29.5858 41.25 30H42.75ZM41.25 35C41.25 35.4142 41.5858 35.75 42 35.75C42.4142 35.75 42.75 35.4142 42.75 35H41.25ZM28.75 35C28.75 34.5858 28.4142 34.25 28 34.25C27.5858 34.25 27.25 34.5858 27.25 35H28.75ZM29.914 36.414L29.6946 37.1312C29.7017 37.1334 29.7089 37.1355 29.716 37.1374L29.914 36.414ZM34.533 37V36.2499L34.5219 36.2501L34.533 37ZM35.466 37L35.4771 36.25H35.466V37ZM40.086 36.414L40.284 37.1374C40.2911 37.1355 40.2983 37.1334 40.3054 37.1312L40.086 36.414ZM42.75 35C42.75 34.5858 42.4142 34.25 42 34.25C41.5858 34.25 41.25 34.5858 41.25 35H42.75ZM28.75 35C28.75 34.5858 28.4142 34.25 28 34.25C27.5858 34.25 27.25 34.5858 27.25 35H28.75ZM29.914 41.414L29.6946 42.1312C29.7017 42.1334 29.7089 42.1355 29.716 42.1374L29.914 41.414ZM34.533 42V41.2499L34.5219 41.2501L34.533 42ZM35.466 42L35.4771 41.25H35.466V42ZM40.086 41.414L40.284 42.1374C40.2911 42.1355 40.2983 42.1334 40.3054 42.1312L40.086 41.414ZM42.75 35C42.75 34.5858 42.4142 34.25 42 34.25C41.5858 34.25 41.25 34.5858 41.25 35H42.75ZM28.75 30C28.75 30.0585 28.7181 30.0422 28.8132 29.9464C28.9121 29.8469 29.0995 29.7144 29.4128 29.5707L28.7872 28.2074C28.3835 28.3926 28.0209 28.6156 27.749 28.8894C27.4734 29.1669 27.25 29.5416 27.25 30H28.75ZM29.3855 29.5826C30.2557 29.2244 31.1731 28.9938 32.1093 28.8981L31.9567 27.4059C30.8768 27.5163 29.8184 27.7823 28.8145 28.1955L29.3855 29.5826ZM32.1251 28.8963C32.9235 28.7975 33.7273 28.7486 34.5317 28.75L34.5343 27.25C33.6674 27.2485 32.8012 27.3012 31.9409 27.4077L32.1251 28.8963ZM34.533 28.75H35.466V27.25H34.533V28.75ZM35.4673 28.75C36.2717 28.7486 37.0755 28.7975 37.8739 28.8963L38.0581 27.4077C37.1978 27.3012 36.3316 27.2485 35.4647 27.25L35.4673 28.75ZM37.8898 28.8982C38.8263 28.9938 39.744 29.2243 40.6145 29.5826L41.1855 28.1955C40.1812 27.7821 39.1225 27.5162 38.0422 27.4059L37.8898 28.8982ZM40.5872 29.5707C40.9005 29.7144 41.0879 29.8469 41.1868 29.9464C41.2819 30.0422 41.25 30.0585 41.25 30H42.75C42.75 29.5416 42.5266 29.1669 42.251 28.8894C41.9791 28.6156 41.6165 28.3926 41.2128 28.2074L40.5872 29.5707ZM27.25 30C27.25 30.6136 27.646 31.0686 28.0515 31.3683C28.4717 31.6789 29.0392 31.9308 29.6946 32.1312L30.1334 30.6968C29.5628 30.5223 29.1733 30.3322 28.943 30.162C28.698 29.9809 28.75 29.9164 28.75 30H27.25ZM29.716 32.1374C31.2885 32.5678 32.9139 32.774 34.5441 32.7499L34.5219 31.2501C33.033 31.2721 31.5483 31.0837 30.112 30.6906L29.716 32.1374ZM34.533 32.75H35.466V31.25H34.533V32.75ZM35.4549 32.7499C37.0854 32.7741 38.7111 32.5679 40.284 32.1374L39.888 30.6906C38.4514 31.0838 36.9664 31.2721 35.4771 31.2501L35.4549 32.7499ZM40.3054 32.1312C40.9605 31.9308 41.5281 31.6792 41.9484 31.3688C42.3542 31.069 42.75 30.614 42.75 30H41.25C41.25 29.9171 41.3018 29.9816 41.0571 30.1623C40.8269 30.3323 40.4375 30.5222 39.8666 30.6968L40.3054 32.1312ZM27.25 30V35H28.75V30H27.25ZM41.25 30V35H42.75V30H41.25ZM27.25 35C27.25 35.6136 27.646 36.0686 28.0515 36.3683C28.4717 36.6789 29.0392 36.9308 29.6946 37.1312L30.1334 35.6968C29.5628 35.5223 29.1733 35.3322 28.943 35.162C28.698 34.9809 28.75 34.9164 28.75 35H27.25ZM29.716 37.1374C31.2885 37.5678 32.9139 37.774 34.5441 37.7499L34.5219 36.2501C33.033 36.2721 31.5483 36.0837 30.112 35.6906L29.716 37.1374ZM34.533 37.75H35.466V36.25H34.533V37.75ZM35.4549 37.7499C37.0854 37.7741 38.7111 37.5679 40.284 37.1374L39.888 35.6906C38.4514 36.0838 36.9664 36.2721 35.4771 36.2501L35.4549 37.7499ZM40.3054 37.1312C40.9605 36.9308 41.5281 36.6792 41.9484 36.3688C42.3542 36.069 42.75 35.614 42.75 35H41.25C41.25 34.9171 41.3018 34.9816 41.0571 35.1623C40.8269 35.3323 40.4375 35.5222 39.8666 35.6968L40.3054 37.1312ZM27.25 35V40H28.75V35H27.25ZM27.25 40C27.25 40.6136 27.646 41.0686 28.0515 41.3683C28.4717 41.6789 29.0392 41.9308 29.6946 42.1312L30.1334 40.6968C29.5628 40.5223 29.1733 40.3322 28.943 40.162C28.698 39.9809 28.75 39.9164 28.75 40H27.25ZM29.716 42.1374C31.2885 42.5678 32.9139 42.774 34.5441 42.7499L34.5219 41.2501C33.033 41.2721 31.5483 41.0837 30.112 40.6906L29.716 42.1374ZM34.533 42.75H35.466V41.25H34.533V42.75ZM35.4549 42.7499C37.0854 42.7741 38.7111 42.5679 40.284 42.1374L39.888 40.6906C38.4514 41.0838 36.9664 41.2721 35.4771 41.2501L35.4549 42.7499ZM40.3054 42.1312C40.9608 41.9308 41.5283 41.6789 41.9485 41.3683C42.354 41.0686 42.75 40.6136 42.75 40H41.25C41.25 39.9164 41.302 39.9809 41.057 40.162C40.8267 40.3322 40.4372 40.5223 39.8666 40.6968L40.3054 42.1312ZM42.75 40V35H41.25V40H42.75Z" fill="#E2D13C"/>
<defs>
<filter id="filter0_ddii_1166_6597" x="0" y="0" width="70" height="70" filterUnits="userSpaceOnUse" color-interpolation-filters="sRGB">
<feFlood flood-opacity="0" result="BackgroundImageFix"/>
<feColorMatrix in="SourceAlpha" type="matrix" values="0 0 0 0 0 0 0 0 0 0 0 0 0 0 0 0 0 0 127 0" result="hardAlpha"/>
<feOffset dx="5" dy="5"/>
<feGaussianBlur stdDeviation="5"/>
<feColorMatrix type="matrix" values="0 0 0 0 0.682353 0 0 0 0 0.682353 0 0 0 0 0.752941 0 0 0 0.3 0"/>
<feBlend mode="normal" in2="BackgroundImageFix" result="effect1_dropShadow_1166_6597"/>
<feColorMatrix in="SourceAlpha" type="matrix" values="0 0 0 0 0 0 0 0 0 0 0 0 0 0 0 0 0 0 127 0" result="hardAlpha"/>
<feOffset dx="-5" dy="-5"/>
<feGaussianBlur stdDeviation="5"/>
<feColorMatrix type="matrix" values="0 0 0 0 1 0 0 0 0 1 0 0 0 0 1 0 0 0 1 0"/>
<feBlend mode="normal" in2="effect1_dropShadow_1166_6597" result="effect2_dropShadow_1166_6597"/>
<feBlend mode="normal" in="SourceGraphic" in2="effect2_dropShadow_1166_6597" result="shape"/>
<feColorMatrix in="SourceAlpha" type="matrix" values="0 0 0 0 0 0 0 0 0 0 0 0 0 0 0 0 0 0 127 0" result="hardAlpha"/>
<feOffset dx="2" dy="2"/>
<feGaussianBlur stdDeviation="2"/>
<feComposite in2="hardAlpha" operator="arithmetic" k2="-1" k3="1"/>
<feColorMatrix type="matrix" values="0 0 0 0 1 0 0 0 0 1 0 0 0 0 1 0 0 0 1 0"/>
<feBlend mode="normal" in2="shape" result="effect3_innerShadow_1166_6597"/>
<feColorMatrix in="SourceAlpha" type="matrix" values="0 0 0 0 0 0 0 0 0 0 0 0 0 0 0 0 0 0 127 0" result="hardAlpha"/>
<feOffset dx="-2" dy="-2"/>
<feGaussianBlur stdDeviation="2"/>
<feComposite in2="hardAlpha" operator="arithmetic" k2="-1" k3="1"/>
<feColorMatrix type="matrix" values="0 0 0 0 0 0 0 0 0 0 0 0 0 0 0 0 0 0 0.1 0"/>
<feBlend mode="normal" in2="effect3_innerShadow_1166_6597" result="effect4_innerShadow_1166_6597"/>
</filter>
<linearGradient id="paint0_linear_1166_6597" x1="17" y1="17" x2="53" y2="53" gradientUnits="userSpaceOnUse">
<stop stop-opacity="0.05"/>
<stop offset="1" stop-color="white" stop-opacity="0.05"/>
</linearGradient>
</defs>
</svg>
