<svg width="70" height="70" viewBox="0 0 70 70" fill="none" xmlns="http://www.w3.org/2000/svg">
<g filter="url(#filter0_ddii_1166_6609)">
<rect x="17" y="17" width="36" height="36" rx="18" fill="#F0F0F3"/>
<rect x="16" y="16" width="38" height="38" rx="19" stroke="url(#paint0_linear_1166_6609)" stroke-width="2"/>
</g>
<path fill-rule="evenodd" clip-rule="evenodd" d="M26 30V40C26 41.1046 26.8954 42 28 42H42C43.1046 42 44 41.1046 44 40V30C44 28.8954 43.1046 28 42 28H28C26.8954 28 26 28.8954 26 30Z" stroke="#FABBBC" stroke-width="1.5" stroke-linecap="round" stroke-linejoin="round"/>
<path d="M38 33H41" stroke="#FABBBC" stroke-width="1.5" stroke-linecap="round"/>
<path d="M38 36H41" stroke="#FABBBC" stroke-width="1.5" stroke-linecap="round"/>
<path fill-rule="evenodd" clip-rule="evenodd" d="M34 33C34 34.1046 33.1046 35 32 35C30.8954 35 30 34.1046 30 33C30 31.8954 30.8954 31 32 31C32.5304 31 33.0391 31.2107 33.4142 31.5858C33.7893 31.9609 34 32.4696 34 33Z" stroke="#FABBBC" stroke-width="1.5" stroke-linecap="round" stroke-linejoin="round"/>
<path d="M28 38.9999C30.783 35.8629 34.052 36.8489 36 38.9999" stroke="#FABBBC" stroke-width="1.5" stroke-linecap="round"/>
<defs>
<filter id="filter0_ddii_1166_6609" x="0" y="0" width="70" height="70" filterUnits="userSpaceOnUse" color-interpolation-filters="sRGB">
<feFlood flood-opacity="0" result="BackgroundImageFix"/>
<feColorMatrix in="SourceAlpha" type="matrix" values="0 0 0 0 0 0 0 0 0 0 0 0 0 0 0 0 0 0 127 0" result="hardAlpha"/>
<feOffset dx="5" dy="5"/>
<feGaussianBlur stdDeviation="5"/>
<feColorMatrix type="matrix" values="0 0 0 0 0.682353 0 0 0 0 0.682353 0 0 0 0 0.752941 0 0 0 0.3 0"/>
<feBlend mode="normal" in2="BackgroundImageFix" result="effect1_dropShadow_1166_6609"/>
<feColorMatrix in="SourceAlpha" type="matrix" values="0 0 0 0 0 0 0 0 0 0 0 0 0 0 0 0 0 0 127 0" result="hardAlpha"/>
<feOffset dx="-5" dy="-5"/>
<feGaussianBlur stdDeviation="5"/>
<feColorMatrix type="matrix" values="0 0 0 0 1 0 0 0 0 1 0 0 0 0 1 0 0 0 1 0"/>
<feBlend mode="normal" in2="effect1_dropShadow_1166_6609" result="effect2_dropShadow_1166_6609"/>
<feBlend mode="normal" in="SourceGraphic" in2="effect2_dropShadow_1166_6609" result="shape"/>
<feColorMatrix in="SourceAlpha" type="matrix" values="0 0 0 0 0 0 0 0 0 0 0 0 0 0 0 0 0 0 127 0" result="hardAlpha"/>
<feOffset dx="2" dy="2"/>
<feGaussianBlur stdDeviation="2"/>
<feComposite in2="hardAlpha" operator="arithmetic" k2="-1" k3="1"/>
<feColorMatrix type="matrix" values="0 0 0 0 1 0 0 0 0 1 0 0 0 0 1 0 0 0 1 0"/>
<feBlend mode="normal" in2="shape" result="effect3_innerShadow_1166_6609"/>
<feColorMatrix in="SourceAlpha" type="matrix" values="0 0 0 0 0 0 0 0 0 0 0 0 0 0 0 0 0 0 127 0" result="hardAlpha"/>
<feOffset dx="-2" dy="-2"/>
<feGaussianBlur stdDeviation="2"/>
<feComposite in2="hardAlpha" operator="arithmetic" k2="-1" k3="1"/>
<feColorMatrix type="matrix" values="0 0 0 0 0 0 0 0 0 0 0 0 0 0 0 0 0 0 0.1 0"/>
<feBlend mode="normal" in2="effect3_innerShadow_1166_6609" result="effect4_innerShadow_1166_6609"/>
</filter>
<linearGradient id="paint0_linear_1166_6609" x1="17" y1="17" x2="53" y2="53" gradientUnits="userSpaceOnUse">
<stop stop-opacity="0.05"/>
<stop offset="1" stop-color="white" stop-opacity="0.05"/>
</linearGradient>
</defs>
</svg>
