<svg xmlns="http://www.w3.org/2000/svg" xmlns:xlink="http://www.w3.org/1999/xlink" width="310" height="150.85" viewBox="0 0 310 150.85">
  <defs>
    <radialGradient id="radial-gradient" cx="0.5" cy="0.5" r="0.5" gradientTransform="translate(0 0)" gradientUnits="objectBoundingBox">
      <stop offset="0" stop-color="#fff"/>
      <stop offset="0.578" stop-color="#fff" stop-opacity="0.651"/>
      <stop offset="1" stop-color="#fff" stop-opacity="0"/>
    </radialGradient>
    <filter id="Path_1" x="189.609" y="46.484" width="120.391" height="102.033" filterUnits="userSpaceOnUse">
      <feOffset dy="10" input="SourceAlpha"/>
      <feGaussianBlur stdDeviation="10" result="blur"/>
      <feFlood flood-color="#8f0000"/>
      <feComposite operator="in" in2="blur"/>
      <feComposite in="SourceGraphic"/>
    </filter>
    <filter id="Path_2" x="161.92" y="54.226" width="85.642" height="96.625" filterUnits="userSpaceOnUse">
      <feOffset dy="10" input="SourceAlpha"/>
      <feGaussianBlur stdDeviation="10" result="blur-2"/>
      <feFlood flood-color="#8f0000"/>
      <feComposite operator="in" in2="blur-2"/>
      <feComposite in="SourceGraphic"/>
    </filter>
    <filter id="Path_3" x="70.092" y="8.158" width="85.642" height="96.625" filterUnits="userSpaceOnUse">
      <feOffset dy="10" input="SourceAlpha"/>
      <feGaussianBlur stdDeviation="10" result="blur-3"/>
      <feFlood flood-color="#8f0000"/>
      <feComposite operator="in" in2="blur-3"/>
      <feComposite in="SourceGraphic"/>
    </filter>
    <filter id="Path_4" x="98.388" y="0" width="90.185" height="102.023" filterUnits="userSpaceOnUse">
      <feOffset dy="10" input="SourceAlpha"/>
      <feGaussianBlur stdDeviation="10" result="blur-4"/>
      <feFlood flood-color="#8f0000"/>
      <feComposite operator="in" in2="blur-4"/>
      <feComposite in="SourceGraphic"/>
    </filter>
    <filter id="Path_5" x="131.786" y="46.489" width="90.185" height="102.023" filterUnits="userSpaceOnUse">
      <feOffset dy="10" input="SourceAlpha"/>
      <feGaussianBlur stdDeviation="10" result="blur-5"/>
      <feFlood flood-color="#8f0000"/>
      <feComposite operator="in" in2="blur-5"/>
      <feComposite in="SourceGraphic"/>
    </filter>
    <filter id="Path_6" x="76.682" y="46.484" width="112.332" height="102.033" filterUnits="userSpaceOnUse">
      <feOffset dy="10" input="SourceAlpha"/>
      <feGaussianBlur stdDeviation="10" result="blur-6"/>
      <feFlood flood-color="#8f0000"/>
      <feComposite operator="in" in2="blur-6"/>
      <feComposite in="SourceGraphic"/>
    </filter>
    <filter id="Path_7" x="0" y="8.208" width="142.119" height="113.045" filterUnits="userSpaceOnUse">
      <feOffset dy="10" input="SourceAlpha"/>
      <feGaussianBlur stdDeviation="10" result="blur-7"/>
      <feFlood flood-color="#8f0000"/>
      <feComposite operator="in" in2="blur-7"/>
      <feComposite in="SourceGraphic"/>
    </filter>
    <filter id="Path_8" x="126.17" y="8.208" width="112.331" height="93.929" filterUnits="userSpaceOnUse">
      <feOffset dy="10" input="SourceAlpha"/>
      <feGaussianBlur stdDeviation="10" result="blur-8"/>
      <feFlood flood-color="#8f0000"/>
      <feComposite operator="in" in2="blur-8"/>
      <feComposite in="SourceGraphic"/>
    </filter>
    <clipPath id="clip-path">
      <rect id="Rectangle_3" data-name="Rectangle 3" width="52.97" height="52.882" fill="url(#radial-gradient)"/>
    </clipPath>
    <clipPath id="clip-path-2">
      <rect id="Rectangle_2" data-name="Rectangle 2" width="67.928" height="53.185" fill="#fff"/>
    </clipPath>
  </defs>
  <g id="Group_5" data-name="Group 5" transform="translate(-1130.778 -190.729)">
    <g transform="matrix(1, 0, 0, 1, 1130.78, 190.73)" filter="url(#Path_1)">
      <path id="Path_1-2" data-name="Path 1" d="M701.181,176.208a7.355,7.355,0,0,0-5.214-2.159H662.108l.009,14.792h8.252a6.145,6.145,0,0,1,6.2,6.083,6.34,6.34,0,0,1-6.338,6.3l-3.65.009a8.865,8.865,0,0,1-8.886-8.865V181.378a7.373,7.373,0,1,0-14.745,0v12.529a22.131,22.131,0,0,0,22.232,22.131l5.05-.023a21.116,21.116,0,0,0,21.13-21.13,19.147,19.147,0,0,0-.985-6.09H695.8a7.481,7.481,0,0,0,7.538-7.255,7.356,7.356,0,0,0-2.158-5.332" transform="translate(-423.34 -107.52)" fill="#fff"/>
    </g>
    <g transform="matrix(1, 0, 0, 1, 1130.78, 190.73)" filter="url(#Path_2)">
      <path id="Path_2-2" data-name="Path 2" d="M567.253,200.255h0a7.448,7.448,0,0,0-7.428,6.937c-.055.79-.1,1.349-.118,1.443a29.827,29.827,0,0,1-8.387,15.526,7.409,7.409,0,0,0-.533,10.087l.015.018a7.373,7.373,0,0,0,10.778.52,44.545,44.545,0,0,0,13.053-25.9c.011-.083.03-.361.052-.769a7.448,7.448,0,0,0-7.434-7.864" transform="translate(-357.14 -126.03)" fill="#fff"/>
    </g>
    <g transform="matrix(1, 0, 0, 1, 1130.78, 190.73)" filter="url(#Path_3)">
      <path id="Path_3-2" data-name="Path 3" d="M239.421,78.052a7.373,7.373,0,0,0,10.779.52,44.546,44.546,0,0,0,13.053-25.9c.011-.083.03-.361.052-.769a7.446,7.446,0,0,0-14.862-.927c-.055.79-.1,1.349-.118,1.443a29.824,29.824,0,0,1-8.387,15.526,7.41,7.41,0,0,0-.533,10.087Z" transform="translate(-137.58 -15.88)" fill="#fff"/>
    </g>
    <g transform="matrix(1, 0, 0, 1, 1130.78, 190.73)" filter="url(#Path_4)">
      <path id="Path_4-2" data-name="Path 4" d="M348.369,58.4h.694a14.745,14.745,0,0,0,14.745-14.745H348.369v-19.9a7.373,7.373,0,0,0-14.745,0v19.9A14.745,14.745,0,0,0,348.369,58.4" transform="translate(-205.24 3.62)" fill="#fff"/>
    </g>
    <g transform="matrix(1, 0, 0, 1, 1130.78, 190.73)" filter="url(#Path_5)">
      <path id="Path_5-2" data-name="Path 5" d="M461.621,216.044h.695A14.745,14.745,0,0,0,477.061,201.3h-15.44v-19.9a7.373,7.373,0,0,0-14.745,0v19.9A14.745,14.745,0,0,0,461.621,216.044Z" transform="translate(-285.09 -107.53)" fill="#fff"/>
    </g>
    <g transform="matrix(1, 0, 0, 1, 1130.78, 190.73)" filter="url(#Path_6)">
      <path id="Path_6-2" data-name="Path 6" d="M304.983,174.005a7.373,7.373,0,0,0-7.373,7.373v.741H274.768a14.745,14.745,0,0,0-14.745,14.745v4.429a14.745,14.745,0,0,0,14.745,14.745H297.61a14.745,14.745,0,0,0,14.745-14.745H276.982a2.214,2.214,0,0,1,0-4.428H297.61a14.745,14.745,0,0,0,14.745-14.745v-.741a7.373,7.373,0,0,0-7.373-7.373" transform="translate(-153.34 -107.52)" fill="#fff"/>
    </g>
    <g transform="matrix(1, 0, 0, 1, 1130.78, 190.73)" filter="url(#Path_7)">
      <path id="Path_7-2" data-name="Path 7" d="M14.745,97.258h9.133a28.68,28.68,0,0,1,38.81,0h4.685A14.745,14.745,0,0,0,82.119,82.512H17.034a2.262,2.262,0,0,1-2.283-2.064,2.214,2.214,0,0,1,2.206-2.362h.161c0,.016,0,.031,0,.047v.009H31.862v-.009H54.7A14.745,14.745,0,0,0,69.448,63.388V58.958A14.745,14.745,0,0,0,54.7,44.213H35.15A14.745,14.745,0,0,0,20.4,58.958H52.491a2.215,2.215,0,0,1,0,4.429h-5.7v-.047H14.745A14.745,14.745,0,0,0,0,78.086v4.427A14.745,14.745,0,0,0,14.745,97.258" transform="translate(30 -16)" fill="#fff"/>
    </g>
    <g transform="matrix(1, 0, 0, 1, 1130.78, 190.73)" filter="url(#Path_8)">
      <path id="Path_8-2" data-name="Path 8" d="M465.416,61.173a2.215,2.215,0,0,1-2.212,2.215H442.575A14.746,14.746,0,0,0,427.83,78.133v.009h14.745v-.009h22.841a14.745,14.745,0,0,0,14.745-14.745V58.958a14.745,14.745,0,0,0-14.745-14.745H445.863a14.745,14.745,0,0,0-14.745,14.745H463.2a2.213,2.213,0,0,1,2.212,2.215" transform="translate(-271.66 -16)" fill="#fff"/>
    </g>
    <path id="Path_9" data-name="Path 9" d="M508.117,9.661a4.831,4.831,0,1,0-4.831-4.831,4.831,4.831,0,0,0,4.831,4.831" transform="translate(805.914 204.421)" fill="#fff"/>
    <path id="Path_10" data-name="Path 10" d="M318.375,329.469a4.831,4.831,0,1,0,4.831,4.831,4.831,4.831,0,0,0-4.831-4.831" transform="translate(939.7 -26.408)" fill="#fff"/>
    <path id="Path_11" data-name="Path 11" d="M477.245,329.469a4.831,4.831,0,1,0,4.831,4.831,4.831,4.831,0,0,0-4.831-4.831" transform="translate(827.681 -26.408)" fill="#fff"/>
    <path id="Path_12" data-name="Path 12" d="M515.007,329.469a4.831,4.831,0,1,0,4.83,4.831,4.831,4.831,0,0,0-4.83-4.831" transform="translate(801.056 -26.408)" fill="#fff"/>
    <g id="Group_4" data-name="Group 4" transform="translate(1177.74 267.637)">
      <g id="Group_3" data-name="Group 3" clip-path="url(#clip-path)">
        <path id="Path_14" data-name="Path 14" d="M26.448,52.882A26.452,26.452,0,0,1,0,26.53C1.46-9.059,51.762-8.684,52.97,26.7A26.542,26.542,0,0,1,26.448,52.882M12.714,7.751c.751.467,1.579.881.783,1.745a1.929,1.929,0,0,0-.3.47,9.051,9.051,0,0,1-3.376,3.908,5.252,5.252,0,0,1-3.1.964.712.712,0,0,0-.525.374c-.715,1.71-1.443,3.417-2.068,5.161a17.848,17.848,0,0,0-.551,2.464,24.654,24.654,0,0,1,2.213,1.75,1.056,1.056,0,0,1-.1,1.684,7.306,7.306,0,0,0-2.007,3.7,1.206,1.206,0,0,0,0,.506,21.384,21.384,0,0,0,2.118,6.342,23.015,23.015,0,0,0,25.5,12.212,10.049,10.049,0,0,1-4.771-2.357,3.762,3.762,0,0,1-1.9-3.106A21,21,0,0,0,20,35.459c-1.164-1.255-3.973-1.4-4.756-2.584a51.812,51.812,0,0,1-3.92-6.494c-.48-1.4,1.831-3.765,2.783-4.837.773-.873,6.082-2.766,9.777-1.853,1.8.445,2.84,3.885,3.512,3.948a1.055,1.055,0,0,0,.576-.126c.7-.373,1.375-.794,2.08-1.157.808-.416,1.651-.764,2.452-1.192a1.412,1.412,0,0,0,.839-1.05c-.9-.344-.923-.547-.212-1.19.379-.343.763-.683,1.11-1.057.258-.278.341-.657-.014-.894a2.215,2.215,0,0,0-1.174-.5,2.977,2.977,0,0,0-2.842,2.558,5.939,5.939,0,0,0,.276,1.506c-1.977.5-2.948-.989-4.11-2.28-1.258-1.361-2.127-2.934-4.195-1.845a.655.655,0,0,0-.259.391,2.357,2.357,0,0,1-3.588,1.314c-.366-.261-.367-.582.036-.79a4.34,4.34,0,0,1,.908-.317c1.4-.326.223-1.224-.309-1.791-.13-.142-.24-.3-.4-.5a1.247,1.247,0,0,1,.3-.09,6.858,6.858,0,0,0,3.65-1.092c.426-.232.8-.533.576-1.1a1.7,1.7,0,0,1,1.677.062c.523.267,1.025.575,1.55.84a1.421,1.421,0,0,0,1.61-.078,3.216,3.216,0,0,0,1.255-2.1c.156-1.144-1.016-1.121-1.807-.9a9.262,9.262,0,0,0-1.084.458,1.241,1.241,0,0,1,.193-1.508,9.458,9.458,0,0,1,5.765-3.572,1.466,1.466,0,0,1,.809.246,13.047,13.047,0,0,0,1.431.78,1.427,1.427,0,0,0,1.63-.331c.47-.522.4-.874-.236-1.145A23.07,23.07,0,0,0,12.714,7.751M31.991,48.858A23.025,23.025,0,0,0,49.118,31.28c-.173.133-.247.183-.314.242-.529.462-.852.4-1.1-.249a6.714,6.714,0,0,1-.312-1.15c-.455-3.057-2.55-1.951-4.786-2.271a7,7,0,0,0-2.236-.114,9.348,9.348,0,0,1-2.51-.333c-.671-.1-1.339-.239-2.014-.3a.874.874,0,0,0-.956.659,2.225,2.225,0,0,0,.13,1.973c.658.928,2.217.179,3.093-.067.463-.122,1.349-.6,1.762-.291A.725.725,0,0,1,39.85,30c-1.876,3.725-4.3,7.154-5.861,11.041A11.359,11.359,0,0,0,32.927,46.4a2.6,2.6,0,0,1-.936,2.458" transform="translate(0 0)" fill="url(#radial-gradient)"/>
      </g>
    </g>
    <g id="Group_2" data-name="Group 2" transform="translate(1162.941 267.637)">
      <g id="Group_1" data-name="Group 1" clip-path="url(#clip-path-2)">
        <path id="Path_13" data-name="Path 13" d="M41.337,0A26.61,26.61,0,0,0,15.469,32.784L2.2,38.3A3.57,3.57,0,0,0,4.94,44.889l13.109-5.446A26.594,26.594,0,1,0,41.337,0m0,49.408A22.814,22.814,0,1,1,64.148,26.594,22.814,22.814,0,0,1,41.337,49.408" transform="translate(0)" fill="#fff"/>
      </g>
    </g>
  </g>
</svg>
