<svg id="Group_6" data-name="Group 6" xmlns="http://www.w3.org/2000/svg" xmlns:xlink="http://www.w3.org/1999/xlink" width="428.75" height="532.84" viewBox="0 0 428.75 532.84">
    <defs>
        <clipPath id="clip-path">
            <rect id="Rectangle_3" data-name="Rectangle 3" width="428.75" height="532.84" fill="none"/>
        </clipPath>
    </defs>
    <g id="Group_5" data-name="Group 5" clip-path="url(#clip-path)">
        <path id="Path_45" data-name="Path 45" d="M151.112,365.775v5.851a16.56,16.56,0,0,1-7.732-2.435v-7.249a2.93,2.93,0,0,1,.84.594,11.06,11.06,0,0,0,6.892,3.239" fill="#fff"/>
        <path id="Path_46" data-name="Path 46" d="M289.456,373.284c-.055.555-.11,1.11-.171,1.722h-18.76v-4.968h10.906c-.324-.387-.535-.679-.785-.934-1.477-1.5-2.984-2.978-4.438-4.5a2.656,2.656,0,0,0-2.3-1,5.758,5.758,0,0,1-.993-.078,4.206,4.206,0,0,1,.322-.457c1.33-1.381,2.673-2.751,4-4.14.441-.463.8-.441,1.245.01q4.611,4.632,9.249,9.237a7.084,7.084,0,0,1,1.734,3.118Z" fill="#fff"/>
        <path id="Path_47" data-name="Path 47" d="M231.437,375.137h-.891c-6.631,0-21.764-.017-21.764-.017l-3.645,3a5.921,5.921,0,0,1-7.689-.139l-.21-.186,4.536-3.457-.257-.133a8.294,8.294,0,0,1-4.708-6.309,8.005,8.005,0,0,1,1.152-5.58,8.324,8.324,0,0,1,10.03-3.436c4.222,1.59,5.914,5.317,4.923,10.915h11.021c-.264-.294-.451-.521-.656-.73q-1.049-1.066-2.1-2.126c-.781-.79-1.561-1.581-2.332-2.38a2.7,2.7,0,0,0-2.406-.939,9.938,9.938,0,0,1-1.108.006c.251-.306.394-.513.568-.689q1.949-1.969,3.909-3.926c.578-.573.835-.572,1.423.019q4.785,4.811,9.558,9.63a2.093,2.093,0,0,1,.655,1.585c-.02,1.6-.006,3.208-.006,4.89m-28.985-8.484a2.575,2.575,0,0,0,2.568,2.646,2.625,2.625,0,1,0,.043-5.25,2.576,2.576,0,0,0-2.611,2.6" fill="#fff"/>
        <path id="Path_48" data-name="Path 48" d="M241.762,372.685a11.508,11.508,0,0,1-9.247,2.2v-5.725c1.02,0,2.008-.043,2.992.01,1.462.079,2.98-.263,4.818-2.416a3.629,3.629,0,0,1,3.91-1.172,10.2,10.2,0,0,0,.023,1.863c.069.39.218,1.7,1.516,1.7a3.74,3.74,0,0,0,2.757-1.5c.3-.339,1.4-2.057,2.029-2.294.664-.248,1.333-.2,1.482.706.084.512.117,1.034.188,1.549.165,1.182.819,1.624,2,1.59,1.685-.048,2.771-2.032,3.085-2.505.725-1.091,1.377-1.6,2.741-1.2.051.615.1,1.25.157,1.883.132,1.452.946,2.132,2.327,1.681a5.879,5.879,0,0,0,2.925-2.718,2.3,2.3,0,0,1,2.651-.846s0,1.331.023,1.733c0,2.55,1.869,2.828,1.869,2.828v4.954c-.11-.006-.8.065-.909.052a4.436,4.436,0,0,1-3.377-2.374c-1.2,1.16-2.309,2.438-4.1,2.492-1.829.056-2.877-1.232-3.988-2.5-1.033,1.313-2.046,2.627-3.965,2.466a4.789,4.789,0,0,1-4.01-2.572c-1.047,1.328-1.944,2.762-3.9,2.59a4.879,4.879,0,0,1-4-2.474" fill="#fff"/>
        <path id="Path_49" data-name="Path 49" d="M161.515,354.991a9.068,9.068,0,1,1-9.067-9.071,9.048,9.048,0,0,1,9.067,9.071m-9.059,7.379a7.39,7.39,0,1,0-7.4-7.363,7.392,7.392,0,0,0,7.4,7.363" fill="#fff"/>
        <path id="Path_50" data-name="Path 50" d="M205.8,351.764c-.994,1.364-1.9,2.778-3.82,2.62a4.616,4.616,0,0,1-4.024-2.519,11.359,11.359,0,0,1-9.175,2.248v-5.747c1.019,0,2.01-.053,2.994.013a4.213,4.213,0,0,0,3.374-1.169c.651-.62,1.361-1.182,1.987-1.826a1.783,1.783,0,0,1,1.568-.61,14.812,14.812,0,0,0,1.484.01c.064.634.128,1.236.185,1.838.159,1.678,1.328,2.313,2.8,1.509a6.624,6.624,0,0,0,2.551-2.609,1.208,1.208,0,0,1,1.342-.747,8.055,8.055,0,0,0,1.1.009c.066.665.127,1.271.187,1.877.142,1.421,1.048,2.118,2.4,1.67a6.638,6.638,0,0,0,1.934-1.224,4.407,4.407,0,0,0,.784-1.089c.9-1.4.9-1.4,2.793-1.148a32.683,32.683,0,0,1-1.028,3.948,12.642,12.642,0,0,1-1.908,3.447c-2.026,2.45-5.432,2.992-7.534-.5" fill="#fff"/>
        <path id="Path_51" data-name="Path 51" d="M235.809,353.379a3.187,3.187,0,0,1,3.169,3.153,3.233,3.233,0,0,1-3.163,3.1,3.047,3.047,0,0,1-3.094-3.173,2.989,2.989,0,0,1,3.088-3.085" fill="#fff"/>
        <path id="Path_52" data-name="Path 52" d="M242.9,353.379a3.074,3.074,0,0,1,3.128,3.082,3.131,3.131,0,1,1-6.261-.012,3.054,3.054,0,0,1,3.133-3.07" fill="#fff"/>
        <path id="Path_53" data-name="Path 53" d="M182.277,334.444a3.118,3.118,0,1,1-3.1-3.135,3.135,3.135,0,0,1,3.1,3.135" fill="#fff"/>
        <path id="Path_54" data-name="Path 54" d="M211.137,341.794a3.108,3.108,0,1,1,.087-6.216,3.143,3.143,0,0,1,3.08,3.164,3.088,3.088,0,0,1-3.167,3.052" fill="#fff"/>
        <path id="Path_55" data-name="Path 55" d="M199.1,338.713a3.12,3.12,0,1,1-3.107-3.136,3.142,3.142,0,0,1,3.107,3.136" fill="#fff"/>
        <path id="Path_56" data-name="Path 56" d="M203.275,341.8a3.109,3.109,0,0,1,.077-6.217,3.151,3.151,0,0,1,3.09,3.159,3.106,3.106,0,0,1-3.167,3.058" fill="#fff"/>
        <path id="Path_57" data-name="Path 57" d="M272.437,381.515a2.994,2.994,0,0,1,3.191-2.984,3.088,3.088,0,1,1-.193,6.173,3.021,3.021,0,0,1-3-3.189" fill="#fff"/>
        <path id="Path_58" data-name="Path 58" d="M225.518,378.531a3.086,3.086,0,1,1-3.1,3.1,3.024,3.024,0,0,1,3.1-3.1" fill="#fff"/>
        <path id="Path_59" data-name="Path 59" d="M197.953,387.286a3.018,3.018,0,0,1-3.086,3.1,3.086,3.086,0,1,1-.029-6.172,3.025,3.025,0,0,1,3.115,3.073" fill="#fff"/>
        <path id="Path_60" data-name="Path 60" d="M191.025,396.885h2.2v5.686c-2.669,0-5.364,0-7.542,0-.091,0-.184-.019-.387-.04v-.822c0-3.128.015-6.253,0-9.381a4.344,4.344,0,0,0-8.562-1.258,3.908,3.908,0,0,0,2.792,4.551c.046.015.258.066.554.134a2.858,2.858,0,0,1-.646,5.641,3.04,3.04,0,0,1-.368-.023c-.184-.024-.317-.043-.368-.055a9.592,9.592,0,0,1-6.729-13.734,9.95,9.95,0,0,1,10.276-5.467,9.556,9.556,0,0,1,8.395,7.558,47.366,47.366,0,0,1,.388,6.152c.017.326,0,.652,0,1.056" fill="#fff"/>
        <path id="Path_61" data-name="Path 61" d="M204.714,393.723l-.006.993a7.9,7.9,0,0,1-7.9,7.853h-2.489v-5.684l2.614,0a2.249,2.249,0,0,0,2.25-2.249V393.8a2.814,2.814,0,0,1,2.629-2.838,2.764,2.764,0,0,1,2.9,2.76" fill="#fff"/>
        <path id="Path_62" data-name="Path 62" d="M224.547,388.056a10.353,10.353,0,0,0-6.454,3.16l-5.223,5.226v-14.98a5.364,5.364,0,0,0-5.365,5.362v15.331h7.383l2.076-1.979,2.07,2.11.009-.012a8.174,8.174,0,1,0,5.5-14.218m.118,11.087a3.086,3.086,0,1,1,3.082-3.1,3.015,3.015,0,0,1-3.082,3.1" fill="#fff"/>
        <path id="Path_63" data-name="Path 63" d="M244.162,396.212c.442,0,.883,0,1.319,0v5.849l-1.675-.011a7.774,7.774,0,0,1-7.722-7.773v-7.26a5.552,5.552,0,0,1,5.553-5.553v12.231a2.519,2.519,0,0,0,2.525,2.519" fill="#fff"/>
        <path id="Path_64" data-name="Path 64" d="M276.4,392.734a32.639,32.639,0,0,1-1.029,3.948,12.645,12.645,0,0,1-1.907,3.448c-2.026,2.451-5.432,2.991-7.534-.5-1,1.362-1.9,2.777-3.82,2.619a4.617,4.617,0,0,1-4.024-2.519,10.982,10.982,0,0,1-8.012,2.369c-.1-.005-1.558-.019-3.491-.032V396.21c2.661,0,4.932.008,5.322.034a4.213,4.213,0,0,0,3.374-1.169c.65-.62,1.361-1.183,1.986-1.825a1.784,1.784,0,0,1,1.568-.611,14.525,14.525,0,0,0,1.484.01c.065.635.129,1.236.186,1.838.159,1.678,1.329,2.313,2.8,1.509a6.635,6.635,0,0,0,2.551-2.608,1.209,1.209,0,0,1,1.342-.749,7.894,7.894,0,0,0,1.105.01c.068.684.129,1.3.191,1.927a1.8,1.8,0,0,0,2.434,1.61,6.81,6.81,0,0,0,1.9-1.213,4.4,4.4,0,0,0,.783-1.09c.9-1.4.9-1.4,2.794-1.149" fill="#fff"/>
        <path id="Path_65" data-name="Path 65" d="M187.634,348.2V354a8.456,8.456,0,0,1-7.362-1.977c-1.526,1.79-3.546,2.019-5.652,1.985-.739-.011-1.922-.032-2.779-.047a5.031,5.031,0,0,1-2.009-.454l-1.12-.561v.793c.034.432.051.872.051,1.313a16.662,16.662,0,0,1-14.98,16.576v-5.872c4.924-.688,9.185-4.369,9.54-9.792,0,0-.078-13.3-.008-13.232-.005-1.549-.017-3.885-.026-6.048a5.422,5.422,0,0,1,5.423-5.444c.019.161,0,8.173,0,13.071a3.727,3.727,0,0,0,3.728,3.726c1.609,0,3.272,0,3.927,0a1.23,1.23,0,0,0-.832-1.647c-1.091-.438-2.221-.783-3.4-1.19v-4.9h14.4v5.133h-3.952c1.457,1.59,2.947,2.678,5.051,2.773" fill="#fff"/>
        <path id="Path_66" data-name="Path 66" d="M158.423,353.112l-1.094.343a5.047,5.047,0,0,1,.236,1.513l1.135-.243a6.213,6.213,0,0,0-.277-1.613m-2.572-3.387-.959.777a5.1,5.1,0,0,1,2.1,2.146l1.056-.465a6.243,6.243,0,0,0-2.2-2.458" fill="#fff"/>
        <path id="Path_67" data-name="Path 67" d="M194.268,379.4l-41.715.042a24.165,24.165,0,0,1-9.172-1.8v-6.03a2.675,2.675,0,0,1,.6.226,18.62,18.62,0,0,0,8.573,2.075c.523,0,35.922-.178,35.922-.178a3.433,3.433,0,0,0-3.339-4.346c-1.776-.045-3.554-.011-5.33-.011H175.7c0-1.193.017-3.219.036-5.232a6.158,6.158,0,0,1,6.157-6.1s.017,4.508.017,5.613c1.1,0,2.083-.017,3.069,0a9.085,9.085,0,0,1,8.321,4.992,8.5,8.5,0,0,1,1.01,4.024c.026,2.108-.038,6.716-.038,6.716" fill="#fff"/>
        <path id="Path_68" data-name="Path 68" d="M274.506,310.2q1.8,1.813,3.485,3.738" fill="none" stroke="#fff" stroke-linecap="round" stroke-miterlimit="10" stroke-width="5"/>
        <path id="Path_69" data-name="Path 69" d="M246.843,291.843q2.145.859,4.228,1.835a81.524,81.524,0,0,1,8.607,4.68q2.549,1.59,4.969,3.36" fill="none" stroke="#fff" stroke-linecap="round" stroke-miterlimit="10" stroke-width="5"/>
        <path id="Path_70" data-name="Path 70" d="M242.34,456.894a92.232,92.232,0,0,1-35.62,3.177" fill="none" stroke="#fff" stroke-linecap="round" stroke-miterlimit="10" stroke-width="0.75"/>
        <path id="Path_71" data-name="Path 71" d="M298.32,324.294a92.738,92.738,0,0,1-38.375,125.429" fill="none" stroke="#fff" stroke-linecap="round" stroke-miterlimit="10" stroke-width="0.75"/>
        <path id="Path_72" data-name="Path 72" d="M134.516,411.348a92.762,92.762,0,0,1,91.509-135.787" fill="none" stroke="#fff" stroke-linecap="round" stroke-miterlimit="10" stroke-width="0.75"/>
        <line id="Line_1" data-name="Line 1" y2="19.565" transform="translate(222.294 502.811)" fill="none" stroke="#fff" stroke-linecap="round" stroke-miterlimit="10" stroke-width="0.75"/>
        <line id="Line_2" data-name="Line 2" y1="8.609" transform="translate(210.405 518.463)" fill="none" stroke="#fff" stroke-linecap="round" stroke-miterlimit="10" stroke-width="0.75"/>
        <path id="Path_73" data-name="Path 73" d="M229.046,488.338l-.84.127a75.862,75.862,0,0,1-22.5.042l-1.142-.169v-5.087l1.011.151a75.837,75.837,0,0,0,22.726-.038l.741-.113Z" fill="#fff"/>
        <path id="Path_74" data-name="Path 74" d="M229.046,483.251l-.741.113a75.837,75.837,0,0,1-22.726.038l-1.011-.151v-5.087a75.864,75.864,0,0,0,24.478,0Z" fill="#7ebf00"/>
        <path id="Path_75" data-name="Path 75" d="M229.046,493.425l-.593.092a75.864,75.864,0,0,1-22.735.078l-1.15-.17v-5.087l1.15.17a75.864,75.864,0,0,0,22.735-.078l.593-.092Z" fill="#db3357"/>
        <line id="Line_3" data-name="Line 3" y1="58.294" transform="translate(204.568 468.778)" fill="none" stroke="#fff" stroke-linecap="round" stroke-miterlimit="10" stroke-width="0.75"/>
        <line id="Line_4" data-name="Line 4" y2="38.337" transform="translate(229.046 468.778)" fill="none" stroke="#fff" stroke-linecap="round" stroke-miterlimit="10" stroke-width="0.75"/>
        <path id="Path_76" data-name="Path 76" d="M309.83,407.118a100.982,100.982,0,1,1-185.3-80.312" fill="none" stroke="#fff" stroke-linecap="round" stroke-miterlimit="10" stroke-width="0.75"/>
        <path id="Path_77" data-name="Path 77" d="M176.181,275.372A101.054,101.054,0,0,1,313.225,337.8" fill="none" stroke="#fff" stroke-linecap="round" stroke-miterlimit="10" stroke-width="0.75"/>
        <path id="Path_78" data-name="Path 78" d="M152.446,463.766a114.854,114.854,0,0,0,39.289,16.839" fill="none" stroke="#fff" stroke-linecap="round" stroke-miterlimit="10" stroke-width="0.75"/>
        <path id="Path_79" data-name="Path 79" d="M102.871,387.01a114.651,114.651,0,0,0,6.894,24.339" fill="none" stroke="#fff" stroke-linecap="round" stroke-miterlimit="10" stroke-width="0.75"/>
        <path id="Path_80" data-name="Path 80" d="M107.195,331.255a114.423,114.423,0,0,1,11.12-23.84" fill="none" stroke="#fff" stroke-linecap="round" stroke-miterlimit="10" stroke-width="0.75"/>
        <path id="Path_81" data-name="Path 81" d="M127.575,294.465a115.693,115.693,0,0,1,119-38.3" fill="none" stroke="#fff" stroke-linecap="round" stroke-miterlimit="10" stroke-width="0.75"/>
        <path id="Path_82" data-name="Path 82" d="M301.124,446.8A115.607,115.607,0,0,0,319.88,315.591" fill="none" stroke="#fff" stroke-linecap="round" stroke-miterlimit="10" stroke-width="0.75"/>
        <path id="Path_83" data-name="Path 83" d="M240.785,480.845a114.694,114.694,0,0,0,26.469-9.07" fill="none" stroke="#fff" stroke-linecap="round" stroke-miterlimit="10" stroke-width="0.75"/>
        <path id="Path_84" data-name="Path 84" d="M191.735,519.225a151.085,151.085,0,0,1-21.74-5.24" fill="none" stroke="#fff" stroke-linecap="round" stroke-miterlimit="10" stroke-width="0.75"/>
        <path id="Path_85" data-name="Path 85" d="M107.195,475.2a153.724,153.724,0,0,0,48.05,33.22" fill="none" stroke="#fff" stroke-linecap="round" stroke-miterlimit="10" stroke-width="0.75"/>
        <path id="Path_86" data-name="Path 86" d="M75.975,428.825q2.535,5.85,5.53,11.43a152.707,152.707,0,0,0,9.09,14.85" fill="none" stroke="#fff" stroke-linecap="round" stroke-miterlimit="10" stroke-width="0.75"/>
        <path id="Path_87" data-name="Path 87" d="M63.365,367.825a152.956,152.956,0,0,0,8.91,51.61" fill="none" stroke="#fff" stroke-linecap="round" stroke-miterlimit="10" stroke-width="0.75"/>
        <path id="Path_88" data-name="Path 88" d="M147.245,231.012a154.129,154.129,0,0,0-54.081,45.923" fill="none" stroke="#fff" stroke-linecap="round" stroke-miterlimit="10" stroke-width="0.75"/>
        <path id="Path_89" data-name="Path 89" d="M216.8,214.375a153.211,153.211,0,0,1,112.43,49.03" fill="none" stroke="#fff" stroke-linecap="round" stroke-miterlimit="10" stroke-width="0.75"/>
        <path id="Path_90" data-name="Path 90" d="M338.075,273.8a152.761,152.761,0,0,1,32.17,94.02" fill="none" stroke="#fff" stroke-linecap="round" stroke-miterlimit="10" stroke-width="0.75"/>
        <path id="Path_91" data-name="Path 91" d="M351.885,440.665q-2.145,3.96-4.5,7.78" fill="none" stroke="#fff" stroke-linecap="round" stroke-miterlimit="10" stroke-width="0.75"/>
        <path id="Path_92" data-name="Path 92" d="M240.785,519.4a152.556,152.556,0,0,0,64.86-26.45,154.349,154.349,0,0,0,35.17-34.73" fill="none" stroke="#fff" stroke-linecap="round" stroke-miterlimit="10" stroke-width="0.75"/>
        <path id="Path_93" data-name="Path 93" d="M162.615,141.375c1.83-.43,3.67-.85,5.52-1.24a234.752,234.752,0,0,1,102.39,1.13" fill="none" stroke="#fff" stroke-linecap="round" stroke-miterlimit="10" stroke-width="0.75"/>
        <path id="Path_94" data-name="Path 94" d="M115.845,158.005q6.12-2.94,12.43-5.54,5.94-2.46,12.05-4.57" fill="none" stroke="#fff" stroke-linecap="round" stroke-miterlimit="10" stroke-width="0.75"/>
        <path id="Path_95" data-name="Path 95" d="M46.855,208.745a235.282,235.282,0,0,0-16.56,19.76" fill="none" stroke="#fff" stroke-linecap="round" stroke-miterlimit="10" stroke-width="0.75"/>
        <path id="Path_96" data-name="Path 96" d="M.375,281.955a232.388,232.388,0,0,1,19.95-39.02" fill="none" stroke="#fff" stroke-linecap="round" stroke-miterlimit="10" stroke-width="0.75"/>
        <path id="Path_97" data-name="Path 97" d="M428.225,465.385a233.52,233.52,0,0,1-46.85,67.08" fill="none" stroke="#fff" stroke-linecap="round" stroke-miterlimit="10" stroke-width="0.75"/>
        <path id="Path_98" data-name="Path 98" d="M52.255,532.465a233.021,233.021,0,0,1-51.88-78.79" fill="none" stroke="#fff" stroke-linecap="round" stroke-miterlimit="10" stroke-width="0.75"/>
        <path id="Path_99" data-name="Path 99" d="M428.225,270.265a228.209,228.209,0,0,0-11.26-21.34" fill="none" stroke="#fff" stroke-linecap="round" stroke-miterlimit="10" stroke-width="0.75"/>
        <path id="Path_100" data-name="Path 100" d="M353.875,179.645a234.511,234.511,0,0,1,41.49,38.81q1.815,2.175,3.59,4.4" fill="none" stroke="#fff" stroke-linecap="round" stroke-miterlimit="10" stroke-width="0.75"/>
        <path id="Path_101" data-name="Path 101" d="M73.955,29.175A368.372,368.372,0,0,1,384.725,40.9" fill="none" stroke="#fff" stroke-linecap="round" stroke-miterlimit="10" stroke-width="0.75"/>
        <path id="Path_102" data-name="Path 102" d="M32.045,50.135A368.889,368.889,0,0,0,.375,70.845" fill="none" stroke="#fff" stroke-linecap="round" stroke-miterlimit="10" stroke-width="0.75"/>
        <circle id="Ellipse_1" data-name="Ellipse 1" cx="5.087" cy="5.087" r="5.087" transform="translate(69.635 418.811)" fill="none" stroke="#fff" stroke-linecap="round" stroke-miterlimit="10" stroke-width="0.75"/>
        <path id="Path_103" data-name="Path 103" d="M170.708,510.719a7.908,7.908,0,1,1-7.908-7.908A7.908,7.908,0,0,1,170.708,510.719Z" fill="none" stroke="#fff" stroke-linecap="round" stroke-miterlimit="10" stroke-width="0.75"/>
        <path id="Path_104" data-name="Path 104" d="M129.728,299.976a8.133,8.133,0,1,1-8.133-8.133A8.133,8.133,0,0,1,129.728,299.976Z" fill="none" stroke="#fff" stroke-linecap="round" stroke-miterlimit="10" stroke-width="0.75"/>
        <path id="Path_105" data-name="Path 105" d="M341,268.2a6.858,6.858,0,1,1-6.859-6.859A6.859,6.859,0,0,1,341,268.2Z" fill="none" stroke="#fff" stroke-linecap="round" stroke-miterlimit="10" stroke-width="0.75"/>
        <circle id="Ellipse_2" data-name="Ellipse 2" cx="11.688" cy="11.688" r="11.688" transform="translate(135.841 149.733) rotate(-67.5)" fill="none" stroke="#fff" stroke-linecap="round" stroke-miterlimit="10" stroke-width="0.75"/>
        <path id="Path_106" data-name="Path 106" d="M428.375,100.115a40.324,40.324,0,0,1-5.3.35,40.76,40.76,0,1,1,0-81.52,40.325,40.325,0,0,1,5.3.35" fill="none" stroke="#fff" stroke-linecap="round" stroke-miterlimit="10" stroke-width="0.75"/>
        <circle id="Ellipse_3" data-name="Ellipse 3" cx="23.495" cy="23.495" r="23.495" transform="translate(20.523 48.031) rotate(-62.254)" fill="none" stroke="#fff" stroke-linecap="round" stroke-miterlimit="10" stroke-width="0.75"/>
        <path id="Path_107" data-name="Path 107" d="M423.072,236.422A15.872,15.872,0,1,1,407.2,220.549,15.873,15.873,0,0,1,423.072,236.422Z" fill="none" stroke="#fff" stroke-linecap="round" stroke-miterlimit="10" stroke-width="0.75"/>
        <path id="Path_108" data-name="Path 108" d="M35.172,236.422a8.858,8.858,0,1,1-8.857-8.857A8.857,8.857,0,0,1,35.172,236.422Z" fill="none" stroke="#fff" stroke-linecap="round" stroke-miterlimit="10" stroke-width="0.75"/>
        <path id="Path_109" data-name="Path 109" d="M349.233,452.769a5.973,5.973,0,1,1-5.973-5.973A5.973,5.973,0,0,1,349.233,452.769Z" fill="none" stroke="#fff" stroke-linecap="round" stroke-miterlimit="10" stroke-width="0.75"/>
        <path id="Path_110" data-name="Path 110" d="M287.672,442.4a3.107,3.107,0,1,1-3.107-3.107,3.107,3.107,0,0,1,3.107,3.107" fill="#fff"/>
        <path id="Path_111" data-name="Path 111" d="M129.864,342.813a3.107,3.107,0,1,1-3.107-3.107,3.107,3.107,0,0,1,3.107,3.107" fill="#fff"/>
        <path id="Path_112" data-name="Path 112" d="M69.579,343.2a3.107,3.107,0,1,1-3.107-3.107,3.107,3.107,0,0,1,3.107,3.107" fill="#fff"/>
        <path id="Path_113" data-name="Path 113" d="M370.245,381.618a3.107,3.107,0,1,1-3.107-3.107,3.107,3.107,0,0,1,3.107,3.107" fill="#fff"/>
        <path id="Path_114" data-name="Path 114" d="M110.3,162.068a3.107,3.107,0,1,1-3.107-3.107,3.107,3.107,0,0,1,3.107,3.107" fill="#fff"/>
        <path id="Path_115" data-name="Path 115" d="M399.734,242.331a.859.859,0,0,0,.278.562q.591.592,1.184,1.184a.67.67,0,0,0,1,.088q.531-.373,1.057-.754a.807.807,0,0,1,.868-.086c.373.169.754.323,1.138.467a.809.809,0,0,1,.559.694c.064.428.138.854.215,1.28a.666.666,0,0,0,.731.611q.86.008,1.718,0a.671.671,0,0,0,.728-.616c.075-.419.153-.837.213-1.258a.835.835,0,0,1,.588-.722c.384-.142.764-.3,1.136-.47a.819.819,0,0,1,.906.089c.335.25.678.49,1.02.731a.669.669,0,0,0,1-.08q.585-.582,1.167-1.168a.688.688,0,0,0,.083-1.019c-.245-.348-.49-.7-.74-1.04a.792.792,0,0,1-.087-.848c.179-.4.349-.807.507-1.217a.785.785,0,0,1,.664-.532c.427-.066.854-.14,1.28-.215a.673.673,0,0,0,.629-.739q.006-.858,0-1.717a.655.655,0,0,0-.618-.722c-.418-.074-.837-.152-1.257-.214a.827.827,0,0,1-.707-.576c-.146-.39-.3-.778-.478-1.156A.808.808,0,0,1,414.6,232c.247-.337.488-.679.73-1.02a.686.686,0,0,0-.084-1.019q-.582-.587-1.168-1.168a.658.658,0,0,0-.979-.088c-.354.248-.708.5-1.058.753a.8.8,0,0,1-.868.084c-.407-.182-.82-.355-1.238-.512a.81.81,0,0,1-.555-.7c-.064-.421-.137-.84-.214-1.258a.66.66,0,0,0-.712-.608q-.869-.009-1.739,0a.675.675,0,0,0-.724.623c-.075.426-.153.851-.217,1.279a.817.817,0,0,1-.555.7q-.594.228-1.174.495a.805.805,0,0,1-.886-.087c-.341-.253-.688-.5-1.035-.746a.668.668,0,0,0-.966.074q-.594.588-1.185,1.181a.681.681,0,0,0-.09,1.017q.373.532.753,1.058a.8.8,0,0,1,.083.85c-.172.4-.337.795-.487,1.2a.8.8,0,0,1-.674.553c-.42.065-.838.14-1.257.214a.675.675,0,0,0-.633.736c0,.565,0,1.131,0,1.7a.675.675,0,0,0,.622.745c.426.077.852.153,1.28.218a.823.823,0,0,1,.7.555c.151.4.314.79.493,1.175a.8.8,0,0,1-.084.886c-.249.336-.495.675-.73,1.02A3.462,3.462,0,0,0,399.734,242.331Z" fill="none" stroke="#fff" stroke-miterlimit="10" stroke-width="0.75"/>
        <path id="Path_116" data-name="Path 116" d="M407.62,239.486a3.063,3.063,0,1,0-3.063-3.074A3.074,3.074,0,0,0,407.62,239.486Z" fill="none" stroke="#fff" stroke-miterlimit="10" stroke-width="0.75"/>
        <path id="Path_117" data-name="Path 117" d="M64.2,36.414c-.155.036-.277.059-.4.094q-4.828,1.428-9.657,2.86a6.154,6.154,0,0,1-3.571.047q-5.854-1.731-11.709-3.456a1.1,1.1,0,0,1-.832-.726v-.316a1.078,1.078,0,0,1,.75-.69c3.02-.886,6.034-1.792,9.055-2.673,1.3-.377,2.6-.708,3.907-1.06H52.7c.379.075.766.122,1.135.23,3.933,1.156,7.862,2.326,11.8,3.48a1.109,1.109,0,0,1,.843.713V35.3a1.13,1.13,0,0,1-.9.691c-.3.051-.373.207-.363.5v4.047" fill="none" stroke="#fff" stroke-linecap="round" stroke-miterlimit="10" stroke-width="0.75"/>
        <path id="Path_118" data-name="Path 118" d="M61.551,39.332c.007.127.019.235.019.344,0,.93,0,3.987,0,5.821a1.809,1.809,0,0,1-1.388,1.759,32.7,32.7,0,0,1-14.14.25l-1.419-.288a1.81,1.81,0,0,1-1.451-1.771c0-1.859,0-4.934,0-5.945a.547.547,0,0,1,.034-.12" fill="none" stroke="#fff" stroke-linecap="round" stroke-miterlimit="10" stroke-width="0.75"/>
        <path id="Path_119" data-name="Path 119" d="M66.191,41.426c0,.493.007,2.041.007,2.041l-.9.686-.9-.686V41.426a.893.893,0,0,1,1.785,0Z" fill="none" stroke="#fff" stroke-linecap="round" stroke-miterlimit="10" stroke-width="0.75"/>
        <path id="Path_120" data-name="Path 120" d="M428.225,58.731H406.4c.577,6.817,2.956,12.819,9.16,16.549a12.721,12.721,0,0,0,7.926,1.954,12.4,12.4,0,0,0,4.891-1.213" fill="none" stroke="#fff" stroke-linecap="round" stroke-miterlimit="10" stroke-width="0.75"/>
        <path id="Path_121" data-name="Path 121" d="M392.865,87.075a16.465,16.465,0,0,1,6-5.99V92.5" fill="none" stroke="#fff" stroke-linecap="round" stroke-miterlimit="10" stroke-width="0.75"/>
        <path id="Path_122" data-name="Path 122" d="M416.24,34.217a12.824,12.824,0,0,1,4.268-.63s.609-1.349,1.045-1.349c1.067,0,.863,0,1.931,0s.863,0,1.931,0c.435,0,1.044,1.349,1.044,1.349l1.766.05" fill="none" stroke="#fff" stroke-linecap="round" stroke-miterlimit="10" stroke-width="0.75"/>
        <path id="Path_123" data-name="Path 123" d="M428.225,55.2H406.161l-1.6-.16a2.155,2.155,0,0,1-1.9-2.556l.2-1.035a2.156,2.156,0,0,1,2.21-1.743s1.457-8.383,6.92-13.058" fill="none" stroke="#fff" stroke-linecap="round" stroke-miterlimit="10" stroke-width="0.75"/>
        <path id="Path_124" data-name="Path 124" d="M428.225,82.061c-14.992,1.859-19.9-7.286-19.9-7.286l-2.5,1.07s.08,2.8.06,3.65c-.1,4.21-.05,8.42-.05,12.62v4.54" fill="none" stroke="#fff" stroke-linecap="round" stroke-miterlimit="10" stroke-width="0.75"/>
        <path id="Path_125" data-name="Path 125" d="M412.157,36.944v6.89a1.933,1.933,0,0,0,3.867,0V34.295" fill="none" stroke="#fff" stroke-linecap="round" stroke-miterlimit="10" stroke-width="0.75"/>
    </g>
</svg>
