<svg xmlns="http://www.w3.org/2000/svg" xmlns:xlink="http://www.w3.org/1999/xlink" width="162" height="144" viewBox="0 0 162 144">
  <defs>
    <clipPath id="clip-path">
      <rect id="Rectangle_40" data-name="Rectangle 40" width="162" height="144" fill="#fff" stroke="#707070" stroke-width="1"/>
    </clipPath>
  </defs>
  <g id="Mask_Group_1" data-name="Mask Group 1" clip-path="url(#clip-path)">
    <g id="Group_58" data-name="Group 58" transform="translate(-2.142 -58.302)">
      <path id="Path_53" data-name="Path 53" d="M185.127,335.877a4.543,4.543,0,1,1-4.524-4.568,4.568,4.568,0,0,1,4.524,4.568" transform="translate(-162.969 -255.598)" fill="#0064c7"/>
      <path id="Path_57" data-name="Path 57" d="M272.437,380.258a1.733,1.733,0,0,1,1.847-1.728,1.788,1.788,0,1,1-.112,3.574,1.749,1.749,0,0,1-1.736-1.846" transform="translate(-203.559 -270.022)" fill="#0064c7"/>
      <path id="Path_68" data-name="Path 68" d="M274.506,310.2q1.042,1.05,2.018,2.164" transform="translate(-204.43 -241.248)" fill="none" stroke="#0064c7" stroke-linecap="round" stroke-miterlimit="10" stroke-width="2"/>
      <path id="Path_69" data-name="Path 69" d="M246.843,291.843q1.242.5,2.448,1.062a47.193,47.193,0,0,1,4.983,2.709q1.475.92,2.877,1.945" transform="translate(-192.782 -233.52)" fill="none" stroke="#0064c7" stroke-linecap="round" stroke-miterlimit="10" stroke-width="2"/>
      <line id="Line_2" data-name="Line 2" y1="4.984" transform="translate(32.966 189.519)" fill="none" stroke="#fff" stroke-linecap="round" stroke-miterlimit="10" stroke-width="0.75"/>
      <path id="Path_77" data-name="Path 77" d="M176.181,271.79a58.5,58.5,0,0,1,79.338,36.141" transform="translate(-163.028 -223.002)" fill="none" stroke="#0064c7" stroke-linecap="round" stroke-miterlimit="10" stroke-width="0.75"/>
      <path id="Path_78" data-name="Path 78" d="M152.446,463.766a66.492,66.492,0,0,0,22.745,9.749" transform="translate(-153.034 -305.912)" fill="none" stroke="#0064c7" stroke-linecap="round" stroke-miterlimit="10" stroke-width="0.75"/>
      <path id="Path_81" data-name="Path 81" d="M127.575,276.708a66.978,66.978,0,0,1,68.892-22.173" transform="translate(-142.561 -216.867)" fill="none" stroke="#0064c7" stroke-linecap="round" stroke-miterlimit="10" stroke-width="0.75"/>
      <path id="Path_82" data-name="Path 82" d="M301.124,391.549a66.927,66.927,0,0,0,10.858-75.958" transform="translate(-215.638 -243.519)" fill="none" stroke="#0064c7" stroke-linecap="round" stroke-miterlimit="10" stroke-width="0.75"/>
      <path id="Path_83" data-name="Path 83" d="M240.785,477.026a66.4,66.4,0,0,0,15.324-5.251" transform="translate(-190.231 -309.285)" fill="none" stroke="#0064c7" stroke-linecap="round" stroke-miterlimit="10" stroke-width="0.75"/>
      <path id="Path_84" data-name="Path 84" d="M182.581,517.019a87.473,87.473,0,0,1-12.586-3.034" transform="translate(-160.423 -327.059)" fill="none" stroke="#0064c7" stroke-linecap="round" stroke-miterlimit="10" stroke-width="0.75"/>
      <path id="Path_85" data-name="Path 85" d="M107.195,475.2a88.995,88.995,0,0,0,27.817,19.232" transform="translate(-133.979 -310.725)" fill="none" stroke="#0064c7" stroke-linecap="round" stroke-miterlimit="10" stroke-width="0.75"/>
      <path id="Path_89" data-name="Path 89" d="M216.8,214.375a88.7,88.7,0,0,1,65.088,28.385" transform="translate(-180.134 -200.9)" fill="none" stroke="#0064c7" stroke-linecap="round" stroke-miterlimit="10" stroke-width="0.75"/>
      <path id="Path_90" data-name="Path 90" d="M338.075,273.8a88.437,88.437,0,0,1,18.624,54.43" transform="translate(-231.198 -225.924)" fill="none" stroke="#0064c7" stroke-linecap="round" stroke-miterlimit="10" stroke-width="0.75"/>
      <path id="Path_91" data-name="Path 91" d="M349.99,440.665q-1.242,2.293-2.605,4.5" transform="translate(-235.118 -296.185)" fill="none" stroke="#0064c7" stroke-linecap="round" stroke-miterlimit="10" stroke-width="0.75"/>
      <path id="Path_92" data-name="Path 92" d="M240.785,493.634a88.318,88.318,0,0,0,37.549-15.312,89.357,89.357,0,0,0,20.361-20.106" transform="translate(-190.231 -303.575)" fill="none" stroke="#0064c7" stroke-linecap="round" stroke-miterlimit="10" stroke-width="0.75"/>
      <path id="Path_97" data-name="Path 97" d="M408.5,465.385a135.19,135.19,0,0,1-27.123,38.834" transform="translate(-249.43 -306.594)" fill="none" stroke="#0064c7" stroke-linecap="round" stroke-miterlimit="10" stroke-width="0.75"/>
      <path id="Path_99" data-name="Path 99" d="M423.484,261.279a132.123,132.123,0,0,0-6.519-12.354" transform="translate(-264.416 -215.448)" fill="none" stroke="#0064c7" stroke-linecap="round" stroke-miterlimit="10" stroke-width="0.75"/>
      <path id="Path_100" data-name="Path 100" d="M353.875,179.645a135.764,135.764,0,0,1,24.02,22.468q1.051,1.259,2.078,2.547" transform="translate(-237.85 -186.276)" fill="none" stroke="#0064c7" stroke-linecap="round" stroke-miterlimit="10" stroke-width="0.75"/>
      <path id="Path_103" data-name="Path 103" d="M164.048,507.389a4.578,4.578,0,1,1-4.578-4.578A4.578,4.578,0,0,1,164.048,507.389Z" transform="translate(-154.063 -322.353)" fill="none" stroke="#0064c7" stroke-linecap="round" stroke-miterlimit="10" stroke-width="0.75"/>
      <path id="Path_105" data-name="Path 105" d="M335.222,265.307a3.971,3.971,0,1,1-3.971-3.971A3.971,3.971,0,0,1,335.222,265.307Z" transform="translate(-226.652 -220.674)" fill="none" stroke="#0064c7" stroke-linecap="round" stroke-miterlimit="10" stroke-width="0.75"/>
      <path id="Path_107" data-name="Path 107" d="M409.7,229.738a9.189,9.189,0,1,1-9.189-9.189A9.189,9.189,0,0,1,409.7,229.738Z" transform="translate(-253.621 -203.5)" fill="none" stroke="#0064c7" stroke-linecap="round" stroke-miterlimit="10" stroke-width="0.75"/>
      <path id="Path_109" data-name="Path 109" d="M344.2,450.254a3.458,3.458,0,1,1-3.458-3.458A3.458,3.458,0,0,1,344.2,450.254Z" transform="translate(-230.866 -298.767)" fill="none" stroke="#0064c7" stroke-linecap="round" stroke-miterlimit="10" stroke-width="0.75"/>
      <path id="Path_110" data-name="Path 110" d="M285.055,441.088a1.8,1.8,0,1,1-1.8-1.8,1.8,1.8,0,0,1,1.8,1.8" transform="translate(-207.357 -295.606)" fill="#0064c7"/>
      <path id="Path_113" data-name="Path 113" d="M367.628,380.31a1.8,1.8,0,1,1-1.8-1.8,1.8,1.8,0,0,1,1.8,1.8" transform="translate(-242.127 -270.014)" fill="#0064c7"/>
      <path id="Path_115" data-name="Path 115" d="M398.862,235.65a.5.5,0,0,0,.161.325q.342.343.685.685a.388.388,0,0,0,.577.051q.307-.216.612-.437a.467.467,0,0,1,.5-.05c.216.1.437.187.659.27a.469.469,0,0,1,.324.4c.037.248.08.494.124.741a.386.386,0,0,0,.423.354q.5,0,.995,0a.388.388,0,0,0,.421-.357c.043-.243.089-.485.123-.728a.483.483,0,0,1,.34-.418c.222-.082.442-.173.658-.272a.474.474,0,0,1,.525.052c.194.145.393.284.591.423a.388.388,0,0,0,.578-.046q.339-.337.676-.676a.4.4,0,0,0,.048-.59c-.142-.2-.284-.4-.428-.6a.458.458,0,0,1-.05-.491c.1-.232.2-.467.293-.7a.455.455,0,0,1,.384-.308c.247-.038.494-.081.741-.124a.39.39,0,0,0,.364-.428q0-.5,0-.994a.379.379,0,0,0-.358-.418c-.242-.043-.485-.088-.728-.124a.479.479,0,0,1-.409-.333c-.085-.226-.175-.45-.277-.669a.468.468,0,0,1,.05-.514c.143-.2.283-.393.423-.59a.4.4,0,0,0-.049-.59q-.337-.34-.676-.676a.381.381,0,0,0-.567-.051c-.2.144-.41.289-.612.436a.464.464,0,0,1-.5.049c-.236-.105-.475-.206-.717-.3a.469.469,0,0,1-.321-.4c-.037-.244-.079-.486-.124-.728a.382.382,0,0,0-.412-.352q-.5-.005-1.007,0a.391.391,0,0,0-.419.361c-.043.247-.089.493-.126.74a.473.473,0,0,1-.321.4q-.344.132-.68.287a.466.466,0,0,1-.513-.05c-.2-.146-.4-.29-.6-.432a.387.387,0,0,0-.559.043q-.344.34-.686.684a.394.394,0,0,0-.052.589c.144.206.289.41.436.612a.463.463,0,0,1,.048.492c-.1.229-.2.46-.282.695a.461.461,0,0,1-.39.32c-.243.038-.485.081-.728.124a.391.391,0,0,0-.366.426c0,.327,0,.655,0,.982a.391.391,0,0,0,.36.431c.247.045.493.089.741.126a.476.476,0,0,1,.4.321c.087.23.182.457.285.68a.466.466,0,0,1-.049.513c-.144.195-.287.391-.423.59A2,2,0,0,0,398.862,235.65Z" transform="translate(-256.289 -205.99)" fill="none" stroke="#0064c7" stroke-miterlimit="10" stroke-width="0.75"/>
      <path id="Path_116" data-name="Path 116" d="M406.33,236.906a1.774,1.774,0,1,0-1.773-1.78A1.78,1.78,0,0,0,406.33,236.906Z" transform="translate(-259.191 -208.894)" fill="none" stroke="#0064c7" stroke-miterlimit="10" stroke-width="0.75"/>
      <g id="Path_560" data-name="Path 560" transform="translate(5 72)" fill="none">
        <path d="M32.5,0A32.5,32.5,0,1,1,0,32.5,32.5,32.5,0,0,1,32.5,0Z" stroke="none"/>
        <path d="M 32.5 0.5 C 28.1798095703125 0.5 23.98910903930664 1.346000671386719 20.0443115234375 3.014511108398438 C 16.23382949829102 4.626209259033203 12.81156921386719 6.933601379394531 9.872581481933594 9.872581481933594 C 6.933601379394531 12.81156921386719 4.626209259033203 16.23382949829102 3.014511108398438 20.0443115234375 C 1.346000671386719 23.98910903930664 0.5 28.1798095703125 0.5 32.5 C 0.5 36.8201904296875 1.346000671386719 41.01088714599609 3.014511108398438 44.9556884765625 C 4.626209259033203 48.76617050170898 6.933601379394531 52.18843078613281 9.872581481933594 55.12741851806641 C 12.81156921386719 58.06639862060547 16.23382949829102 60.3737907409668 20.0443115234375 61.98548889160156 C 23.98910903930664 63.65399932861328 28.1798095703125 64.5 32.5 64.5 C 36.8201904296875 64.5 41.01088714599609 63.65399932861328 44.9556884765625 61.98548889160156 C 48.76617050170898 60.3737907409668 52.18843078613281 58.06639862060547 55.12741851806641 55.12741851806641 C 58.06639862060547 52.18843078613281 60.3737907409668 48.76617050170898 61.98548889160156 44.9556884765625 C 63.65399932861328 41.01088714599609 64.5 36.8201904296875 64.5 32.5 C 64.5 28.1798095703125 63.65399932861328 23.98910903930664 61.98548889160156 20.0443115234375 C 60.3737907409668 16.23382949829102 58.06639862060547 12.81156921386719 55.12741851806641 9.872581481933594 C 52.18843078613281 6.933601379394531 48.76617050170898 4.626209259033203 44.9556884765625 3.014511108398438 C 41.01088714599609 1.346000671386719 36.8201904296875 0.5 32.5 0.5 M 32.5 0 C 50.44924926757812 0 65 14.55075073242188 65 32.5 C 65 50.44924926757812 50.44924926757812 65 32.5 65 C 14.55075073242188 65 0 50.44924926757812 0 32.5 C 0 14.55075073242188 14.55075073242188 0 32.5 0 Z" stroke="none" fill="#0064c7"/>
      </g>
    </g>
  </g>
</svg>
