<svg xmlns="http://www.w3.org/2000/svg" xmlns:xlink="http://www.w3.org/1999/xlink" width="111.144" height="89.464" viewBox="0 0 111.144 89.464">
    <defs>
        <clipPath id="clip-path">
            <rect id="Rectangle_2" data-name="Rectangle 2" width="111.144" height="89.464" transform="translate(0.008 0.001)" fill="none"/>
        </clipPath>
    </defs>
    <g id="Group_4" data-name="Group 4" transform="translate(-0.008 -0.001)">
        <g id="Group_3" data-name="Group 3" clip-path="url(#clip-path)">
            <path id="Path_2" data-name="Path 2" d="M49.167,44.2a1.289,1.289,0,0,0-2.337.171c-.166.326-.322.658-.456,1-.055.139-.111.373-.041.45.477.524.022.765-.293,1.039a7.552,7.552,0,0,0-2.419,3.518c-.313,1.031-.168,1.39.789,1.882,1.013.52,1.116.922.411,1.851A4.556,4.556,0,0,1,41.4,55.928c-2.728.206-3.943-1.37-3.058-3.967.376-1.1.883-2.158,1.321-3.239.149-.367.269-.745.4-1.119l-.217-.086a1.834,1.834,0,0,0-.227.3,34.8,34.8,0,0,0-1.651,3.619,13.15,13.15,0,0,0-.791,3.8,3.069,3.069,0,0,0,3.859,3.355,4.754,4.754,0,0,0,2.175-1.071,8.932,8.932,0,0,0,2.952-5.947,1.731,1.731,0,0,0-.931-1.955c-.448-.226-.557-.576-.134-.908.893-.7,1.845-1.332,2.716-2.06a8.839,8.839,0,0,0,1.449-1.581.957.957,0,0,0-.1-.864" fill="#fff"/>
            <path id="Path_3" data-name="Path 3" d="M74.755,48.086c.793-.633,1.407-1.631,2.676-1.322a.4.4,0,0,0,.317-.2,16.3,16.3,0,0,0,.772-1.823c.122-.379-.045-.674-.513-.425a9.96,9.96,0,0,0-5.287,6.5c-.291,1.137.085,1.639,1.216,2,.749.237.854.438.489,1.135a4.615,4.615,0,0,1-3.673,2.574c-2.6.314-3.753-1.086-3.051-3.606q.009-.033.021-.066c.538-1.359,1.081-2.716,1.61-4.078a8.086,8.086,0,0,0,.228-.837l-.183-.064a1.933,1.933,0,0,0-.267.344c-.609,1.306-1.239,2.6-1.8,3.929a8.766,8.766,0,0,0-.768,4.348A2.762,2.762,0,0,0,68.8,59.172a4.136,4.136,0,0,0,3.5-.819,8.644,8.644,0,0,0,3.133-7.148,1.307,1.307,0,0,0-.658-.988c-1.3-.517-.958-.962-.376-1.711a2.369,2.369,0,0,1,.359-.415" fill="#fff"/>
            <path id="Path_4" data-name="Path 4" d="M88.177,48.667c-.133-.255-.2-.393-.276-.529-.493-.911-1.227-.975-1.789-.128a13.248,13.248,0,0,0-.71,1.33c-.638,1.25-.02,1.95,1.265,1.687.025-.005.063.054.114.1-.539,1.741-2.448,2.1-3.463,3.362,1.8-.323,3.578-.7,4.1-2.806A7.336,7.336,0,0,1,89.2,48.665c.324-.376.681-.738,1.232-.459a1.067,1.067,0,0,1,.547,1.276c-.075.412-.126.829-.188,1.244l.168.07a4.395,4.395,0,0,0,.346-.574c.256-.611.47-1.24.736-1.845a2.137,2.137,0,0,1,2.525-1.46,1.237,1.237,0,0,0,1.107-1.991c-.254-.285-.513-.568-.821-.909a5.214,5.214,0,0,1,.6-.4c.807-.378,1.639-.709,2.429-1.118a5.294,5.294,0,0,0,1.33-.934.6.6,0,0,0-.286-1.1A12.418,12.418,0,0,0,96.439,40a1.984,1.984,0,0,0-1.916,2.05v.026c.856-1.249,1.9-.858,2.932-.619l.059.189c-.187.1-.37.213-.563.3a6.784,6.784,0,0,0-3.52,3.21,12.812,12.812,0,0,1-1.566,2.041c-.755-.9-1.438-1-2.069-.33-.266.281-.463.627-.722.916s-.564.558-.9.884" fill="#fff"/>
            <path id="Path_5" data-name="Path 5" d="M52.876,43.8c-.065.146-.115.3-.177.447a14.708,14.708,0,0,0-1.05,6.109,3.83,3.83,0,0,1-.815,2.7.7.7,0,0,0-.054.654,1.6,1.6,0,0,0,2.718.225,14.641,14.641,0,0,0,1.267-2.022,4.585,4.585,0,0,0,.243-.546c1.33.542,1.858.407,2.706-.66.1-.125.2-.247.3-.374a1.438,1.438,0,0,1,1.286-.643,1.514,1.514,0,0,0,.759-.37c.275-.188.5-.449.779-.634a2.614,2.614,0,0,0,.971-2.493,3.033,3.033,0,0,1-.261.534,14.907,14.907,0,0,1-1.923,1.5c-.277.245-.92.33-1.321.674a1.715,1.715,0,0,1-1.92.313,1.509,1.509,0,0,1-.825-1.6c.038-.937.113-1.872.177-2.808.045-.653.1-1.306.149-1.96l-.2-.031a10.37,10.37,0,0,0-.678,1.914c-.266,1.758-.423,3.532-.632,5.3a7.8,7.8,0,0,1-.221,1.349,2.18,2.18,0,0,1-2.6,1.507c1.644-2.9,1.151-6.127,1.543-9.225-.147.034-.2.081-.227.14" fill="#fff"/>
            <path id="Path_6" data-name="Path 6" d="M21.954,46.554a2.774,2.774,0,0,0-.347.62c-.233,1.087-.472,2.175-.645,3.272a17.38,17.38,0,0,1-.191,2.173,5.2,5.2,0,0,1-5.242,3.652c-2.242-.1-3.311-1.5-2.736-3.643.206-.769.534-1.5.8-2.26.072-.207.1-.429.186-.786-.207.148-.278.174-.308.225A11.618,11.618,0,0,0,11.7,55.235a3.277,3.277,0,0,0,3.968,3.623,5.641,5.641,0,0,0,3.522-1.964,11.088,11.088,0,0,0,2.747-6.465c.122-1.231.021-2.483.021-3.875" fill="#fff"/>
            <path id="Path_7" data-name="Path 7" d="M29.176,52.377a4.2,4.2,0,0,1,2.487-2.893,3.43,3.43,0,0,0,1.35-2.809,9.975,9.975,0,0,1-1.6,1.32,3.827,3.827,0,0,0-1.991,2.163A5.427,5.427,0,0,1,26.7,53.277a17.588,17.588,0,0,0-1.581,1.116c.307.115.415.2.513.186,1.987-.2,2.9-.34,3.549-2.2" fill="#fff"/>
            <path id="Path_8" data-name="Path 8" d="M32.936,62.718a2.931,2.931,0,0,0,.2-.359,1.354,1.354,0,0,0-.69-1.785l-.049-.02a.732.732,0,0,0-.592.245,7.488,7.488,0,0,0-.633.955C29.9,60.6,30,60.542,29.195,62.011c-.527.965-.5.957.361,1.667.387.318.65.249.908-.107.21-.289.4-.592.616-.915.159.119.273.192.371.28.775.7.913.677,1.485-.216" fill="#fff"/>
            <path id="Path_9" data-name="Path 9" d="M35.158,44.943a19.959,19.959,0,0,0-.983,3.18c-.189,1.279-.08,2.6-.142,3.9-.028.582-.158,1.16-.242,1.74l.212.082c.183-.3.392-.577.544-.887.828-1.686.714-3.519.788-5.317.039-.941.007-1.885.007-2.868-.068.061-.161.1-.183.17" fill="#fff"/>
            <path id="Path_10" data-name="Path 10" d="M64.928,44.809l-.288-.063a7.781,7.781,0,0,0-1.146,3.437c-.1,1.687-.174,3.375-.264,5.063-.009.179-.047.356-.072.533l.285.1a7.27,7.27,0,0,0,.8-1.874c.293-2.39.465-4.8.682-7.194" fill="#fff"/>
            <path id="Path_11" data-name="Path 11" d="M25.1,44.765a3.952,3.952,0,0,0-.26.382,9.281,9.281,0,0,0-.976,4.5c.012,1.158-.13,2.319-.2,3.478-.015.225-.042.449-.063.673l.233.068a12.815,12.815,0,0,0,.619-1.163c1.053-2.555.42-5.273.856-7.888l-.2-.053" fill="#fff"/>
            <path id="Path_12" data-name="Path 12" d="M81.85,52.732c.555-1.3.972-2.657,1.421-4a2.482,2.482,0,0,0,.011-.75c-.78,1.211-1.23,2.6-2.08,3.668a21.67,21.67,0,0,1-3.256,2.784,3.818,3.818,0,0,0,3.9-1.7" fill="#fff"/>
            <path id="Path_13" data-name="Path 13" d="M16.72,52.55c.313.234.547.258.815-.051.841-.967,1.323-2.221-.592-3.185-.255.438-.52.835-.726,1.261-.565,1.165-.54,1.192.5,1.974" fill="#fff"/>
            <path id="Path_14" data-name="Path 14" d="M95.27,60.134c.325-.459.594-.957.882-1.442-.035-.464-.7-1.422-1.151-1.391-.277.02-.557.405-.78.673a4.4,4.4,0,0,0-.377.724.717.717,0,0,0,.325,1.126,4.624,4.624,0,0,0,.577.358c.158.053.454.048.523-.048" fill="#fff"/>
            <path id="Path_15" data-name="Path 15" d="M8.887,76.66c-.226-.084-.529-.331-.539-.517s.272-.442.485-.567c.151-.088.4.008.6-.007a5.962,5.962,0,0,0,.609-.106c-.064-.241-.054-.56-.208-.709a.72.72,0,0,0-1.016.063.64.64,0,0,0-.041.05,13.791,13.791,0,0,0-1.386,1.6c-.664.912-.635.963.232,1.642-.3.361-.608.712-.886,1.086s-.536.776-.79,1.173c-.873,1.364-.752,2,.567,2.792.376.226.5.507.3.875a4.022,4.022,0,0,1-.665.959,4.1,4.1,0,0,1-3.237,1.141,2.047,2.047,0,0,1-2.077-2.8c.354-1.219.893-2.384,1.345-3.574.1-.261.177-.531.265-.8l-.143-.071a1.744,1.744,0,0,0-.257.335c-.6,1.365-1.275,2.7-1.738,4.114a6.988,6.988,0,0,0-.281,2.719,2.551,2.551,0,0,0,3.3,2.353,4.772,4.772,0,0,0,1.858-.945,7.467,7.467,0,0,0,2.386-4.3c.217-.964.353-1.979-.819-2.552A.541.541,0,0,1,6.71,80.1a12.343,12.343,0,0,1,1.5-1.472c.666-.515,1.412-.927,2.117-1.393a2.022,2.022,0,0,0,.92-1.271,3.016,3.016,0,0,0-.807.445,1.6,1.6,0,0,1-1.561.252" fill="#fff"/>
            <path id="Path_16" data-name="Path 16" d="M91.366,81.988a29.221,29.221,0,0,1-4.59.648,19.765,19.765,0,0,1-3.683-.307c-.736-.1-1.348-.468-1.334-1.375,0-.1-.086-.192-.133-.288l-.208-.011c-.121.815-.267,1.627-.357,2.445a1.323,1.323,0,0,0,.807,1.385,2.781,2.781,0,0,0,1.111.354A43.023,43.023,0,0,0,87.62,84.8a10.791,10.791,0,0,0,4.957-1.566,4.308,4.308,0,0,0,1.759-3.106,4.333,4.333,0,0,1-2.969,1.859" fill="#fff"/>
            <path id="Path_17" data-name="Path 17" d="M59.653,70.813v.211l.044-.044a1.643,1.643,0,0,1-.044-.167" fill="#fff"/>
            <path id="Path_18" data-name="Path 18" d="M52.965,79.14c-.167-.026-.343-.035-.51-.053l-.132-.211a2.077,2.077,0,0,0,.414-.238c1.98-1.908,3.969-3.8,5.906-5.742a6.9,6.9,0,0,0,.977-1.653.448.448,0,0,0,.035-.22c-1.408,1.319-2.843,2.656-4.242,3.992-1.426,1.354-2.825,2.726-4.233,4.089a1.311,1.311,0,0,0-.123-.1c.132-1.231.273-2.462.4-3.693a2.278,2.278,0,0,0-.229-.062,21.534,21.534,0,0,0-.739,2.409,29.288,29.288,0,0,0-.484,3.614,9.8,9.8,0,0,0,.114,2.735,1.241,1.241,0,0,0,2,.748,2.144,2.144,0,0,0,.687-.633,6.161,6.161,0,0,0,1.188-3.807,1.156,1.156,0,0,0-1.03-1.178m.167,3.069a6.7,6.7,0,0,1-1.118.721c-.643-.132-1.135-.475-1.179-.906-.044-.4.343-.8.906-.915a1.217,1.217,0,0,1,1.32.422c.123.158.176.58.07.677" fill="#fff"/>
            <path id="Path_19" data-name="Path 19" d="M18.234,76.673c-.907-.231-1.833.553-1.835,1.773.741-1.224,1.556-.769,2.5-.362-.743.646-1.135,1.569-2.3,1.44a1.656,1.656,0,0,0-1.143.38,23.669,23.669,0,0,0-1.807,1.9,5.041,5.041,0,0,0-.4.582l-.214-.061c-.342-2.351.458-4.654.469-6.99l-.2-.048a21.944,21.944,0,0,0-.714,2.328c-.223,1.134-.364,2.287-.473,3.438a18.8,18.8,0,0,0-.069,2.643,1.263,1.263,0,0,0,.9,1.264,1.282,1.282,0,0,0,1.394-.562,5.915,5.915,0,0,0,.732-1.392c.267-.7.208-.747-.512-.837a.617.617,0,0,1-.382-.192c-.039-.05.066-.247.145-.347a2.177,2.177,0,0,1,2.3-.842,1.257,1.257,0,0,0,1.3-.443c.747-.777,1.531-1.521,2.239-2.331a5.134,5.134,0,0,0,.59-1.175c-.66.031-1.167.086-1.671.065a4.544,4.544,0,0,1-.85-.23" fill="#fff"/>
            <path id="Path_20" data-name="Path 20" d="M67.214,78.207a.5.5,0,0,0-.13.191c-.23.925-.5,1.844-.662,2.782-.116.669.04,1.4-.139,2.043a4.474,4.474,0,0,1-5.029,3.153,2.034,2.034,0,0,1-1.967-2.1,2.115,2.115,0,0,1,.047-.372,16.572,16.572,0,0,1,.733-2.468l.187-.61-.12-.054a.759.759,0,0,0-.152.142,9.783,9.783,0,0,0-1.5,4.661,2.834,2.834,0,0,0,3.663,3.032A5.038,5.038,0,0,0,65,86.852a10.1,10.1,0,0,0,2.333-6.4c.024-.752,0-1.5,0-2.26-.053.007-.1,0-.123.02" fill="#fff"/>
            <path id="Path_21" data-name="Path 21" d="M78.842,80.945a1.2,1.2,0,0,1-1.085,1.305,1.224,1.224,0,0,1-.372-.024,3.814,3.814,0,0,0,.293-.577c.133-.429.2-.856-.313-1.117a2.108,2.108,0,0,0-2.626,1.243c.137.01.292-.022.393.038a7.188,7.188,0,0,1,.645.48c-.2.173-.38.454-.606.5a1.331,1.331,0,0,1-1.677-1.335,11,11,0,0,1,.083-1.643c.146-1.385.316-2.768.47-4.152a1.754,1.754,0,0,0-.033-.354l-.143-.024a13.008,13.008,0,0,0-.694,2.088c-.272,1.722-.485,3.457-.618,5.2a3.464,3.464,0,0,0,.406,1.677,1.33,1.33,0,0,0,1.758.669c.035-.016.068-.033.1-.051a12.387,12.387,0,0,0,1.532-1.155c.174-.129.4-.314.579-.288a1.792,1.792,0,0,0,1.678-.773,5.738,5.738,0,0,0,1.144-4.542,5.834,5.834,0,0,0-.916,2.842" fill="#fff"/>
            <path id="Path_22" data-name="Path 22" d="M33.7,79.107a.691.691,0,0,0-1.151.152,5.1,5.1,0,0,0-.611,1.2,1.264,1.264,0,0,0-.006.91c.191.337.578.306.949.151a.584.584,0,0,1,.506.1c.07.061.033.333-.042.46a1.821,1.821,0,0,1-1.9.625,1.287,1.287,0,0,1-1-1.35,17.315,17.315,0,0,1,.126-1.877c.148-1.38.316-2.758.476-4.138l-.174-.052a2.618,2.618,0,0,0-.211.448,28.668,28.668,0,0,0-.8,3.24,38.323,38.323,0,0,0-.3,4.335,1.553,1.553,0,0,0,1.039,1.569,1.82,1.82,0,0,0,1.967-.416,5.707,5.707,0,0,0,1.785-3.918A1.625,1.625,0,0,0,33.7,79.1" fill="#fff"/>
            <path id="Path_23" data-name="Path 23" d="M43.1,78.859c-.431-.22-.713.209-.9.55a11.271,11.271,0,0,0-.71,1.478.776.776,0,0,0,.823,1.077c.149-.006.3-.045.552-.085-.511,1.593-2.149,1.924-3.028,3.017,1.6-.27,3.117-.631,3.575-2.49.056-.226.2-.436.233-.663a8.265,8.265,0,0,0,.21-1.964,1.451,1.451,0,0,0-.753-.92" fill="#fff"/>
            <path id="Path_24" data-name="Path 24" d="M70.947,78.841c-.477-.133-.733.215-.925.562a11.71,11.71,0,0,0-.711,1.481.78.78,0,0,0,.873,1.078c.142-.012.282-.045.5-.082a3.057,3.057,0,0,1-1.344,1.669c-.591.4-1.175.812-1.762,1.218l.111.23c.476-.14.947-.307,1.43-.416a2.689,2.689,0,0,0,1.975-1.832,6.35,6.35,0,0,0,.624-2.9,1.052,1.052,0,0,0-.774-1" fill="#fff"/>
            <path id="Path_25" data-name="Path 25" d="M111.14,79.723a1.4,1.4,0,0,0-.74-.869c-.4-.207-.688.176-.87.508a12.766,12.766,0,0,0-.742,1.53.778.778,0,0,0,.878,1.071c.142-.013.282-.045.5-.082-.52,1.584-2.142,1.913-3.158,3.04a3.688,3.688,0,0,0,3.561-2.185,4.5,4.5,0,0,0,.365-.991,8.226,8.226,0,0,0,.206-2.021" fill="#fff"/>
            <path id="Path_26" data-name="Path 26" d="M27.071,79.676c-.132-.062-.422-.053-.458.017-.361.721-.7,1.469-1.03,2.207.053.026.114.053.176.079-.062.167-.132.334-.2.51a6.351,6.351,0,0,0-.475,1.372,1.166,1.166,0,0,0,.343.959c.264.158.73.035,1.083-.044.185-.044.343-.255.484-.422A5.154,5.154,0,0,0,28.12,81.5a1.779,1.779,0,0,0-1.047-1.82m-.854,4.318c-.264-.387-.563-.642-.519-.783a3.9,3.9,0,0,1,.59-.906c.255.246.7.484.7.73.009.264-.405.527-.775.959" fill="#fff"/>
            <path id="Path_27" data-name="Path 27" d="M87.843,76.42c-.134.257-.3.5-.481.779a6.646,6.646,0,0,0-.686-.624c-.116-.08-.415-.115-.449-.06-.313.516-.6,1.052-.862,1.594-.031.064.057.234.135.3.782.637.871,1.008,1.556-.143.049-.083.1-.164.213-.342a5.243,5.243,0,0,0,.623.519c.144.087.386.175.506.113a1.4,1.4,0,0,0,.282-2.242c-.328-.288-.6-.342-.838.109" fill="#fff"/>
            <path id="Path_28" data-name="Path 28" d="M81.748,72.884a1.372,1.372,0,0,0,.164-2.311c-.275-.207-.486-.214-.675.1-.171.279-.35.553-.549.867a6.5,6.5,0,0,0-.68-.615c-.117-.08-.416-.117-.451-.061-.317.512-.6,1.046-.873,1.585-.031.062.063.226.141.3.838.737.951.912,1.56-.121.058-.1.128-.192.239-.358a5.635,5.635,0,0,0,.661.573.541.541,0,0,0,.462.052" fill="#fff"/>
            <path id="Path_29" data-name="Path 29" d="M12.462,73.9c.847.733.935.966,1.557-.086a4.263,4.263,0,0,1,.275-.366,5.82,5.82,0,0,0,.629.555.553.553,0,0,0,.459.078,1.392,1.392,0,0,0,.28-2.249c-.329-.295-.594-.35-.83.1a8.819,8.819,0,0,1-.5.768c-.231-.218-.4-.4-.6-.556a1.387,1.387,0,0,0-.392-.187c-.332.609-.646,1.228-.955,1.85-.007.014.042.063.071.088" fill="#fff"/>
            <path id="Path_30" data-name="Path 30" d="M22.833,76.906a16.642,16.642,0,0,0-.76,2.692c-.191,1.528-.211,3.078-.3,4.619,0,.027.045.057.123.15a2.051,2.051,0,0,0,.353-.45,6.674,6.674,0,0,0,.592-1.709c.183-1.866.266-3.742.388-5.614l-.163-.053a1.608,1.608,0,0,0-.232.366" fill="#fff"/>
            <path id="Path_31" data-name="Path 31" d="M100.191,79.449c-.062,1.29-.1,2.582-.157,3.873a9.05,9.05,0,0,1-.142.941l.164.054a2.845,2.845,0,0,0,.84-1.77c.212-1.975.333-3.96.49-5.941l-.237-.052a6.752,6.752,0,0,0-.957,2.9" fill="#fff"/>
            <path id="Path_32" data-name="Path 32" d="M104.549,82.471a18.189,18.189,0,0,1-2.752,2.356l.1.2c.472-.1.942-.216,1.417-.3a2.51,2.51,0,0,0,2.023-1.765c.341-.982.677-1.965.993-2.954a2.647,2.647,0,0,0,.044-.647l-.18-.049a17.417,17.417,0,0,1-1.64,3.168" fill="#fff"/>
            <path id="Path_33" data-name="Path 33" d="M47.322,82.465a18.165,18.165,0,0,1-2.745,2.353l.1.218c.523-.125,1.044-.261,1.57-.372a2.176,2.176,0,0,0,1.7-1.389c.414-1.1.778-2.215,1.147-3.329a2.426,2.426,0,0,0,.046-.583l-.186-.056a17.392,17.392,0,0,1-1.636,3.16" fill="#fff"/>
            <path id="Path_34" data-name="Path 34" d="M38.714,79.317A17.7,17.7,0,0,1,37.057,82.5a17.55,17.55,0,0,1-2.727,2.312l.085.21c.485-.108.968-.229,1.456-.319a2.418,2.418,0,0,0,1.955-1.673c.367-1.033.708-2.074,1.041-3.119a1.945,1.945,0,0,0,.008-.565l-.161-.03" fill="#fff"/>
            <path id="Path_35" data-name="Path 35" d="M98.135,80.382a6.332,6.332,0,0,1-3.129,3.8,1.867,1.867,0,0,0-.432.3,2.653,2.653,0,0,0-.285.382l.092.168c.5-.115,1-.244,1.507-.344a2.322,2.322,0,0,0,1.844-1.548q.535-1.459,1.024-2.935a4.51,4.51,0,0,0,.113-.826l-.242-.076c-.166.36-.362.709-.492,1.081" fill="#fff"/>
            <path id="Path_36" data-name="Path 36" d="M57.98,79.407a3.472,3.472,0,0,0-.548.672c-.5,1.234-.993,2.472-1.43,3.729a1.773,1.773,0,0,0,.034,1.035.841.841,0,0,0,.547.506.921.921,0,0,0,.693-.309c.438-.5.372-.972-.227-1.53a.839.839,0,0,1-.272-1.076c.4-.944.76-1.906,1.2-3.027" fill="#fff"/>
            <path id="Path_37" data-name="Path 37" d="M62.769,83.221a.478.478,0,0,0,.675.035.469.469,0,0,0,.077-.089c.96-1.006.773-2.041-.553-2.7-.206.366-.434.729-.621,1.11-.481.979-.466.973.421,1.647" fill="#fff"/>
            <path id="Path_38" data-name="Path 38" d="M106.635,73.185c-.1-.016-.282.009-.317.074a6.318,6.318,0,0,0-.749,1.624c-.04.2.528.522.821.786.043.039.1.089.148.088.107,0,.27,0,.31-.063.282-.436.538-.888.8-1.335-.087-.4-.669-1.121-1.016-1.173" fill="#fff"/>
            <path id="Path_39" data-name="Path 39" d="M33.572,73.714c-.428-.2-.51.342-.694.613a1.557,1.557,0,0,0-.107.207c-.469.972-.367,1.258.623,1.674.1.044.317.046.359-.015.293-.429.554-.879.907-1.457a4.972,4.972,0,0,0-1.087-1.021" fill="#fff"/>
            <path id="Path_40" data-name="Path 40" d="M17.857,87.345c-.124.222-.241.449-.344.681a1.088,1.088,0,0,0,.675,1.384,1.031,1.031,0,0,0,.252.055.273.273,0,0,0,.207-.075c.279-.439.546-.887.842-1.375a7.347,7.347,0,0,0-.581-.8c-.5-.522-.7-.488-1.051.134" fill="#fff"/>
            <path id="Path_41" data-name="Path 41" d="M69.933,17.957c.732,4.767-.713,9.025-3.237,13.069,3.463-1.892,7.047-7.051,6.534-13.128A13.4,13.4,0,0,0,63.293,6.231c3.476,3.258,5.918,7.022,6.64,11.726" fill="#fff"/>
            <path id="Path_42" data-name="Path 42" d="M44.443,31.062c-5.636-9.232-4.151-17.424,3.316-24.8A13.357,13.357,0,0,0,38.076,16.7a14.163,14.163,0,0,0,6.367,14.359" fill="#fff"/>
            <path id="Path_43" data-name="Path 43" d="M52.547,33.3a19,19,0,0,1-6.278,1.1.525.525,0,0,0,.23.139,14.017,14.017,0,0,0,7.14.333.592.592,0,0,1,.714.266c.381.518.782,1.022,1.222,1.593.445-.58.833-1.116,1.259-1.619a.691.691,0,0,1,.527-.255,14.353,14.353,0,0,0,7.056-.246,4.179,4.179,0,0,0,.439-.157,20.229,20.229,0,0,1-6.269-1.169c4.62-3.055,7.977-6.945,8.385-12.564.391-5.387-1.006-10.281-5.224-14.022a19.585,19.585,0,0,1,2.494,12.952c-.816,4.654-3.45,8.191-7.029,11.134a1.435,1.435,0,0,1-.059-.521c.172-3.909.4-7.816.5-11.727.092-3.579.036-7.161.066-10.742a1.046,1.046,0,0,0-.536-1.072,9.4,9.4,0,0,1-1.318-1.155l-.273-.243A22.229,22.229,0,0,1,53.851,6.8a.854.854,0,0,0-.427.8c-.129,7.577.212,15.142.562,22.707.007.16,0,.321,0,.482l-.18.017c-7.836-6.84-9.2-14.887-4.411-24.1-3.057,2.482-4.409,5.856-5.042,9.6-1.276,7.547,2.115,12.879,8.189,17" fill="#fff"/>
            <path id="Path_44" data-name="Path 44" d="M52.305,3.092a2.5,2.5,0,0,0,2.887-.341c.32-.268.477-.238.777.011A2.666,2.666,0,0,0,59.66,2.5,2.116,2.116,0,0,0,60.024,0c-.542.749-1.037,1.559-2.015,1.772C56.954,2,56.266,1.314,55.566.68c-.7.666-1.385,1.314-2.425,1.089C52.165,1.558,51.67.747,51.128.006l-.122.032a5.19,5.19,0,0,0-.135.783A2.344,2.344,0,0,0,52.306,3.09" fill="#fff"/>
        </g>
    </g>
</svg>
