<svg xmlns="http://www.w3.org/2000/svg" xmlns:xlink="http://www.w3.org/1999/xlink" width="207.749" height="267.306" viewBox="0 0 207.749 267.306">
  <defs>
    <clipPath id="clip-path">
      <rect id="Rectangle_8" data-name="Rectangle 8" width="207.749" height="267.306" fill="none"/>
    </clipPath>
    <clipPath id="clip-path-3">
      <rect id="Rectangle_4" data-name="Rectangle 4" width="163.275" height="15.735" transform="translate(20.396 251.571)" fill="none"/>
    </clipPath>
  </defs>
  <g id="Group_14" data-name="Group 14" transform="translate(0 59.653)">
    <g id="Group_13" data-name="Group 13" transform="translate(0 -59.653)" clip-path="url(#clip-path)">
      <g id="Group_12" data-name="Group 12">
        <g id="Group_11" data-name="Group 11" clip-path="url(#clip-path)">
          <path id="Path_128" data-name="Path 128" d="M14.18,169.267v8.187a23.155,23.155,0,0,1-10.818-3.408V163.9a4.088,4.088,0,0,1,1.175.831,15.476,15.476,0,0,0,9.643,4.532" fill="#fff"/>
          <path id="Path_129" data-name="Path 129" d="M207.749,179.774c-.077.777-.155,1.554-.24,2.409H181.26v-6.95h15.26c-.452-.543-.748-.951-1.1-1.307-2.068-2.1-4.176-4.168-6.21-6.3a3.716,3.716,0,0,0-3.226-1.393,8.04,8.04,0,0,1-1.389-.109,5.834,5.834,0,0,1,.45-.639c1.862-1.933,3.74-3.851,5.592-5.793.617-.648,1.115-.617,1.742.013q6.451,6.481,12.941,12.926a9.893,9.893,0,0,1,2.426,4.362Z" fill="#fff"/>
          <path id="Path_130" data-name="Path 130" d="M126.568,182.366h-1.247c-9.277,0-30.452-.024-30.452-.024l-5.1,4.2a8.287,8.287,0,0,1-10.759-.194l-.293-.26,6.347-4.837-.361-.187a11.6,11.6,0,0,1-6.587-8.827,11.205,11.205,0,0,1,1.612-7.808,11.646,11.646,0,0,1,14.034-4.807c5.907,2.224,8.275,7.439,6.888,15.272h15.42c-.368-.412-.63-.729-.918-1.022q-1.467-1.491-2.942-2.976-1.64-1.654-3.263-3.328a3.78,3.78,0,0,0-3.366-1.314,13.628,13.628,0,0,1-1.55.009c.351-.429.551-.718.794-.965q2.727-2.754,5.47-5.492c.808-.8,1.168-.8,1.991.026q6.694,6.729,13.373,13.474a2.931,2.931,0,0,1,.917,2.218c-.028,2.244-.009,4.488-.009,6.841M86.013,170.495a3.6,3.6,0,0,0,3.593,3.7,3.673,3.673,0,1,0,.06-7.345,3.6,3.6,0,0,0-3.653,3.642" fill="#fff"/>
          <path id="Path_131" data-name="Path 131" d="M141.015,178.935c-3.879,3.1-8.235,3.728-12.938,3.083v-8.011c1.426,0,2.81-.06,4.186.014,2.046.11,4.169-.368,6.742-3.381a5.078,5.078,0,0,1,5.47-1.64,14.318,14.318,0,0,0,.032,2.607c.1.546.3,2.375,2.121,2.375a5.234,5.234,0,0,0,3.858-2.1c.418-.474,1.954-2.879,2.839-3.209.929-.348,1.866-.276,2.073.987.118.716.164,1.446.264,2.167.231,1.654,1.146,2.273,2.8,2.225,2.359-.067,3.877-2.844,4.317-3.5,1.014-1.526,1.927-2.241,3.836-1.674.071.861.138,1.749.218,2.636.185,2.031,1.324,2.983,3.256,2.351,1.886-.616,3.082-2.217,4.094-3.8a3.215,3.215,0,0,1,3.709-1.185s0,1.863.032,2.425c-.006,3.569,2.615,3.958,2.615,3.958v6.93c-.155-.008-1.124.091-1.272.074a6.211,6.211,0,0,1-4.725-3.322c-1.685,1.623-3.231,3.412-5.731,3.487-2.559.078-4.025-1.724-5.581-3.5-1.444,1.837-2.861,3.676-5.546,3.45a6.7,6.7,0,0,1-5.612-3.6c-1.464,1.859-2.72,3.866-5.462,3.625a6.83,6.83,0,0,1-5.594-3.462" fill="#fff"/>
          <path id="Path_132" data-name="Path 132" d="M28.736,154.178a12.687,12.687,0,1,1-12.687-12.693,12.66,12.66,0,0,1,12.687,12.693M16.061,164.5A10.34,10.34,0,1,0,5.712,154.2a10.341,10.341,0,0,0,10.349,10.3" fill="#fff"/>
          <path id="Path_133" data-name="Path 133" d="M90.693,149.662c-1.391,1.908-2.656,3.887-5.345,3.665a6.459,6.459,0,0,1-5.631-3.524c-3.8,3.078-8.135,3.8-12.837,3.146v-8.041c1.426,0,2.813-.075,4.189.018a5.9,5.9,0,0,0,4.721-1.635c.911-.869,1.9-1.655,2.781-2.555a2.491,2.491,0,0,1,2.193-.854c.653.068,1.318.013,2.077.013.09.888.179,1.73.259,2.573.223,2.347,1.858,3.236,3.912,2.111a9.279,9.279,0,0,0,3.57-3.65,1.689,1.689,0,0,1,1.877-1.046A11.271,11.271,0,0,0,94,139.9c.093.931.177,1.779.262,2.627.2,1.988,1.466,2.964,3.365,2.337a9.309,9.309,0,0,0,2.7-1.712,6.151,6.151,0,0,0,1.1-1.525c1.265-1.955,1.261-1.957,3.909-1.607a45.839,45.839,0,0,1-1.439,5.525,17.641,17.641,0,0,1-2.67,4.823c-2.834,3.428-7.6,4.186-10.541-.7" fill="#fff"/>
          <path id="Path_134" data-name="Path 134" d="M132.687,151.922a4.46,4.46,0,0,1,4.434,4.411,4.523,4.523,0,0,1-4.425,4.345,4.265,4.265,0,0,1-4.33-4.439,4.183,4.183,0,0,1,4.321-4.317" fill="#fff"/>
          <path id="Path_135" data-name="Path 135" d="M142.61,151.922a4.3,4.3,0,0,1,4.377,4.312,4.381,4.381,0,1,1-8.76-.017,4.272,4.272,0,0,1,4.383-4.295" fill="#fff"/>
          <path id="Path_136" data-name="Path 136" d="M57.785,125.429a4.363,4.363,0,1,1-4.345-4.387,4.386,4.386,0,0,1,4.345,4.387" fill="#fff"/>
          <path id="Path_137" data-name="Path 137" d="M98.166,135.714a4.349,4.349,0,1,1,.122-8.7,4.4,4.4,0,0,1,4.31,4.427,4.322,4.322,0,0,1-4.432,4.271" fill="#fff"/>
          <path id="Path_138" data-name="Path 138" d="M81.319,131.4a4.365,4.365,0,1,1-4.348-4.387,4.395,4.395,0,0,1,4.348,4.387" fill="#fff"/>
          <path id="Path_139" data-name="Path 139" d="M87.165,135.714a4.35,4.35,0,0,1,.108-8.7,4.412,4.412,0,0,1,4.324,4.42,4.348,4.348,0,0,1-4.432,4.279" fill="#fff"/>
          <path id="Path_140" data-name="Path 140" d="M183.936,191.29a4.189,4.189,0,0,1,4.465-4.175,4.321,4.321,0,1,1-.27,8.637,4.226,4.226,0,0,1-4.195-4.462" fill="#fff"/>
          <path id="Path_141" data-name="Path 141" d="M118.288,187.115a4.318,4.318,0,1,1-4.331,4.338,4.231,4.231,0,0,1,4.331-4.338" fill="#fff"/>
          <path id="Path_142" data-name="Path 142" d="M79.719,199.365A4.22,4.22,0,0,1,75.4,203.7a4.318,4.318,0,1,1,4.318-4.335" fill="#fff"/>
          <path id="Path_143" data-name="Path 143" d="M70.025,212.8H73.1v7.956c-3.734,0-7.5,0-10.552,0-.128,0-.258-.027-.541-.056v-1.151c0-4.376.021-8.749-.006-13.125a6.078,6.078,0,0,0-11.979-1.761,5.466,5.466,0,0,0,3.906,6.368c.064.021.361.093.775.188a4,4,0,0,1-.9,7.893,4.257,4.257,0,0,1-.514-.032c-.257-.035-.443-.061-.515-.077a13.421,13.421,0,0,1-9.414-19.217,13.918,13.918,0,0,1,14.377-7.649A13.37,13.37,0,0,1,69.479,202.71a66.071,66.071,0,0,1,.543,8.609c.024.456,0,.912,0,1.477" fill="#fff"/>
          <path id="Path_144" data-name="Path 144" d="M89.178,208.372l-.008,1.39a11.053,11.053,0,0,1-11.049,10.987H74.639V212.8l3.657,0a3.144,3.144,0,0,0,3.149-3.145v-1.172a3.936,3.936,0,0,1,3.678-3.97,3.865,3.865,0,0,1,4.055,3.861" fill="#fff"/>
          <path id="Path_145" data-name="Path 145" d="M116.93,200.442c-2.175,0-5.838,1.323-9.031,4.421l-7.309,7.312v-20.96a7.5,7.5,0,0,0-7.5,7.5v21.45h10.329l2.9-2.769,2.9,2.952.013-.016a11.437,11.437,0,1,0,7.7-19.893m.164,15.512a4.318,4.318,0,1,1,4.312-4.339,4.219,4.219,0,0,1-4.312,4.339" fill="#fff"/>
          <path id="Path_146" data-name="Path 146" d="M144.374,211.854c.618,0,1.236,0,1.846,0v8.185l-2.345-.016a10.878,10.878,0,0,1-10.8-10.876V198.986a7.769,7.769,0,0,1,7.77-7.771v17.114a3.525,3.525,0,0,0,3.533,3.525" fill="#fff"/>
          <path id="Path_147" data-name="Path 147" d="M189.475,206.987a45.707,45.707,0,0,1-1.44,5.525,17.636,17.636,0,0,1-2.668,4.823c-2.835,3.43-7.6,4.186-10.542-.7-1.392,1.906-2.655,3.885-5.344,3.666a6.461,6.461,0,0,1-5.63-3.525,15.373,15.373,0,0,1-11.211,3.314c-.146-.008-2.18-.027-4.885-.044v-8.195c3.723,0,6.9.01,7.447.048a5.9,5.9,0,0,0,4.721-1.637c.909-.867,1.9-1.655,2.779-2.555a2.5,2.5,0,0,1,2.193-.854,20.325,20.325,0,0,0,2.077.014c.09.889.18,1.729.26,2.573.223,2.347,1.859,3.236,3.912,2.111a9.268,9.268,0,0,0,3.569-3.649,1.694,1.694,0,0,1,1.878-1.049,10.8,10.8,0,0,0,1.546.014c.1.958.181,1.825.268,2.7a2.517,2.517,0,0,0,3.4,2.251,9.526,9.526,0,0,0,2.661-1.7,6.153,6.153,0,0,0,1.1-1.524c1.265-1.954,1.26-1.957,3.909-1.608" fill="#fff"/>
          <path id="Path_148" data-name="Path 148" d="M65.281,144.68v8.11a11.836,11.836,0,0,1-10.3-2.766c-2.134,2.5-4.961,2.824-7.907,2.777-1.035-.016-2.69-.045-3.888-.067a7.047,7.047,0,0,1-2.811-.633l-1.568-.785v1.108c.048.605.072,1.22.072,1.838a23.313,23.313,0,0,1-20.96,23.193v-8.217c6.89-.962,12.852-6.113,13.348-13.7,0,0-.108-18.6-.01-18.515-.007-2.166-.024-5.435-.037-8.462a7.587,7.587,0,0,1,7.587-7.617c.027.225.008,11.436,0,18.289a5.216,5.216,0,0,0,5.216,5.214c2.252,0,4.578,0,5.5,0a1.721,1.721,0,0,0-1.164-2.3c-1.528-.613-3.11-1.1-4.756-1.666v-6.861H63.743V140.8h-5.53c2.04,2.225,4.124,3.747,7.068,3.88" fill="#fff"/>
          <path id="Path_149" data-name="Path 149" d="M24.409,151.548l-1.53.48a7.086,7.086,0,0,1,.329,2.117l1.588-.34a8.653,8.653,0,0,0-.387-2.257m-3.6-4.739L19.468,147.9a7.14,7.14,0,0,1,2.944,3l1.477-.65a8.713,8.713,0,0,0-3.079-3.44" fill="#fff"/>
          <path id="Path_150" data-name="Path 150" d="M74.563,188.325l-58.367.058a33.8,33.8,0,0,1-12.834-2.514v-8.436a3.7,3.7,0,0,1,.838.315,26.057,26.057,0,0,0,12,2.9c.732,0,50.262-.249,50.262-.249a4.8,4.8,0,0,0-4.673-6.081c-2.485-.064-4.972-.016-7.457-.016h-5.75c0-1.668.024-4.5.05-7.32a8.617,8.617,0,0,1,8.614-8.529s.024,6.307.024,7.853c1.533,0,2.915-.024,4.294,0A12.711,12.711,0,0,1,73.2,173.3a11.9,11.9,0,0,1,1.413,5.631c.037,2.949-.053,9.4-.053,9.4" fill="#fff"/>
          <g id="Group_10" data-name="Group 10" opacity="0.16">
            <g id="Group_9" data-name="Group 9">
              <g id="Group_8" data-name="Group 8" clip-path="url(#clip-path-3)">
                <path id="Path_151" data-name="Path 151" d="M183.671,259.438c0,4.345-36.55,7.868-81.637,7.868S20.4,263.783,20.4,259.438s36.55-7.868,81.637-7.868,81.637,3.523,81.637,7.868" fill="#161a34"/>
              </g>
            </g>
          </g>
          <path id="Path_152" data-name="Path 152" d="M75.37,71.315,93.983,57.08l53.955,46.982" fill="none" stroke="#fff" stroke-linecap="round" stroke-miterlimit="10" stroke-width="0.75"/>
          <path id="Path_153" data-name="Path 153" d="M137.122,90.882,151.3,78.648l22.143,19.1" fill="none" stroke="#fff" stroke-linecap="round" stroke-miterlimit="10" stroke-width="0.75"/>
          <circle id="Ellipse_4" data-name="Ellipse 4" cx="7.45" cy="7.45" r="7.45" transform="matrix(0.139, -0.99, 0.99, 0.139, 120.04, 61.701)" fill="none" stroke="#fff" stroke-miterlimit="10" stroke-width="0.75"/>
          <path id="Path_154" data-name="Path 154" d="M128.451,44.948a10.411,10.411,0,0,1,9.025,15.6" fill="none" stroke="#fff" stroke-miterlimit="10" stroke-width="0.75"/>
          <path id="Path_155" data-name="Path 155" d="M118.043,55.356a10.4,10.4,0,0,1,4.456-8.54" fill="none" stroke="#fff" stroke-miterlimit="10" stroke-width="0.75"/>
          <path id="Path_156" data-name="Path 156" d="M132.139,65.092a10.421,10.421,0,0,1-12.479-4.163" fill="none" stroke="#fff" stroke-miterlimit="10" stroke-width="0.75"/>
          <path id="Path_157" data-name="Path 157" d="M136.82,66.759a14.085,14.085,0,0,1-8.369,2.74" fill="none" stroke="#fff" stroke-miterlimit="10" stroke-width="0.75"/>
          <path id="Path_158" data-name="Path 158" d="M142.289,58.294a14.12,14.12,0,0,1-2.564,5.6" fill="none" stroke="#fff" stroke-miterlimit="10" stroke-width="0.75"/>
          <path id="Path_159" data-name="Path 159" d="M140.475,47.9a14.061,14.061,0,0,1,1.95,5.253" fill="none" stroke="#fff" stroke-miterlimit="10" stroke-width="0.75"/>
          <path id="Path_160" data-name="Path 160" d="M125.422,41.538a14.19,14.19,0,0,1,3.029-.325" fill="none" stroke="#fff" stroke-miterlimit="10" stroke-width="0.75"/>
          <path id="Path_161" data-name="Path 161" d="M118.043,45.78a14.34,14.34,0,0,1,1.614-1.5,14.144,14.144,0,0,1,2.049-1.356" fill="none" stroke="#fff" stroke-miterlimit="10" stroke-width="0.75"/>
          <path id="Path_162" data-name="Path 162" d="M114.308,55.356a14.141,14.141,0,0,1,.656-4.27" fill="none" stroke="#fff" stroke-miterlimit="10" stroke-width="0.75"/>
          <path id="Path_163" data-name="Path 163" d="M117.17,63.888a14.091,14.091,0,0,1-1.88-3.344" fill="none" stroke="#fff" stroke-miterlimit="10" stroke-width="0.75"/>
          <line id="Line_5" data-name="Line 5" x2="22.042" transform="translate(48.867 85.926)" fill="none" stroke="#fff" stroke-linecap="round" stroke-miterlimit="10" stroke-width="0.75"/>
          <line id="Line_6" data-name="Line 6" x2="24.826" transform="translate(64.962 80.917)" fill="none" stroke="#fff" stroke-linecap="round" stroke-miterlimit="10" stroke-width="0.75"/>
          <line id="Line_7" data-name="Line 7" x2="12.106" transform="translate(43.858 80.917)" fill="none" stroke="#fff" stroke-linecap="round" stroke-miterlimit="10" stroke-width="0.75"/>
          <line id="Line_8" data-name="Line 8" x2="23.655" transform="translate(52.138 75.732)" fill="none" stroke="#fff" stroke-linecap="round" stroke-miterlimit="10" stroke-width="0.75"/>
          <line id="Line_9" data-name="Line 9" x2="10.208" transform="translate(160.528 69.5)" fill="none" stroke="#fff" stroke-linecap="round" stroke-miterlimit="10" stroke-width="0.75"/>
          <line id="Line_10" data-name="Line 10" x2="15.627" transform="translate(165.633 65.764)" fill="none" stroke="#fff" stroke-linecap="round" stroke-miterlimit="10" stroke-width="0.75"/>
          <path id="Path_164" data-name="Path 164" d="M11.41,78.459l3.277,6.64,7.327,1.064-5.3,5.169,1.252,7.3L11.41,95.184,4.856,98.629l1.252-7.3-5.3-5.169L8.133,85.1Z" fill="none" stroke="#fff" stroke-linecap="round" stroke-miterlimit="10" stroke-width="0.75"/>
          <path id="Path_165" data-name="Path 165" d="M49.911,106.8H22.879v9.02h-11.8a5.37,5.37,0,0,0-5.369,5.371,5.825,5.825,0,0,0,5.826,5.825h4.529v10.31" fill="none" stroke="#fff" stroke-linecap="round" stroke-miterlimit="10" stroke-width="0.75"/>
          <path id="Path_166" data-name="Path 166" d="M34.761,88.544V35.759H3.362V75.732" fill="none" stroke="#fff" stroke-linecap="round" stroke-miterlimit="10" stroke-width="0.75"/>
          <path id="Path_167" data-name="Path 167" d="M38.993,53.221H53.422V66.759" fill="none" stroke="#fff" stroke-linecap="round" stroke-miterlimit="10" stroke-width="0.75"/>
          <rect id="Rectangle_5" data-name="Rectangle 5" width="45.564" height="28.004" rx="1.702" transform="translate(114.964 115.819)" fill="none" stroke="#fff" stroke-linecap="round" stroke-miterlimit="10" stroke-width="0.75"/>
          <path id="Path_168" data-name="Path 168" d="M140.557,133.449h3.617a9.883,9.883,0,0,0,6.7-2.606l9.5-8.744" fill="none" stroke="#fff" stroke-linecap="round" stroke-miterlimit="10" stroke-width="0.75"/>
          <path id="Path_169" data-name="Path 169" d="M114.97,122.1l9.268,8.683A9.894,9.894,0,0,0,131,133.449h3.727" fill="none" stroke="#fff" stroke-linecap="round" stroke-miterlimit="10" stroke-width="0.75"/>
          <rect id="Rectangle_6" data-name="Rectangle 6" width="5.838" height="7.744" rx="0.856" transform="translate(134.717 129.579)" fill="none" stroke="#fff" stroke-linecap="round" stroke-miterlimit="10" stroke-width="0.75"/>
          <line id="Line_11" data-name="Line 11" x2="6.465" transform="translate(53.423 106.798)" fill="none" stroke="#fff" stroke-linecap="round" stroke-miterlimit="10" stroke-width="0.75"/>
          <line id="Line_12" data-name="Line 12" x2="6.465" transform="translate(62.974 106.798)" fill="none" stroke="#fff" stroke-linecap="round" stroke-miterlimit="10" stroke-width="0.75"/>
          <line id="Line_13" data-name="Line 13" x2="5.024" transform="translate(74.85 106.798)" fill="none" stroke="#fff" stroke-linecap="round" stroke-miterlimit="10" stroke-width="0.75"/>
          <line id="Line_14" data-name="Line 14" x2="4.23" transform="translate(89.13 106.798)" fill="none" stroke="#fff" stroke-linecap="round" stroke-miterlimit="10" stroke-width="0.75"/>
          <line id="Line_15" data-name="Line 15" x2="1.616" transform="translate(105.571 106.798)" fill="none" stroke="#fff" stroke-linecap="round" stroke-miterlimit="10" stroke-width="0.75"/>
          <path id="Path_170" data-name="Path 170" d="M129.8,115.283v-2.83a1.579,1.579,0,0,1,1.579-1.578h12.509a1.579,1.579,0,0,1,1.579,1.578v2.83" fill="none" stroke="#fff" stroke-linecap="round" stroke-miterlimit="10" stroke-width="0.75"/>
          <line id="Line_16" data-name="Line 16" y2="4.242" transform="translate(8.771 41.538)" fill="none" stroke="#fff" stroke-linecap="round" stroke-miterlimit="10" stroke-width="0.75"/>
          <line id="Line_17" data-name="Line 17" y2="4.242" transform="translate(12.244 49.878)" fill="none" stroke="#fff" stroke-linecap="round" stroke-miterlimit="10" stroke-width="0.75"/>
          <line id="Line_18" data-name="Line 18" y2="4.242" transform="translate(8.771 58.217)" fill="none" stroke="#fff" stroke-linecap="round" stroke-miterlimit="10" stroke-width="0.75"/>
          <line id="Line_19" data-name="Line 19" y2="6.968" transform="translate(8.771 66.557)" fill="none" stroke="#fff" stroke-linecap="round" stroke-miterlimit="10" stroke-width="0.75"/>
          <line id="Line_20" data-name="Line 20" y2="1.061" transform="translate(12.244 66.557)" fill="none" stroke="#fff" stroke-linecap="round" stroke-miterlimit="10" stroke-width="0.75"/>
          <line id="Line_21" data-name="Line 21" y2="4.242" transform="translate(17.325 41.538)" fill="none" stroke="#fff" stroke-linecap="round" stroke-miterlimit="10" stroke-width="0.75"/>
          <line id="Line_22" data-name="Line 22" y2="4.242" transform="translate(17.325 49.878)" fill="none" stroke="#fff" stroke-linecap="round" stroke-miterlimit="10" stroke-width="0.75"/>
          <line id="Line_23" data-name="Line 23" y2="4.242" transform="translate(20.798 49.878)" fill="none" stroke="#fff" stroke-linecap="round" stroke-miterlimit="10" stroke-width="0.75"/>
          <line id="Line_24" data-name="Line 24" y2="4.242" transform="translate(17.325 58.217)" fill="none" stroke="#fff" stroke-linecap="round" stroke-miterlimit="10" stroke-width="0.75"/>
          <line id="Line_25" data-name="Line 25" y2="4.242" transform="translate(20.798 58.217)" fill="none" stroke="#fff" stroke-linecap="round" stroke-miterlimit="10" stroke-width="0.75"/>
          <line id="Line_26" data-name="Line 26" y2="2.121" transform="translate(20.798 66.557)" fill="none" stroke="#fff" stroke-linecap="round" stroke-miterlimit="10" stroke-width="0.75"/>
          <line id="Line_27" data-name="Line 27" y2="4.242" transform="translate(25.879 41.538)" fill="none" stroke="#fff" stroke-linecap="round" stroke-miterlimit="10" stroke-width="0.75"/>
          <line id="Line_28" data-name="Line 28" y2="4.242" transform="translate(29.352 41.538)" fill="none" stroke="#fff" stroke-linecap="round" stroke-miterlimit="10" stroke-width="0.75"/>
          <line id="Line_29" data-name="Line 29" y2="4.242" transform="translate(29.352 49.878)" fill="none" stroke="#fff" stroke-linecap="round" stroke-miterlimit="10" stroke-width="0.75"/>
          <line id="Line_30" data-name="Line 30" y2="4.242" transform="translate(25.879 58.217)" fill="none" stroke="#fff" stroke-linecap="round" stroke-miterlimit="10" stroke-width="0.75"/>
          <line id="Line_31" data-name="Line 31" y2="8.34" transform="translate(29.352 58.217)" fill="none" stroke="#fff" stroke-linecap="round" stroke-miterlimit="10" stroke-width="0.75"/>
          <line id="Line_32" data-name="Line 32" y2="9.175" transform="translate(25.879 66.557)" fill="none" stroke="#fff" stroke-linecap="round" stroke-miterlimit="10" stroke-width="0.75"/>
          <path id="Path_171" data-name="Path 171" d="M111.707,34.723l-.81.81a1.723,1.723,0,0,1-2.437,0l-.885-.886a1.725,1.725,0,0,0-2.44,0l-.887.89a1.724,1.724,0,0,1-2.44,0l-.9-.9a1.723,1.723,0,0,0-2.437,0l-.888.888a1.723,1.723,0,0,1-2.437,0l-.821-.821a1.722,1.722,0,0,0-2.5.067" fill="none" stroke="#fff" stroke-linecap="round" stroke-miterlimit="10" stroke-width="0.75"/>
          <path id="Path_172" data-name="Path 172" d="M104.637,38.873l-.81.81a1.723,1.723,0,0,1-2.437,0L100.5,38.8a1.725,1.725,0,0,0-2.44,0l-.887.89a1.724,1.724,0,0,1-2.44,0l-.9-.9a1.723,1.723,0,0,0-2.437,0l-.888.888a1.723,1.723,0,0,1-2.437,0l-.821-.821a1.722,1.722,0,0,0-2.5.067" fill="none" stroke="#fff" stroke-linecap="round" stroke-miterlimit="10" stroke-width="0.75"/>
          <path id="Path_173" data-name="Path 173" d="M195.867,119.409A20.78,20.78,0,1,1,175.088,98.63,20.779,20.779,0,0,1,195.867,119.409Z" fill="none" stroke="#fff" stroke-linecap="round" stroke-miterlimit="10" stroke-width="0.75"/>
          <path id="Path_174" data-name="Path 174" d="M185.823,108.441a15.375,15.375,0,0,1,3.249,4.636" fill="none" stroke="#fff" stroke-linecap="round" stroke-miterlimit="10" stroke-width="0.75"/>
          <path id="Path_175" data-name="Path 175" d="M175.087,104.061a15.292,15.292,0,0,1,5.974,1.206" fill="none" stroke="#fff" stroke-linecap="round" stroke-miterlimit="10" stroke-width="0.75"/>
          <line id="Line_33" data-name="Line 33" x2="11.748" y2="9.064" transform="translate(192.655 136.549)" fill="none" stroke="#fff" stroke-linecap="round" stroke-miterlimit="10" stroke-width="0.75"/>
          <path id="Path_176" data-name="Path 176" d="M14.144,119.949l-2.527-1.459L9.09,119.949v2.918l2.527,1.459,2.527-1.459Z" fill="none" stroke="#fff" stroke-linecap="round" stroke-miterlimit="10" stroke-width="0.75"/>
          <path id="Path_177" data-name="Path 177" d="M5.712,110.759h8.326a3.287,3.287,0,0,0,3.287-3.287v-3.411" fill="none" stroke="#fff" stroke-linecap="round" stroke-miterlimit="10" stroke-width="0.75"/>
          <path id="Path_178" data-name="Path 178" d="M187.93,86.364v.852a1.178,1.178,0,0,1-1.177,1.177h-1.036" fill="none" stroke="#fff" stroke-linecap="round" stroke-miterlimit="10" stroke-width="0.75"/>
          <path id="Path_179" data-name="Path 179" d="M187.93,92.675v-.852a1.178,1.178,0,0,0-1.177-1.177h-1.036" fill="none" stroke="#fff" stroke-linecap="round" stroke-miterlimit="10" stroke-width="0.75"/>
          <path id="Path_180" data-name="Path 180" d="M190.208,86.364v.852a1.177,1.177,0,0,0,1.177,1.177h1.034" fill="none" stroke="#fff" stroke-linecap="round" stroke-miterlimit="10" stroke-width="0.75"/>
          <path id="Path_181" data-name="Path 181" d="M190.208,92.675v-.852a1.177,1.177,0,0,1,1.177-1.177h1.034" fill="none" stroke="#fff" stroke-linecap="round" stroke-miterlimit="10" stroke-width="0.75"/>
          <path id="Path_182" data-name="Path 182" d="M60.971,73.525l.906-24.359L53.7,37.188h2.2V33.316H57.79v-2.68" fill="none" stroke="#fff" stroke-linecap="round" stroke-miterlimit="10" stroke-width="0.75"/>
          <line id="Line_34" data-name="Line 34" x2="8.3" transform="translate(56.98 30.636)" fill="none" stroke="#fff" stroke-linecap="round" stroke-miterlimit="10" stroke-width="0.75"/>
          <line id="Line_35" data-name="Line 35" y2="1.701" transform="translate(60.852 30.636)" fill="none" stroke="#fff" stroke-linecap="round" stroke-miterlimit="10" stroke-width="0.5"/>
          <line id="Line_36" data-name="Line 36" y2="1.701" transform="translate(63.711 30.636)" fill="none" stroke="#fff" stroke-linecap="round" stroke-miterlimit="10" stroke-width="0.5"/>
          <line id="Line_37" data-name="Line 37" x2="7.49" transform="translate(57.791 33.316)" fill="none" stroke="#fff" stroke-linecap="round" stroke-miterlimit="10" stroke-width="0.75"/>
          <line id="Line_38" data-name="Line 38" x2="10.028" transform="translate(55.253 37.188)" fill="none" stroke="#fff" stroke-linecap="round" stroke-miterlimit="10" stroke-width="0.75"/>
          <line id="Line_39" data-name="Line 39" x2="6.215" transform="translate(59.065 28.849)" fill="none" stroke="#fff" stroke-linecap="round" stroke-miterlimit="10" stroke-width="0.75"/>
          <path id="Path_183" data-name="Path 183" d="M60.852,28.61a4.04,4.04,0,0,1,4.428-4.646" fill="none" stroke="#fff" stroke-linecap="round" stroke-miterlimit="10" stroke-width="0.75"/>
          <path id="Path_184" data-name="Path 184" d="M69.18,73.525l-.906-24.359,8.173-11.978h-2.2V33.316H72.361v-2.68" fill="none" stroke="#fff" stroke-linecap="round" stroke-miterlimit="10" stroke-width="0.75"/>
          <line id="Line_40" data-name="Line 40" x1="8.3" transform="translate(64.871 30.636)" fill="none" stroke="#fff" stroke-linecap="round" stroke-miterlimit="10" stroke-width="0.75"/>
          <line id="Line_41" data-name="Line 41" y2="1.701" transform="translate(69.299 30.636)" fill="none" stroke="#fff" stroke-linecap="round" stroke-miterlimit="10" stroke-width="0.5"/>
          <line id="Line_42" data-name="Line 42" y2="1.701" transform="translate(66.439 30.636)" fill="none" stroke="#fff" stroke-linecap="round" stroke-miterlimit="10" stroke-width="0.5"/>
          <line id="Line_43" data-name="Line 43" x1="7.49" transform="translate(64.87 33.316)" fill="none" stroke="#fff" stroke-linecap="round" stroke-miterlimit="10" stroke-width="0.75"/>
          <line id="Line_44" data-name="Line 44" x1="10.028" transform="translate(64.87 37.188)" fill="none" stroke="#fff" stroke-linecap="round" stroke-miterlimit="10" stroke-width="0.75"/>
          <line id="Line_45" data-name="Line 45" x1="6.215" transform="translate(64.871 28.849)" fill="none" stroke="#fff" stroke-linecap="round" stroke-miterlimit="10" stroke-width="0.75"/>
          <path id="Path_185" data-name="Path 185" d="M69.3,28.61a4.04,4.04,0,0,0-4.428-4.646" fill="none" stroke="#fff" stroke-linecap="round" stroke-miterlimit="10" stroke-width="0.75"/>
          <line id="Line_46" data-name="Line 46" x2="3.34" y2="5.242" transform="translate(57.791 37.188)" fill="none" stroke="#fff" stroke-linecap="round" stroke-miterlimit="10" stroke-width="0.5"/>
          <line id="Line_47" data-name="Line 47" x2="3.34" y2="5.242" transform="translate(68.892 37.188)" fill="none" stroke="#fff" stroke-linecap="round" stroke-miterlimit="10" stroke-width="0.5"/>
          <line id="Line_48" data-name="Line 48" x1="3.848" y2="5.178" transform="translate(69.323 37.744)" fill="none" stroke="#fff" stroke-linecap="round" stroke-miterlimit="10" stroke-width="0.5"/>
          <path id="Path_186" data-name="Path 186" d="M63.055,37.744l6.268,8.737H60.266" fill="none" stroke="#fff" stroke-linecap="round" stroke-miterlimit="10" stroke-width="0.5"/>
          <line id="Line_49" data-name="Line 49" x2="6.422" transform="translate(61.877 49.166)" fill="none" stroke="#fff" stroke-linecap="round" stroke-miterlimit="10" stroke-width="0.75"/>
          <line id="Line_50" data-name="Line 50" y2="5.957" transform="translate(64.962 51.564)" fill="none" stroke="#fff" stroke-linecap="round" stroke-miterlimit="10" stroke-width="0.75"/>
          <line id="Line_51" data-name="Line 51" y2="5.957" transform="translate(64.962 61.492)" fill="none" stroke="#fff" stroke-linecap="round" stroke-miterlimit="10" stroke-width="0.75"/>
          <line id="Line_52" data-name="Line 52" y2="0.811" transform="translate(64.962 72.714)" fill="none" stroke="#fff" stroke-linecap="round" stroke-miterlimit="10" stroke-width="0.75"/>
          <line id="Line_53" data-name="Line 53" y1="23.589" transform="translate(65.281 0.375)" fill="none" stroke="#fff" stroke-linecap="round" stroke-miterlimit="10" stroke-width="0.75"/>
        </g>
      </g>
    </g>
  </g>
</svg>
